<?xml version="1.0" encoding="utf-8"?>
<!-- Generator: Adobe Illustrator 26.3.1, SVG Export Plug-In . SVG Version: 6.00 Build 0)  -->
<svg version="1.0" id="Layer_1" xmlns="http://www.w3.org/2000/svg" xmlns:xlink="http://www.w3.org/1999/xlink" x="0px" y="0px"
	 viewBox="0 0 211 316" style="enable-background:new 0 0 211 316;" xml:space="preserve">
<style type="text/css">
	.st0{fill:none;}
	.st1{fill:#FFF79B;}
	.st2{fill:#F6F6F6;}
	.st3{fill:#FF56C2;}
	.st4{fill:#59FFF6;}
	.st5{fill:#FAF000;}
	.st6{fill:#FF5720;}
	.st7{fill:#7D55FF;}
	.st8{fill:#FDFF00;}
	.st9{clip-path:url(#SVGID_00000033367468655122197900000003143507876729278347_);}
	.st10{clip-path:url(#SVGID_00000120517235341537708380000006718994432074968968_);fill:#202123;}
	.st11{clip-path:url(#SVGID_00000147925475038771745240000007576205578450487459_);}
	.st12{clip-path:url(#SVGID_00000149382222473242639610000011277135309392061827_);fill:#202123;}
	.st13{clip-path:url(#SVGID_00000065038221296042112130000002522042409306375320_);}
	.st14{clip-path:url(#SVGID_00000004506070909086590790000014002091527565067928_);fill:#FF5720;}
	.st15{clip-path:url(#SVGID_00000003784801690004165150000000784388722186737291_);}
	.st16{clip-path:url(#SVGID_00000005265504018678870130000013456515022744202935_);fill:#202123;}
</style>
<g>
	<path class="st0" d="M130.3,204.9c-4,3.9-9.5,6.4-15.5,6.4c-12.4,0-22.4-10.2-22.4-22.8s10-22.8,22.4-22.8c6.9,0,13.1,3.2,17.2,8.2
		l21.8-5.9c-7.6-16.5-24-27.9-43-27.9c-17,0-31.9,9.1-40.3,22.9l-0.5-0.6l0.3,1c-0.6,1-1.1,2-1.7,3l-0.5,0.9
		c-0.4,0.9-0.8,1.8-1.2,2.7l-0.3,0.7c-2.1,5.5-3.3,11.5-3.3,17.8c0,26.8,21.3,48.5,47.5,48.5c18.2,0,33.9-10.4,41.9-25.7
		L130.3,204.9z"/>
</g>
<path class="st1" d="M169.4,98.5l-9.5-6.5l-29.2,52.5c0.5,0.3,1.1,0.5,1.6,0.8L169.4,98.5z"/>
<path class="st2" d="M132.6,145.4c1.4,0.7,2.7,1.5,4,2.4l55.8-69.4l19.1-24.1l-4.3-3.4l-37.8,47.6l4,2.7L132.6,145.4z"/>
<path class="st2" d="M132.6,145.4l40.8-44.1l-4-2.7l-37.1,46.7C132.4,145.3,132.5,145.4,132.6,145.4z"/>
<path class="st3" d="M197.2,72.4l-4.8,6l-55.3,69.7c1.4,0.9,2.7,1.9,3.9,3l37.6-43.4l0,0l24.5-30.6L197.2,72.4z"/>
<path class="st3" d="M137.1,148.1l55.3-69.7l-55.8,69.4C136.7,147.9,136.9,148,137.1,148.1z"/>
<path class="st3" d="M49.6,46.4l5.1-2.1L40.3,9.5L21.2,20.7l66.3,125.4c1.9-1.1,3.8-2,5.8-2.8L49.6,46.4z"/>
<path class="st2" d="M97.6,141.8l-41-98.3l-1.8,0.8l40.6,98.3C96.1,142.3,96.8,142.1,97.6,141.8z"/>
<path class="st2" d="M93.3,143.3c0.7-0.3,1.3-0.5,2-0.8L54.7,44.3l-5.1,2.1L93.3,143.3z"/>
<path class="st4" d="M100.5,141.1c1.2-0.3,2.5-0.5,3.7-0.7L57,1.4L38.6,0.5l18,43l1.8-0.8L100.5,141.1z"/>
<path class="st4" d="M100.5,141.1L58.4,42.8l-1.8,0.8l41,98.3C98.5,141.6,99.5,141.3,100.5,141.1z"/>
<path class="st5" d="M87,230.9l-47.5,80.6l6.3,3.2l43.2-82.9c-0.6-0.3-1.3-0.7-1.9-1.1L87,230.9z"/>
<path class="st1" d="M60,303.1l4.3,1.8L92,233.1c-0.6-0.3-1.2-0.6-1.8-0.8L60,303.1z"/>
<path class="st3" d="M80.9,226.2l-33.7,43.4l6.1,4.7L87,230.9l0.1-0.2C85,229.3,82.9,227.9,80.9,226.2z"/>
<path class="st3" d="M87.2,230.6l-0.1,0.2L87.2,230.6C87.2,230.6,87.2,230.6,87.2,230.6z"/>
<path class="st4" d="M154.5,262.7l3.8-2.7L136,229.5c-0.9,0.6-1.9,1.2-2.8,1.7L154.5,262.7z"/>
<g>
	<path class="st6" d="M144.1,167.1l2.3-0.9c-1.8-3-3.9-5.8-6.3-8.3l-1.7,1.9C140.6,162,142.5,164.4,144.1,167.1z"/>
	<path class="st6" d="M133.4,221.3l1.6,1.5c4.7-3.5,8.7-8,11.7-13.2l-2.1-0.6C141.7,213.9,137.9,218.1,133.4,221.3z"/>
	<path class="st6" d="M110.7,228.7c-21.8,0-39.4-18-39.4-40.3s17.6-40.3,39.4-40.3c9.5,0,18.3,3.5,25.1,9.2l1.7-2
		c-7.3-6.3-16.7-10.1-27-10.1c-23.2,0-41.9,19.2-41.9,42.8S87.3,231,110.4,231c3.6,0,7.2-0.5,10.5-1.4l-1-2.1
		C117,228.3,113.9,228.7,110.7,228.7z"/>
	<path class="st6" d="M123.5,226.5l1,2c3.3-1.2,6.3-2.8,9.2-4.7l-1.6-1.6C129.3,224,126.5,225.5,123.5,226.5z"/>
	<path class="st6" d="M145.6,169.8l2.4-0.7c-0.3-0.6-0.6-1.2-0.9-1.7l-2.3,0.9C145.1,168.8,145.4,169.3,145.6,169.8z"/>
	<path class="st7" d="M138.8,170.5c0.2,0.3,0.5,0.7,0.7,1l6.1-1.7c-0.3-0.5-0.5-1-0.8-1.5L138.8,170.5z"/>
	<path class="st7" d="M127.7,215.8l5.7,5.6c4.5-3.2,8.3-7.4,11.1-12.2l-6.4-1.9C135.3,210.8,131.8,213.8,127.7,215.8z"/>
	<path class="st7" d="M114.8,218.8c-16.4,0-29.7-13.6-29.7-30.3s13.3-30.3,29.7-30.3c6,0,11.5,1.8,16.1,4.9l4.8-5.6
		c-6.8-5.8-15.5-9.2-25.1-9.2c-21.8,0-39.4,18-39.4,40.3s17.6,40.3,39.4,40.3c3.2,0,6.3-0.4,9.3-1.1l-4.3-8.8
		C115.4,218.8,115.1,218.8,114.8,218.8z"/>
	<path class="st7" d="M137.9,169.4l6.2-2.3c-1.6-2.6-3.5-5.1-5.7-7.3l-4.6,5.3C135.3,166.4,136.7,167.8,137.9,169.4z"/>
	<path class="st7" d="M119.5,218.4l4,8.1c3-1.1,5.9-2.5,8.5-4.2l-5.9-5.8C124,217.4,121.8,218,119.5,218.4z"/>
	<path class="st8" d="M133.8,165.1l-1,1.2c1.3,1.1,2.5,2.3,3.6,3.7l1.5-0.6C136.7,167.8,135.3,166.4,133.8,165.1z"/>
	<path class="st8" d="M126.5,214.6l1.2,1.2c4.1-2,7.7-5,10.4-8.6l-1.6-0.5C133.8,210.1,130.4,212.8,126.5,214.6z"/>
	<path class="st8" d="M114.8,158.1c-16.4,0-29.7,13.6-29.7,30.3s13.3,30.3,29.7,30.3c0.3,0,0.6,0,0.9,0l-0.8-1.5c0,0-0.1,0-0.1,0
		c-15.6,0-28.2-12.9-28.2-28.8s12.6-28.8,28.2-28.8c5.6,0,10.7,1.7,15.1,4.5l1-1.2C126.3,159.9,120.8,158.1,114.8,158.1z"/>
	<path class="st8" d="M126.1,216.5l-1.2-1.2c-1.9,0.8-4,1.3-6.1,1.6l0.7,1.5C121.8,218,124,217.4,126.1,216.5z"/>
	<path class="st8" d="M137.3,171.1c0.2,0.3,0.4,0.6,0.6,0.9l1.6-0.4c-0.2-0.3-0.5-0.7-0.7-1L137.3,171.1z"/>
	<path class="st4" d="M136.5,206.8l-6.2-1.8c-2.4,2.3-5.2,4.1-8.4,5.2l4.6,4.5C130.4,212.8,133.8,210.1,136.5,206.8z"/>
	<path class="st4" d="M132.8,166.3l-3.8,4.4c0.5,0.5,1.1,0.9,1.6,1.4l5.9-2.2C135.3,168.6,134.1,167.4,132.8,166.3z"/>
	<path class="st4" d="M124.8,215.3l-4.8-4.7c-1.3,0.3-2.6,0.5-4,0.6l2.8,5.7C120.9,216.6,122.9,216.1,124.8,215.3z"/>
	<path class="st4" d="M114.8,159.6c-15.6,0-28.2,12.9-28.2,28.8s12.6,28.8,28.2,28.8c0,0,0.1,0,0.1,0l-3-6.1
		c-11-1.4-19.5-11-19.5-22.7c0-12.6,10-22.9,22.4-22.9c4.1,0,7.9,1.1,11.2,3.1l3.9-4.5C125.6,161.3,120.4,159.6,114.8,159.6z"/>
	<path class="st4" d="M131.5,173.2c0.1,0.2,0.3,0.3,0.4,0.5l6-1.7c-0.2-0.3-0.4-0.6-0.6-0.9L131.5,173.2z"/>
</g>
<g>
	<g>
		<path class="st5" d="M41.5,213L41.5,213c-4.2,0-7.7-3.4-7.7-7.7V162c0-4.2,3.4-7.7,7.7-7.7h0c4.2,0,7.7,3.4,7.7,7.7v43.4
			C49.2,209.6,45.8,213,41.5,213z"/>
	</g>
	<g>
		<path class="st4" d="M41.5,202.8c-10,0-18.1-8.1-18.1-18.1c0-10,8.1-18.1,18.1-18.1s18.1,8.1,18.1,18.1
			C59.7,194.7,51.5,202.8,41.5,202.8z M41.5,167.3c-9.6,0-17.3,7.8-17.3,17.3c0,9.6,7.8,17.3,17.3,17.3s17.3-7.8,17.3-17.3
			C58.8,175.1,51.1,167.3,41.5,167.3z"/>
	</g>
	<g>
		<path class="st4" d="M41.5,182.5c-10,0-18.1-8.1-18.1-18.1c0-10,8.1-18.1,18.1-18.1s18.1,8.1,18.1,18.1
			C59.7,174.3,51.5,182.5,41.5,182.5z M41.5,147c-9.6,0-17.3,7.8-17.3,17.3c0,9.6,7.8,17.3,17.3,17.3s17.3-7.8,17.3-17.3
			C58.8,154.8,51.1,147,41.5,147z"/>
	</g>
	<g>
		<path class="st4" d="M41.5,222.5c-10,0-18.1-8.1-18.1-18.1c0-10,8.1-18.1,18.1-18.1s18.1,8.1,18.1,18.1
			C59.7,214.3,51.5,222.5,41.5,222.5z M41.5,187c-9.6,0-17.3,7.8-17.3,17.3c0,9.6,7.8,17.3,17.3,17.3s17.3-7.8,17.3-17.3
			C58.8,194.8,51.1,187,41.5,187z"/>
	</g>
	<g>
		<path class="st4" d="M41.5,229.5c-10,0-18.1-8.1-18.1-18.1c0-10,8.1-18.1,18.1-18.1s18.1,8.1,18.1,18.1
			C59.7,221.4,51.5,229.5,41.5,229.5z M41.5,194.1c-9.6,0-17.3,7.8-17.3,17.3c0,9.6,7.8,17.3,17.3,17.3s17.3-7.8,17.3-17.3
			C58.8,201.8,51.1,194.1,41.5,194.1z"/>
	</g>
	<g>
		<path class="st4" d="M41.5,217.6c-10,0-18.1-8.1-18.1-18.1c0-10,8.1-18.1,18.1-18.1s18.1,8.1,18.1,18.1
			C59.7,209.5,51.5,217.6,41.5,217.6z M41.5,182.2c-9.6,0-17.3,7.8-17.3,17.3s7.8,17.3,17.3,17.3s17.3-7.8,17.3-17.3
			S51.1,182.2,41.5,182.2z"/>
	</g>
	<g>
		<path class="st5" d="M52.6,120.7l12.4-2l-11.9-4.1l9.8-7.9l-12.4,2.4l4.5-11.7l-9.5,8.2l-2-12.4L39.5,105l-7.9-9.8l2.4,12.4
			l-11.7-4.5l8.2,9.5l-12.4,2l11.9,4.1l-9.8,7.9l12.4-2.4L28,136l9.5-8.2l2,12.4l4.1-11.9l7.9,9.8l-2.4-12.4l11.7,4.5L52.6,120.7z
			 M45.8,121.7l1.3,6.9l-4.4-5.5l-2.3,6.7l-1.1-7l-5.3,4.6l2.5-6.6l-6.9,1.3l5.5-4.4l-6.7-2.3l7-1.1l-4.6-5.3l6.6,2.5l-1.3-6.9
			l4.4,5.5l2.3-6.7l1.1,7l5.3-4.6l-2.5,6.6l6.9-1.3l-5.5,4.4l6.7,2.3l-7,1.1l4.6,5.3L45.8,121.7z"/>
	</g>
</g>
<g>
	<g>
		<defs>
			<path id="SVGID_1_" d="M130.5,183.5c3.6,0,6.1,0.5,7.9,1.2v-2.9c-1.5-0.5-4-1-7.8-1c-4.9,0-7.3,1-8.5,2.2
				c-1.1,1.1-1.6,2.5-1.6,4.4c0,1.8,0.6,3.3,1.6,4.4c1.2,1.2,3.5,2.2,8.3,2.2c3.9,0,6.2-0.5,7.7-2c0.8-0.8,1.2-1.9,1.2-3.9v-1.6
				h-10.7v2.5h7.5c0,0.3,0,0.9-0.4,1.4c-0.8,0.8-2.7,1-5.3,1c-3.1,0-4.8-0.6-5.5-1.3c-0.6-0.6-0.9-1.4-0.9-2.5c0-1.1,0.3-2,0.9-2.6
				C125.6,184,127.2,183.5,130.5,183.5C130.5,183.5,127.2,183.5,130.5,183.5z"/>
		</defs>
		<use xlink:href="#SVGID_1_"  style="overflow:visible;fill-rule:evenodd;clip-rule:evenodd;fill:#202123;"/>
		<clipPath id="SVGID_00000124856032130565710740000011489650390212976790_">
			<use xlink:href="#SVGID_1_"  style="overflow:visible;"/>
		</clipPath>
		<g style="clip-path:url(#SVGID_00000124856032130565710740000011489650390212976790_);">
			<defs>
				<rect id="SVGID_00000020400314998884557370000002825173333557991308_" x="17.3" y="107.5" width="295.6" height="184"/>
			</defs>
			<use xlink:href="#SVGID_00000020400314998884557370000002825173333557991308_"  style="overflow:visible;fill:#202123;"/>
			<clipPath id="SVGID_00000112628233434012630070000018034180860198951597_">
				<use xlink:href="#SVGID_00000020400314998884557370000002825173333557991308_"  style="overflow:visible;"/>
			</clipPath>
			
				<rect x="119.4" y="179.7" style="clip-path:url(#SVGID_00000112628233434012630070000018034180860198951597_);fill:#202123;" width="20.9" height="15.2"/>
		</g>
	</g>
	<g>
		<defs>
			<polygon id="SVGID_00000144317810853919304400000015311642594944647552_" points="190.5,181.2 186.5,181.2 180.1,190.8 
				173.7,181.2 169.5,181.2 177.9,193.4 182.1,193.4 			"/>
		</defs>
		
			<use xlink:href="#SVGID_00000144317810853919304400000015311642594944647552_"  style="overflow:visible;fill-rule:evenodd;clip-rule:evenodd;fill:#202123;"/>
		<clipPath id="SVGID_00000069360570674847493360000006119463062413794999_">
			<use xlink:href="#SVGID_00000144317810853919304400000015311642594944647552_"  style="overflow:visible;"/>
		</clipPath>
		<g style="clip-path:url(#SVGID_00000069360570674847493360000006119463062413794999_);">
			<defs>
				<rect id="SVGID_00000096047618386459615180000013146416673169004975_" x="17.3" y="107.5" width="295.6" height="184"/>
			</defs>
			<use xlink:href="#SVGID_00000096047618386459615180000013146416673169004975_"  style="overflow:visible;fill:#202123;"/>
			<clipPath id="SVGID_00000089533200391678898640000004729613778525305516_">
				<use xlink:href="#SVGID_00000096047618386459615180000013146416673169004975_"  style="overflow:visible;"/>
			</clipPath>
			
				<rect x="168.5" y="180.2" style="clip-path:url(#SVGID_00000089533200391678898640000004729613778525305516_);fill:#202123;" width="23" height="14.2"/>
		</g>
	</g>
	<g>
		<g>
			<defs>
				<polygon id="SVGID_00000120537692345081092660000013764827138126792857_" points="168.5,172.8 165,172.8 142.3,201.7 
					145.8,201.7 				"/>
			</defs>
			<use xlink:href="#SVGID_00000120537692345081092660000013764827138126792857_"  style="overflow:visible;fill:#FF5720;"/>
			<clipPath id="SVGID_00000179623243893323572760000007296424888030256260_">
				<use xlink:href="#SVGID_00000120537692345081092660000013764827138126792857_"  style="overflow:visible;"/>
			</clipPath>
			<g style="clip-path:url(#SVGID_00000179623243893323572760000007296424888030256260_);">
				<defs>
					<rect id="SVGID_00000124151284106785727960000016003901446004874169_" x="17.3" y="107.5" width="295.6" height="184"/>
				</defs>
				<use xlink:href="#SVGID_00000124151284106785727960000016003901446004874169_"  style="overflow:visible;fill:#FF5720;"/>
				<clipPath id="SVGID_00000049940017258974805860000004387880564121439366_">
					<use xlink:href="#SVGID_00000124151284106785727960000016003901446004874169_"  style="overflow:visible;"/>
				</clipPath>
				
					<rect x="141.3" y="171.8" style="clip-path:url(#SVGID_00000049940017258974805860000004387880564121439366_);fill:#FF5720;" width="28.2" height="31"/>
			</g>
		</g>
		<g>
			<defs>
				<path id="SVGID_00000143610838217104956420000010744167060872509868_" d="M155.2,191.1c-3.1,0-4.7-0.6-5.4-1.3
					c-0.5-0.5-0.9-1.2-0.9-2.5c0-1.3,0.3-2,0.9-2.6c0.7-0.7,2.3-1.3,5.4-1.3c3.1,0,4.6,0.6,5.3,1.3c0.6,0.6,0.9,1.2,0.9,2.6
					c0,1.3-0.3,2-0.9,2.6C159.8,190.5,158.3,191.1,155.2,191.1z M163.3,183c-1.1-1.2-3.3-2.2-8.2-2.2c-4.6,0-7,1-8.2,2.2
					c-1.1,1.1-1.6,2.4-1.6,4.4s0.6,3.3,1.6,4.3c1.1,1.2,3.4,2.2,8.2,2.2c4.7,0,7-1,8.2-2.2c1.1-1.1,1.6-2.4,1.6-4.4
					S164.4,184,163.3,183z"/>
			</defs>
			
				<use xlink:href="#SVGID_00000143610838217104956420000010744167060872509868_"  style="overflow:visible;fill-rule:evenodd;clip-rule:evenodd;fill:#202123;"/>
			<clipPath id="SVGID_00000008866422658150960620000016413371415104013231_">
				<use xlink:href="#SVGID_00000143610838217104956420000010744167060872509868_"  style="overflow:visible;"/>
			</clipPath>
			<g style="clip-path:url(#SVGID_00000008866422658150960620000016413371415104013231_);">
				<defs>
					<rect id="SVGID_00000057111919081292617950000001174232098597777557_" x="17.3" y="107.5" width="295.6" height="184"/>
				</defs>
				<use xlink:href="#SVGID_00000057111919081292617950000001174232098597777557_"  style="overflow:visible;fill:#202123;"/>
				<clipPath id="SVGID_00000049187466742658476150000005087984342015207332_">
					<use xlink:href="#SVGID_00000057111919081292617950000001174232098597777557_"  style="overflow:visible;"/>
				</clipPath>
				
					<rect x="144.4" y="179.7" style="clip-path:url(#SVGID_00000049187466742658476150000005087984342015207332_);fill:#202123;" width="21.6" height="15.2"/>
			</g>
		</g>
	</g>
</g>
</svg>
