<?xml version="1.0" encoding="utf-8"?>
<!-- Generator: Adobe Illustrator 26.3.1, SVG Export Plug-In . SVG Version: 6.00 Build 0)  -->
<svg version="1.0" id="Layer_1" xmlns="http://www.w3.org/2000/svg" xmlns:xlink="http://www.w3.org/1999/xlink" x="0px" y="0px"
	 viewBox="0 0 480 640" style="enable-background:new 0 0 480 640;" xml:space="preserve">
<style type="text/css">
	.st0{fill:#FAF000;}
	.st1{fill:#F6F6F6;}
	.st2{fill:#59FFF6;}
	.st3{fill:#7D55FF;}
	.st4{fill:#FF56C2;}
	.st5{fill:#FFF79B;}
	.st6{fill:#CCCCCC;}
	.st7{fill:#FF60FF;}
</style>
<polygon class="st0" points="83.8,37.7 91.6,66.1 122.7,29.6 98.3,69.1 123.6,64.8 102,75.5 145,91.3 101.2,82.8 108,93.9 
	96.3,88.3 99.8,134.4 89.1,89.8 80.6,99.7 82.3,86.8 35,108.4 78.7,80.4 52.8,76.7 79.4,73 51.2,42.9 84.4,67.6 "/>
<g>
	<polygon class="st1" points="375.3,414 378.8,420.3 385.1,423.8 378.8,427.2 375.3,433.5 371.9,427.2 365.6,423.8 371.9,420.3 	"/>
	<polygon class="st1" points="144.5,587.3 147.6,592.9 153.2,596 147.6,599 144.5,604.6 141.5,599 135.9,596 141.5,592.9 	"/>
	<g>
		<path class="st2" d="M312.8,475.6c-9.9,9.9-14.4,19.6-13.5,28.9c1.3,12.9,13,20.7,13.1,20.8c0.6,0.4,14,9.5,15.6,25.1
			c1.1,11-4,22.3-15.3,33.5c-7.7,7.7-12.3,15.5-13.7,23.3c8.9,5.1,18.9,8.7,29.5,10.3c-0.2-1-0.3-2-0.4-3.1
			c-0.8-11.4,4.4-22.7,15.3-33.7c10.2-10.2,15-20.3,14-30c-1.3-13.5-13.5-21.8-13.7-21.9c-0.5-0.4-13.5-9-15.1-24
			c-1.1-10.6,3.9-21.5,14.7-32.4c9-9,13.5-17.6,13.6-25.7c-5-0.9-10.1-1.4-15.3-1.4c-4.8,0-9.6,0.4-14.2,1.2
			C327.7,455.9,322.7,465.6,312.8,475.6z"/>
		<path class="st2" d="M383,455.9c-6.7-3.7-13.9-6.5-21.6-8.2c-0.4,9-5.3,18.3-14.9,27.9c-9.9,9.9-14.4,19.6-13.5,28.9
			c1.3,12.9,13,20.7,13.1,20.8c0.6,0.4,14,9.5,15.6,25.1c1.1,11-4,22.3-15.3,33.5c-10,10-14.8,20.2-14.1,30.3c0.1,1.4,0.3,2.7,0.6,4
			c2.9,0.3,5.8,0.4,8.7,0.4c4.9,0,9.8-0.4,14.5-1.2c-0.1-0.9-0.3-1.9-0.3-2.9c-0.8-11.4,4.4-22.7,15.3-33.7c10.2-10.2,15-20.3,14-30
			c-1.3-13.5-13.5-21.8-13.7-21.9c-0.5-0.4-13.5-9-15.1-24c-1.1-10.6,3.9-21.5,14.7-32.4C377,466.8,380.9,461.3,383,455.9z"/>
		<path class="st2" d="M386.8,458.1c-2.4,5.7-6.5,11.5-12.4,17.4c-9.9,9.9-14.4,19.6-13.5,28.9c1.3,12.9,13,20.7,13.1,20.8
			c0.6,0.4,14,9.5,15.6,25.1c1.1,11-4,22.3-15.3,33.5c-10,10-14.8,20.2-14.1,30.3c0.1,0.8,0.2,1.6,0.3,2.3
			c38.6-8.6,67.5-43.2,67.5-84.5C428.1,500.7,411.6,473.3,386.8,458.1z"/>
		<path class="st2" d="M309.7,580.8c10.2-10.2,15-20.3,14-30c-1.3-13.5-13.5-21.8-13.7-21.9c-0.5-0.4-13.5-9-15.1-24
			c-1.1-10.6,3.9-21.5,14.7-32.4c8.7-8.7,13.3-17.1,13.6-25c-38.7,8.5-67.7,43.1-67.7,84.5c0,30.5,15.8,57.4,39.6,72.8
			C297,596.6,301.8,588.6,309.7,580.8z"/>
	</g>
	<g>
		<path class="st3" d="M259.1,586.6c-9.8,0-18.1-1.8-20.3-7.5c-1.9-5,1.4-11.4,9.8-19.2l2.5,2.7c-7,6.5-10.2,11.9-8.9,15.2
			c0.8,2,5.6,8.1,35.5,3.6c21.5-3.3,48.9-11.1,76.9-22c28.1-10.9,53.5-23.7,71.5-35.8c25-16.9,24.5-24.6,23.7-26.6
			c-1.5-3.9-9.4-5.7-21.6-5.1l-0.2-3.6c14.5-0.8,22.9,1.7,25.1,7.4c3.6,9.2-11.6,21.9-25.1,31c-18.3,12.3-44,25.2-72.3,36.2
			c-28.3,11-55.9,18.9-77.7,22.2C272,585.9,265.2,586.6,259.1,586.6z"/>
	</g>
	<g>
		<path class="st4" d="M253.2,595.4c-13.7,0-26.4-2.6-29.9-11.5c-3.4-8.7,3.7-20.4,20.4-34l3.7,4.5c-20.1,16.3-19.8,24.5-18.7,27.3
			c2.7,6.8,17.9,9.4,40.7,6.7c24.7-2.9,55.8-11.3,87.6-23.7c31.8-12.4,60.4-27.3,80.5-41.9c18.6-13.5,28.1-25.7,25.5-32.5
			c-2.4-6.1-15.4-8.9-34.8-7.3l-0.5-5.8c23.1-1.9,37.1,1.9,40.7,11c4.9,12.5-12.2,28.3-27.5,39.3c-20.5,14.9-49.6,30-81.8,42.6
			c-32.3,12.6-63.9,21.1-89.1,24C264.7,595,258.9,595.4,253.2,595.4z"/>
	</g>
</g>
<polygon class="st2" points="177.8,294.5 151.3,275.4 149.8,328.6 143.4,277.5 124.5,298.8 135.7,274.5 87.6,290.8 131.3,267.7 
	117.7,262.8 131.8,259.5 96.6,222.1 136.9,253.2 137.3,238.7 144.8,251.1 170.7,199.4 152.5,254 177.4,239.2 156.9,260.9 
	202.4,267.3 156.5,269.1 "/>
<polygon class="st5" points="236,122.6 235.5,132.4 240.4,141 230.6,140.5 222,145.4 222.5,135.6 217.6,127 227.4,127.5 "/>
<g>
	<path class="st6" d="M353,95l-4.6-8.4L340,82l8.4-4.6L353,69l4.6,8.4L366,82l-8.4,4.6L353,95z M346.2,82l4.4,2.4l2.4,4.4l2.4-4.4
		l4.4-2.4l-4.4-2.4l-2.4-4.4l-2.4,4.4L346.2,82z"/>
</g>
<polygon class="st7" points="233.7,229.5 221.3,224.9 218.3,236.5 215.9,224.9 201.9,227.2 213.2,220.3 205,211.1 215.8,215.7 
	220.1,199.5 221.2,215.6 234.1,212.3 223.9,220.2 "/>
<polygon class="st7" points="114.7,473.5 102.3,468.9 99.3,480.5 96.9,468.9 82.9,471.2 94.2,464.3 86,455.1 96.8,459.7 
	101.1,443.5 102.2,459.6 115.1,456.3 104.9,464.2 "/>
<polygon class="st7" points="414.7,321.5 402.3,316.9 399.3,328.5 396.9,316.9 382.9,319.2 394.2,312.3 386,303.1 396.8,307.7 
	401.1,291.5 402.2,307.6 415.1,304.3 404.9,312.2 "/>
<g>
	<path class="st6" d="M240,333l-4.6-8.4L227,320l8.4-4.6l4.6-8.4l4.6,8.4l8.4,4.6l-8.4,4.6L240,333z M233.2,320l4.4,2.4l2.4,4.4
		l2.4-4.4l4.4-2.4l-4.4-2.4l-2.4-4.4l-2.4,4.4L233.2,320z"/>
</g>
<g>
	<path class="st6" d="M422.5,223l-6.2-11.3l-11.3-6.2l11.3-6.2l6.2-11.3l6.2,11.3l11.3,6.2l-11.3,6.2L422.5,223z M413.4,205.5
		l5.9,3.2l3.2,5.9l3.2-5.9l5.9-3.2l-5.9-3.2l-3.2-5.9l-3.2,5.9L413.4,205.5z"/>
</g>
</svg>
