<?xml version="1.0" encoding="utf-8"?>
<!-- Generator: Adobe Illustrator 26.3.1, SVG Export Plug-In . SVG Version: 6.00 Build 0)  -->
<svg version="1.0" xmlns="http://www.w3.org/2000/svg" xmlns:xlink="http://www.w3.org/1999/xlink" x="0px" y="0px"
	 viewBox="0 0 1920 1080" style="enable-background:new 0 0 1920 1080;" xml:space="preserve">
<style type="text/css">
	.st0{fill:#202123;}
	.st1{fill:#FFF79B;}
	.st2{fill:#F6F6F6;}
	.st3{fill:#FF56C2;}
	.st4{fill:#59FFF6;}
	.st5{fill:#FAF000;}
	.st6{fill:#FF5720;}
	.st7{fill:#7D55FF;}
	.st8{fill:#FDFF00;}
	.st9{fill:none;}
	.st10{fill:#F4F4F4;}
	.st11{fill:#FFF691;}
	.st12{fill:#EFA9DD;}
	.st13{clip-path:url(#SVGID_00000007418404193483884810000013291237884743399809_);}
	.st14{clip-path:url(#SVGID_00000108989054208426157330000015779737467138787204_);fill:#F6F6F6;}
	.st15{clip-path:url(#SVGID_00000079458054851335072160000013846228683004218525_);}
	.st16{clip-path:url(#SVGID_00000042738326597867247500000000732839670256193699_);fill:#F6F6F6;}
	.st17{clip-path:url(#SVGID_00000183969747048703447950000003892528994817989288_);}
	.st18{clip-path:url(#SVGID_00000127004733023371403500000012517363855925948584_);fill:#FF5720;}
	.st19{clip-path:url(#SVGID_00000183952801333745186390000015566697531595352206_);}
	.st20{clip-path:url(#SVGID_00000118396925732932813460000007416563529238032007_);fill:#F6F6F6;}
	.st21{fill:none;stroke:#FFFFFF;stroke-width:2;stroke-miterlimit:10;}
	.st22{fill:none;stroke:#FFFFFF;stroke-width:3;stroke-miterlimit:10;}
	.st23{fill:#FFFFFF;}
	.st24{fill:none;stroke:#F6F6F6;stroke-width:3;stroke-miterlimit:10;}
	.st25{fill:#FF60FF;}
	.st26{fill:#00F2F0;}
	.st27{fill:#E5B7FF;}
	.st28{fill:#F8F8B8;}
	.st29{fill:#E6CEF9;}
</style>
<g id="bk-color">
	<rect x="-15" y="-8" class="st0" width="1958" height="1087.6"/>
</g>
<g id="_x31_0th-main">
	<g>
		<g>
			<path class="st0" d="M540.6,598.7c-14.7,14.4-34.6,23.2-56.5,23.2c-45.1,0-81.6-37.2-81.6-83.1s36.5-83.1,81.6-83.1
				c25.1,0,47.6,11.6,62.5,29.7l79.3-21.5c-27.6-60-87.2-101.5-156.4-101.5c-61.9,0-116.1,33.2-146.6,83.2l-2-2l1,3.6
				c-2.1,3.6-4.1,7.2-6,11l-7.4-2.1l5.7,5.5c-1.6,3.3-3,6.6-4.4,9.9l-5.9,1.5l4.8,1.2c-7.8,20.1-12,41.9-12,64.8
				c0,97.5,77.3,176.5,172.7,176.5c66.1,0,123.5-37.9,152.5-93.6L540.6,598.7z"/>
		</g>
		<path class="st1" d="M682.9,211.8l-34.5-23.7L542.2,378.9c2,0.9,3.9,1.9,5.8,2.9L682.9,211.8z"/>
		<path class="st2" d="M549.1,382.3c5,2.7,9.9,5.6,14.6,8.7l202.8-252.4L835.9,51l-15.7-12.4L682.9,211.8l14.5,10L549.1,382.3z"/>
		<path class="st2" d="M549.1,382.3l148.3-160.6l-14.5-10L548,381.8C548.4,382,548.7,382.2,549.1,382.3z"/>
		<path class="st3" d="M784.1,116.7l-17.6,21.9L565.3,392.2c5,3.4,9.7,7,14.3,10.9l136.8-157.8l0.1,0.1l89.3-111.1L784.1,116.7z"/>
		<path class="st3" d="M565.3,392.2l201.1-253.6L563.6,391C564.2,391.4,564.8,391.8,565.3,392.2z"/>
		<path class="st3" d="M247.3,22.1l18.5-7.6l-52.4-126.7l-69.5,40.9L385.2,385c6.8-3.9,13.8-7.3,21.1-10.2L247.3,22.1z"/>
		<path class="st2" d="M421.7,369.4L272.4,11.7l-6.7,2.7L413.6,372C416.3,371,419,370.2,421.7,369.4z"/>
		<path class="st2" d="M406.3,374.7c2.4-1,4.9-1.9,7.3-2.8L265.8,14.5l-18.5,7.6L406.3,374.7z"/>
		<path class="st4" d="M432.2,366.7c4.5-1,9-1.8,13.6-2.5L273.9-141.4l-66.9-3.4l65.4,156.6l6.7-2.7L432.2,366.7z"/>
		<path class="st4" d="M432.2,366.7L279.1,9l-6.7,2.7l149.3,357.6C425.2,368.4,428.7,367.5,432.2,366.7z"/>
		<path class="st0" d="M548,381.8l-0.9,1.1l0.8,0.6l1.1-1.2C548.7,382.2,548.4,382,548,381.8z"/>
		<path class="st0" d="M561.2,394l1.6,1.3l2.5-3.1c-0.6-0.4-1.1-0.8-1.7-1.1L561.2,394z"/>
		<path class="st5" d="M383.4,693.2L210.7,986.4l23,11.5L391,696.3c-2.4-1.2-4.7-2.5-7-3.9L383.4,693.2z"/>
		<path class="st1" d="M285.2,956.1l15.7,6.5l100.5-261.3c-2.2-1-4.5-2-6.7-3.1L285.2,956.1z"/>
		<path class="st3" d="M361,676.3L238.2,834l22.1,17.2l123-158.1l0.5-0.8C375.8,687.6,368.2,682.3,361,676.3z"/>
		<path class="st3" d="M383.9,692.3l-0.5,0.8l0.6-0.8C383.9,692.4,383.9,692.3,383.9,692.3z"/>
		<path class="st4" d="M628.6,808.8l13.9-9.8l-80.8-110.7c-3.3,2.2-6.8,4.2-10.3,6.1L628.6,808.8z"/>
		<g>
			<path class="st6" d="M590.9,461.2l8.5-3.2c-6.5-11.1-14.2-21.2-23.1-30.3l-6.1,7C578.1,442.7,585,451.5,590.9,461.2z"/>
			<path class="st6" d="M552,658.5l5.8,5.6c17.2-12.7,31.7-29,42.5-47.8l-7.8-2.3C582.1,631.6,568.3,646.8,552,658.5z"/>
			<path class="st6" d="M469.5,685.2c-79.1,0-143.3-65.6-143.3-146.4s64.2-146.4,143.3-146.4c34.7,0,66.4,12.6,91.2,33.5l6.2-7.1
				C540.3,395.8,506,382,468.5,382C384.3,382,316,451.7,316,537.8s68.3,155.8,152.5,155.8c13.3,0,26.1-1.7,38.4-5l-3.6-7.5
				C492.4,683.8,481.1,685.2,469.5,685.2z"/>
			<path class="st6" d="M515.8,677.4l3.6,7.3c11.9-4.3,23-10,33.3-17l-5.8-5.7C537.3,668.3,526.9,673.5,515.8,677.4z"/>
			<path class="st6" d="M596.5,471.1l8.6-2.4c-1-2.1-2.1-4.2-3.2-6.3l-8.4,3.1C594.6,467.4,595.6,469.2,596.5,471.1z"/>
			<path class="st7" d="M571.6,473.7c0.9,1.2,1.7,2.5,2.6,3.7l22.3-6.4c-1-1.9-2-3.7-3-5.6L571.6,473.7z"/>
			<path class="st7" d="M531.2,638.3l20.8,20.2c16.3-11.8,30.2-26.9,40.5-44.5l-23.2-6.8C559,620.3,546.1,631,531.2,638.3z"/>
			<path class="st7" d="M484.4,649.2c-59.7,0-108-49.4-108-110.4c0-61,48.4-110.4,108-110.4c21.7,0,41.8,6.5,58.7,17.7l17.6-20.3
				c-24.8-20.9-56.6-33.5-91.2-33.5c-79.1,0-143.3,65.6-143.3,146.4s64.2,146.4,143.3,146.4c11.6,0,22.9-1.4,33.7-4.1l-15.6-32
				C486.6,649.2,485.5,649.2,484.4,649.2z"/>
			<path class="st7" d="M568.5,469.6l22.4-8.4c-5.9-9.6-12.9-18.5-20.7-26.4L553.5,454C559,458.7,564,463.9,568.5,469.6z"/>
			<path class="st7" d="M501.4,647.8l14.4,29.6c11-3.9,21.5-9.1,31.1-15.4l-21.6-21C517.7,644.2,509.8,646.5,501.4,647.8z"/>
			<path class="st8" d="M553.5,454l-3.7,4.2c4.8,4,9.2,8.5,13.1,13.4l5.5-2.1C564,463.9,559,458.7,553.5,454z"/>
			<path class="st8" d="M526.9,634.1l4.3,4.2c14.9-7.3,27.9-18,38-31.1l-5.8-1.7C553.6,617.7,541.1,627.5,526.9,634.1z"/>
			<path class="st8" d="M484.4,428.4c-59.7,0-108,49.4-108,110.4c0,61,48.4,110.4,108,110.4c1.1,0,2.2,0,3.2,0l-2.7-5.6
				c-0.2,0-0.3,0-0.5,0c-56.6,0-102.5-46.9-102.5-104.7s45.9-104.7,102.5-104.7c20.2,0,39.1,6,55,16.4l3.7-4.3
				C526.2,434.9,506.1,428.4,484.4,428.4z"/>
			<path class="st8" d="M525.3,641l-4.4-4.3c-7,2.7-14.4,4.7-22,5.8l2.6,5.3C509.8,646.5,517.7,644.2,525.3,641z"/>
			<path class="st8" d="M566.2,475.8c0.8,1.1,1.6,2.2,2.4,3.3l5.6-1.6c-0.8-1.3-1.7-2.5-2.6-3.7L566.2,475.8z"/>
			<path class="st4" d="M563.4,605.5l-22.7-6.6c-8.6,8.4-19.1,14.9-30.7,18.9l16.8,16.4C541.1,627.5,553.6,617.7,563.4,605.5z"/>
			<path class="st4" d="M549.8,458.2l-14,16.1c2,1.7,3.9,3.4,5.7,5.3l21.4-8C559,466.8,554.6,462.3,549.8,458.2z"/>
			<path class="st4" d="M520.9,636.7l-17.5-17c-4.7,1.2-9.6,1.9-14.6,2.2l10,20.6C506.5,641.4,513.9,639.4,520.9,636.7z"/>
			<path class="st4" d="M484.4,434.1c-56.6,0-102.5,46.9-102.5,104.7s45.9,104.7,102.5,104.7c0.2,0,0.3,0,0.5,0l-10.8-22.2
				c-40.1-5.2-71.1-40.1-71.1-82.5c0-45.9,36.4-83.2,81.4-83.2c14.9,0,28.8,4.1,40.8,11.2l14.2-16.4
				C523.5,440.1,504.6,434.1,484.4,434.1z"/>
			<path class="st4" d="M545.3,483.6c0.5,0.6,1,1.1,1.4,1.7l21.9-6.2c-0.8-1.1-1.6-2.2-2.4-3.3L545.3,483.6z"/>
		</g>
	</g>
	<g>
		<g>
			<path class="st5" d="M223.8,628.3h-12c-12.1,0-21.9-9.8-21.9-21.9V436.6c0-12.1,9.8-21.9,21.9-21.9h12c12.1,0,21.9,9.8,21.9,21.9
				v169.8C245.7,618.5,235.9,628.3,223.8,628.3z"/>
		</g>
		<g>
			<path class="st4" d="M217.8,591.1c-36.4,0-66-29.6-66-66s29.6-66,66-66s66,29.6,66,66S254.2,591.1,217.8,591.1z M217.8,462.1
				c-34.7,0-63,28.3-63,63s28.3,63,63,63s63-28.3,63-63S252.5,462.1,217.8,462.1z"/>
		</g>
		<g>
			<path class="st4" d="M217.8,517.1c-36.4,0-66-29.6-66-66c0-36.4,29.6-66,66-66s66,29.6,66,66
				C283.8,487.5,254.2,517.1,217.8,517.1z M217.8,388.1c-34.7,0-63,28.3-63,63s28.3,63,63,63s63-28.3,63-63S252.5,388.1,217.8,388.1
				z"/>
		</g>
		<g>
			<path class="st4" d="M217.8,662.6c-36.4,0-66-29.6-66-66s29.6-66,66-66s66,29.6,66,66S254.2,662.6,217.8,662.6z M217.8,533.6
				c-34.7,0-63,28.3-63,63s28.3,63,63,63s63-28.3,63-63S252.5,533.6,217.8,533.6z"/>
		</g>
		<g>
			<path class="st4" d="M217.8,688.4c-36.4,0-66-29.6-66-66c0-36.4,29.6-66,66-66s66,29.6,66,66
				C283.8,658.8,254.2,688.4,217.8,688.4z M217.8,559.4c-34.7,0-63,28.3-63,63s28.3,63,63,63s63-28.3,63-63S252.5,559.4,217.8,559.4
				z"/>
		</g>
		<g>
			<path class="st4" d="M217.8,645c-36.4,0-66-29.6-66-66s29.6-66,66-66s66,29.6,66,66S254.2,645,217.8,645z M217.8,516
				c-34.7,0-63,28.3-63,63s28.3,63,63,63s63-28.3,63-63S252.5,516,217.8,516z"/>
		</g>
		<g>
			<path class="st5" d="M258.1,292.4l45.2-7.2l-43.3-15l35.6-28.8l-44.9,8.7l16.4-42.7l-34.6,30l-7.2-45.2l-15,43.3l-28.8-35.6
				l8.7,44.9l-42.7-16.4l30,34.6l-45.2,7.2l43.3,15L139.9,314l44.9-8.7L168.5,348l34.6-30l7.2,45.2l15-43.3l28.8,35.6l-8.7-44.9
				l42.7,16.4L258.1,292.4z M233.2,296.1l4.9,25.2L222,301.4l-8.4,24.2l-4-25.3l-19.4,16.8l9.2-23.9l-25.2,4.9l19.9-16.1l-24.2-8.4
				l25.3-4l-16.8-19.4l23.9,9.2l-4.9-25.2l16.1,19.9l8.4-24.2l4,25.3l19.4-16.8l-9.2,23.9l25.2-4.9l-19.9,16.1l24.2,8.4l-25.3,4
				l16.8,19.4L233.2,296.1z"/>
		</g>
	</g>
	<g>
		<polygon class="st9" points="355.3,447.9 359.1,463.1 370,451.9 365.7,466.9 380.7,462.6 369.5,473.4 384.6,477.2 369.5,481 
			380.7,491.9 365.7,487.6 370,502.6 359.1,491.4 355.3,506.5 351.5,491.4 340.7,502.6 344.9,487.6 329.9,491.9 341.2,481 
			326,477.2 341.2,473.4 329.9,462.6 344.9,466.9 340.7,451.9 351.5,463.1 		"/>
	</g>
	<g>
		<polygon class="st10" points="358.3,460.5 362.1,468.2 370.6,469.5 364.4,475.5 365.9,484 358.3,480 350.7,484 352.1,475.5 
			345.9,469.5 354.5,468.2 		"/>
	</g>
	<g>
		<polygon class="st10" points="497.7,579.5 500.2,584.6 505.8,585.4 501.8,589.3 502.7,594.9 497.7,592.3 492.7,594.9 493.7,589.3 
			489.7,585.4 495.2,584.6 		"/>
	</g>
	<g>
		<polygon class="st10" points="403,633.4 405.1,637.5 409.6,638.2 406.3,641.3 407.1,645.8 403,643.7 399,645.8 399.8,641.3 
			396.5,638.2 401,637.5 		"/>
	</g>
	<g>
		<polygon class="st10" points="475.6,400.2 477.6,404.2 482.1,404.9 478.8,408.1 479.6,412.6 475.6,410.5 471.5,412.6 472.3,408.1 
			469,404.9 473.6,404.2 		"/>
	</g>
	<g>
		<circle class="st0" cx="402.9" cy="487.8" r="5.2"/>
	</g>
	<g>
		<circle class="st0" cx="571.8" cy="630.4" r="9"/>
	</g>
	<g>
		<circle class="st0" cx="375" cy="623.9" r="7.2"/>
	</g>
	<g>
		
			<rect x="608.2" y="240.8" transform="matrix(0.9348 -0.3552 0.3552 0.9348 -11.4328 428.3515)" class="st11" width="1105.3" height="9"/>
	</g>
	<g>
		
			<rect x="1746.6" y="8.8" transform="matrix(0.9348 -0.3552 0.3552 0.9348 111.628 634.7334)" class="st11" width="75.9" height="9"/>
	</g>
	<g>
		
			<rect x="1095.3" y="303.1" transform="matrix(0.3292 -0.9443 0.9443 0.3292 -9.1819 1569.1943)" class="st11" width="9" height="975.9"/>
	</g>
	<g>
		
			<rect x="1781.8" y="986.2" transform="matrix(0.3292 -0.9443 0.9443 0.3292 233.4248 2372.2729)" class="st11" width="9" height="71.3"/>
	</g>
	<g>
		<circle class="st2" cx="463.8" cy="266.1" r="5.1"/>
	</g>
	<g>
		<circle class="st2" cx="206.5" cy="110" r="11.2"/>
	</g>
	<g>
		<circle class="st7" cx="370.6" cy="229.8" r="10.7"/>
	</g>
	<g>
		<path class="st2" d="M444.1,121.9l0.1-12.5l-10.3-7.1l11.9-3.8l3.6-12l7.3,10.2l12.5-0.3l-7.4,10.1l4.1,11.8l-11.9-3.9
			L444.1,121.9z M440.6,103.2l6.6,4.6l0,8l6.4-4.8l7.6,2.5l-2.6-7.6l4.7-6.4l-8,0.2l-4.7-6.5l-2.3,7.7L440.6,103.2z"/>
	</g>
	<g>
		<path class="st2" d="M737.5,733.8c-3.2,0-5.9-2.6-5.9-5.9s2.6-5.9,5.9-5.9s5.9,2.6,5.9,5.9S740.7,733.8,737.5,733.8z M737.5,725
			c-1.6,0-2.9,1.3-2.9,2.9s1.3,2.9,2.9,2.9s2.9-1.3,2.9-2.9S739.1,725,737.5,725z"/>
	</g>
	<g>
		<path class="st2" d="M689.9,343.7c-3.1,0-5.6-2.5-5.6-5.6s2.5-5.6,5.6-5.6s5.6,2.5,5.6,5.6S693,343.7,689.9,343.7z M689.9,335.4
			c-1.4,0-2.6,1.2-2.6,2.6s1.2,2.6,2.6,2.6s2.6-1.2,2.6-2.6S691.3,335.4,689.9,335.4z"/>
	</g>
	<g>
		<path class="st2" d="M660.6,721.2c-1.7,0-3-1.4-3-3s1.4-3,3-3c1.7,0,3,1.4,3,3S662.3,721.2,660.6,721.2z M660.6,718.1L660.6,718.1
			C660.6,718.1,660.6,718.1,660.6,718.1z"/>
	</g>
	<g>
		<path class="st2" d="M840.6,824.4c-2.4,0-4.3-1.9-4.3-4.3c0-2.4,1.9-4.3,4.3-4.3c2.4,0,4.3,1.9,4.3,4.3
			C844.9,822.5,843,824.4,840.6,824.4z M840.6,818.7c-0.7,0-1.3,0.6-1.3,1.3c0,0.7,0.6,1.3,1.3,1.3c0.7,0,1.3-0.6,1.3-1.3
			C841.9,819.3,841.3,818.7,840.6,818.7z"/>
	</g>
	<g>
		<path class="st2" d="M818.4,886.6c-4.3,0-7.7-3.5-7.7-7.7c0-4.3,3.5-7.7,7.7-7.7s7.7,3.5,7.7,7.7
			C826.1,883.2,822.7,886.6,818.4,886.6z M818.4,874.2c-2.6,0-4.7,2.1-4.7,4.7s2.1,4.7,4.7,4.7s4.7-2.1,4.7-4.7
			S821,874.2,818.4,874.2z"/>
	</g>
	<g>
		<polyline class="st1" points="122.4,416.4 -162.6,291.2 -158.5,273.5 		"/>
	</g>
	<g>
		<polyline class="st12" points="137.5,464.1 -173.5,479.1 -177.6,461.5 		"/>
	</g>
	<g>
		<polyline class="st2" points="147.4,557 -134.9,801.4 -141.9,787.2 		"/>
	</g>
	<g>
		<g>
			<defs>
				<path id="SVGID_1_" d="M541.3,520.8c13,0,22.2,1.9,28.8,4.5v-10.7c-5.6-1.8-14.4-3.6-28.5-3.6c-17.9,0-26.5,3.6-30.8,7.9
					c-3.9,4-6,9.2-6,16c0,6.7,2,12.1,6,16c4.3,4.4,12.7,7.9,30.2,7.9c14,0,22.6-1.9,28-7.3c2.9-2.9,4.5-7.1,4.5-14.2v-5.9h-39.1v8.9
					h27.4c0.1,1.1,0.1,3.4-1.5,4.9c-2.8,2.8-9.9,3.8-19.2,3.8c-11.4,0-17.4-2.1-20.2-4.9c-2-2.1-3.1-5.1-3.1-9.2
					c0-4.1,1.1-7.2,3.4-9.5C523.6,522.8,529.6,520.8,541.3,520.8C541.3,520.8,529.6,520.8,541.3,520.8z"/>
			</defs>
			<use xlink:href="#SVGID_1_"  style="overflow:visible;fill-rule:evenodd;clip-rule:evenodd;fill:#F6F6F6;"/>
			<clipPath id="SVGID_00000023259039678389922190000012940333628271246776_">
				<use xlink:href="#SVGID_1_"  style="overflow:visible;"/>
			</clipPath>
			<g style="clip-path:url(#SVGID_00000023259039678389922190000012940333628271246776_);">
				<defs>
					<rect id="SVGID_00000075856129760709838230000014917939332067336120_" x="129.6" y="244.4" width="1075.1" height="669.4"/>
				</defs>
				<use xlink:href="#SVGID_00000075856129760709838230000014917939332067336120_"  style="overflow:visible;fill:#F6F6F6;"/>
				<clipPath id="SVGID_00000002386234960446246210000013831419326212641198_">
					<use xlink:href="#SVGID_00000075856129760709838230000014917939332067336120_"  style="overflow:visible;"/>
				</clipPath>
				
					<rect x="501.1" y="507.2" style="clip-path:url(#SVGID_00000002386234960446246210000013831419326212641198_);fill:#F6F6F6;" width="76.1" height="55.1"/>
			</g>
		</g>
		<g>
			<defs>
				<polygon id="SVGID_00000049215938212574343330000008780569166638663831_" points="759.7,512.6 745.1,512.6 721.8,547.5 
					698.6,512.6 683.4,512.6 713.8,557 729.2,557 				"/>
			</defs>
			
				<use xlink:href="#SVGID_00000049215938212574343330000008780569166638663831_"  style="overflow:visible;fill-rule:evenodd;clip-rule:evenodd;fill:#F6F6F6;"/>
			<clipPath id="SVGID_00000052106238614897536160000013999599553235947701_">
				<use xlink:href="#SVGID_00000049215938212574343330000008780569166638663831_"  style="overflow:visible;"/>
			</clipPath>
			<g style="clip-path:url(#SVGID_00000052106238614897536160000013999599553235947701_);">
				<defs>
					<rect id="SVGID_00000106149150716241475230000012599361219539605424_" x="129.6" y="244.4" width="1075.1" height="669.4"/>
				</defs>
				<use xlink:href="#SVGID_00000106149150716241475230000012599361219539605424_"  style="overflow:visible;fill:#F6F6F6;"/>
				<clipPath id="SVGID_00000058578771299676206410000008910263010072492953_">
					<use xlink:href="#SVGID_00000106149150716241475230000012599361219539605424_"  style="overflow:visible;"/>
				</clipPath>
				
					<rect x="679.6" y="508.9" style="clip-path:url(#SVGID_00000058578771299676206410000008910263010072492953_);fill:#F6F6F6;" width="83.8" height="51.8"/>
			</g>
		</g>
		<g>
			<defs>
				<polygon id="SVGID_00000003101050354837993400000001627635832614936218_" points="679.5,481.9 666.9,481.9 584.5,587.2 
					597.3,587.2 				"/>
			</defs>
			<use xlink:href="#SVGID_00000003101050354837993400000001627635832614936218_"  style="overflow:visible;fill:#FF5720;"/>
			<clipPath id="SVGID_00000137848311359288873690000000737995131233414567_">
				<use xlink:href="#SVGID_00000003101050354837993400000001627635832614936218_"  style="overflow:visible;"/>
			</clipPath>
			<g style="clip-path:url(#SVGID_00000137848311359288873690000000737995131233414567_);">
				<defs>
					<rect id="SVGID_00000114787218630552681360000009934293211765012158_" x="129.6" y="244.4" width="1075.1" height="669.4"/>
				</defs>
				<use xlink:href="#SVGID_00000114787218630552681360000009934293211765012158_"  style="overflow:visible;fill:#FF5720;"/>
				<clipPath id="SVGID_00000165928100391135162970000018167495729684888244_">
					<use xlink:href="#SVGID_00000114787218630552681360000009934293211765012158_"  style="overflow:visible;"/>
				</clipPath>
				
					<rect x="580.8" y="478.2" style="clip-path:url(#SVGID_00000165928100391135162970000018167495729684888244_);fill:#FF5720;" width="102.5" height="112.8"/>
			</g>
		</g>
		<g>
			<defs>
				<path id="SVGID_00000110469408972623063770000007566245771207362464_" d="M631.2,548.5c-11.2,0-17-2.4-19.5-4.9
					c-1.9-1.9-3.3-4.5-3.3-9.2s1.2-7.4,3.2-9.4c2.6-2.6,8.3-4.6,19.6-4.6c11.2,0,16.9,2.1,19.4,4.8c2.1,2.1,3.3,4.5,3.3,9.3
					c0,4.8-1.2,7.4-3.2,9.4C648.1,546.4,642.4,548.5,631.2,548.5z M660.9,519c-4.1-4.2-12.1-8-29.7-8c-16.9,0-25.5,3.7-29.7,8
					c-3.8,3.9-5.9,8.7-5.9,15.9c0,7.2,2.1,11.9,5.9,15.8c4.1,4.2,12.5,8,29.7,8c17.2,0,25.5-3.8,29.7-8c3.8-3.9,5.9-8.7,5.9-15.9
					S664.7,522.8,660.9,519z"/>
			</defs>
			
				<use xlink:href="#SVGID_00000110469408972623063770000007566245771207362464_"  style="overflow:visible;fill-rule:evenodd;clip-rule:evenodd;fill:#F6F6F6;"/>
			<clipPath id="SVGID_00000052808667451108136020000017225232993630161343_">
				<use xlink:href="#SVGID_00000110469408972623063770000007566245771207362464_"  style="overflow:visible;"/>
			</clipPath>
			<g style="clip-path:url(#SVGID_00000052808667451108136020000017225232993630161343_);">
				<defs>
					<rect id="SVGID_00000062901112483616905680000004044630121717361340_" x="129.6" y="244.4" width="1075.1" height="669.4"/>
				</defs>
				<use xlink:href="#SVGID_00000062901112483616905680000004044630121717361340_"  style="overflow:visible;fill:#F6F6F6;"/>
				<clipPath id="SVGID_00000137099853942331742520000017648772138696370876_">
					<use xlink:href="#SVGID_00000062901112483616905680000004044630121717361340_"  style="overflow:visible;"/>
				</clipPath>
				
					<rect x="591.9" y="507.2" style="clip-path:url(#SVGID_00000137099853942331742520000017648772138696370876_);fill:#F6F6F6;" width="78.7" height="55.2"/>
			</g>
		</g>
	</g>
	<polygon class="st10" points="446,499.3 453.3,499 459.4,494.8 459.6,502.2 463.8,508.2 456.5,508.5 450.4,512.6 450.2,505.3 	"/>
	<g>
		<polygon class="st2" points="753.3,446.4 752.3,456.1 756.7,464.8 747,463.8 738.3,468.2 739.3,458.5 734.9,449.8 744.6,450.8 		
			"/>
	</g>
	<g>
		<path class="st21" d="M451.8,723.5c0,0,44.1,25.5,0,69.6c-44.1,44.1,0,72.9,0,72.9s45.6,30.3,0,75.9s0,80.1,0,80.1"/>
		<path class="st22" d="M478,723.5c0,0,44.1,25.5,0,69.6c-44.1,44.1,0,72.9,0,72.9s45.6,30.3,0,75.9s0,80.1,0,80.1"/>
		<path class="st22" d="M516.2,723.5c0,0,44.1,25.5,0,69.6c-44.1,44.1,0,72.9,0,72.9s45.6,30.3,0,75.9s0,80.1,0,80.1"/>
	</g>
	<g>
		<path class="st5" d="M474.4,299.3c-0.8-0.1-20.6-2.5-30.3-18.7c-7.2-12-6.9-28,0.9-47.8c7.2-18.2,7.5-33.2,1.1-44.6
			c-9-15.9-28.5-19.4-28.7-19.5c-0.9-0.2-22.4-4.1-32.7-22.5c-7.3-13-7-29.8,0.9-49.8c7.2-18.4,7.6-34.1,1-46.7
			c-9.7-18.6-31.4-24-31.7-24.1l0.9-3.9c1,0.2,23.7,5.9,34.3,26.1c7.1,13.6,6.8,30.5-0.9,50c-7.4,18.8-7.8,34.4-1.1,46.4
			c9.4,16.7,29.7,20.5,29.9,20.5c0.9,0.1,21.5,3.8,31.5,21.4c7.1,12.5,6.8,28.7-0.8,48.1c-7.3,18.5-7.7,33.4-1.2,44.2
			c8.7,14.5,27.2,16.8,27.4,16.8L474.4,299.3z"/>
	</g>
	<g>
		<path class="st5" d="M432.5,316.7c-0.8-0.1-20.6-2.5-30.3-18.7c-7.2-12-6.9-28,0.9-47.8c7.2-18.2,7.5-33.2,1.1-44.6
			c-9-15.9-28.5-19.4-28.7-19.5c-0.9-0.2-22.4-4.1-32.7-22.5c-7.3-13-7-29.8,0.9-49.8c7.2-18.4,7.6-34.1,1-46.7
			c-9.7-18.6-31.4-24-31.7-24.1l0.9-3.9c1,0.2,23.7,5.9,34.3,26.1c7.1,13.6,6.8,30.5-0.9,50c-7.4,18.8-7.8,34.4-1.1,46.3
			c9.4,16.7,29.7,20.5,29.9,20.6c0.9,0.1,21.5,3.8,31.5,21.4c7.1,12.5,6.8,28.7-0.8,48.1c-7.3,18.5-7.7,33.4-1.2,44.3
			c8.7,14.5,27.1,16.8,27.3,16.8L432.5,316.7z"/>
	</g>
	<g>
		<g>
			<path class="st23" d="M878.8,854.4c-2.7,0-35.5-1-54.6-44.7c-19.4-44.1-55.2-45.5-55.5-45.6c-0.4,0-39.1-1.7-59.7-48.7
				c-20.1-45.8-60.8-50.1-61.2-50.1l0.2-2c0.4,0,42.2,4.4,62.8,51.3c20.1,45.8,57.5,47.5,57.9,47.5c0.4,0,37.4,1.4,57.3,46.7
				c19.4,44.2,52.6,43.5,52.9,43.5l0.1,2C878.9,854.4,878.9,854.4,878.8,854.4z"/>
		</g>
		<g>
			<path class="st23" d="M870.3,865.3c-2.8,0-35.8-1-55.1-45c-5.6-12.6-16.1-29.7-34.8-39.3c-11.2-5.7-20.2-6-20.3-6
				c-0.4,0-39.4-1.7-60.1-49c-20-45.5-60.4-49.8-60.8-49.8l0.3-3c0.4,0,42.5,4.4,63.2,51.6c20,45.5,57.1,47.2,57.4,47.2
				c0.4,0,37.7,1.4,57.7,47c10,22.9,23.8,33.4,33.5,38.2c10.5,5.2,18.8,5,18.9,5l0.1,3C870.5,865.3,870.4,865.3,870.3,865.3z"/>
		</g>
		<g>
			<path class="st23" d="M861.2,873.9c-2.8,0-35.8-1-55.1-45c-5.6-12.6-16.1-29.7-34.8-39.3c-11.2-5.7-20.2-6-20.3-6
				c-0.4,0-39.4-1.7-60.1-49c-20-45.5-60.4-49.8-60.8-49.8l0.3-3c0.4,0,42.5,4.4,63.2,51.6c20,45.5,57.1,47.2,57.4,47.2
				c0.4,0,37.7,1.4,57.7,47c10,22.9,23.8,33.4,33.5,38.2c10.5,5.2,18.8,5,18.9,5l0.1,3C861.4,873.9,861.3,873.9,861.2,873.9z"/>
		</g>
	</g>
	<polygon class="st2" points="1033.6,933.1 994.1,972.2 1082.9,989.8 995.3,986.1 1025.7,1023.8 988.2,998 1001.9,1083.5 
		975.4,1003.5 963.3,1025.1 961.8,1000.4 889,1048.9 952.6,990 928.4,985.2 951.3,976.1 871.9,918.1 958.5,964.1 940.7,918.1 
		971.3,958.6 994.9,884 984.9,961.7 	"/>
	<polygon class="st5" points="1361.3,4.7 1369.1,33.1 1400.2,-3.3 1375.8,36.1 1401.1,31.8 1379.5,42.5 1422.4,58.3 1378.7,49.8 
		1385.5,60.9 1373.8,55.3 1377.3,101.4 1366.5,56.8 1358.1,66.7 1359.8,53.8 1312.5,75.4 1356.1,47.4 1330.3,43.7 1356.9,40.1 
		1328.6,9.9 1361.9,34.6 	"/>
	<polygon class="st4" points="827.9,250.1 801.4,231 799.8,284.2 793.4,233.1 774.6,254.4 785.8,230.2 737.7,246.5 781.4,223.3 
		767.7,218.4 781.8,215.1 746.7,177.7 787,208.8 787.4,194.3 794.9,206.7 820.7,155 802.6,209.7 827.5,194.8 807,216.5 852.5,222.9 
		806.5,224.7 	"/>
	<polygon class="st2" points="1140.9,322.5 1147.5,308.9 1159.6,301.4 1147.5,294 1140.9,280.3 1134.3,294 1122.3,301.4 
		1134.3,308.9 	"/>
	<g>
		<path class="st2" d="M1647.7,131.3l-4.6-8.4l-8.4-4.6l8.4-4.6l4.6-8.4l4.6,8.4l8.4,4.6l-8.4,4.6L1647.7,131.3z M1640.9,118.3
			l4.4,2.4l2.4,4.4l2.4-4.4l4.4-2.4l-4.4-2.4l-2.4-4.4l-2.4,4.4L1640.9,118.3z"/>
	</g>
	<polygon class="st1" points="731.1,793.2 730.6,803.1 735.5,811.7 725.6,811.2 717.1,816.1 717.6,806.2 712.6,797.6 722.5,798.1 	
		"/>
	<polygon class="st2" points="1064.3,187.5 1069.1,196.2 1077.8,201 1069.1,205.7 1064.3,214.4 1059.6,205.7 1050.9,201 
		1059.6,196.2 	"/>
	<g>
		<polygon class="st2" points="1723.2,738.6 1727.9,747.2 1736.6,752 1727.9,756.7 1723.2,765.4 1718.4,756.7 1709.8,752 
			1718.4,747.2 		"/>
		<polygon class="st2" points="1406,976.7 1410.2,984.4 1417.9,988.6 1410.2,992.8 1406,1000.5 1401.8,992.8 1394.1,988.6 
			1401.8,984.4 		"/>
		<g>
			<path class="st4" d="M1637.2,823.1c-13.6,13.6-19.8,26.9-18.5,39.7c1.8,17.7,17.9,28.5,18.1,28.6c0.8,0.5,19.3,13,21.4,34.5
				c1.5,15.2-5.5,30.7-21,46.1c-10.6,10.6-16.9,21.4-18.8,32.1c12.3,7,25.9,11.9,40.5,14.2c-0.2-1.4-0.4-2.8-0.5-4.2
				c-1.1-15.6,6-31.2,21.1-46.3c14.1-14.1,20.6-27.9,19.2-41.2c-1.8-18.6-18.6-30-18.8-30.1c-0.7-0.5-18.6-12.4-20.7-32.9
				c-1.5-14.6,5.3-29.6,20.3-44.6c12.4-12.4,18.6-24.2,18.7-35.3c-6.8-1.2-13.8-1.9-21-1.9c-6.6,0-13.2,0.6-19.5,1.6
				C1657.7,796.2,1650.8,809.5,1637.2,823.1z"/>
			<path class="st4" d="M1733.7,796.2c-9.2-5-19.2-8.9-29.6-11.3c-0.5,12.3-7.3,25.2-20.4,38.3c-13.6,13.6-19.8,26.9-18.5,39.7
				c1.8,17.7,17.9,28.5,18.1,28.6c0.8,0.5,19.3,13,21.4,34.5c1.5,15.2-5.5,30.7-21,46.1c-13.8,13.8-20.3,27.8-19.3,41.6
				c0.1,1.9,0.4,3.7,0.8,5.5c3.9,0.4,7.9,0.6,12,0.6c6.8,0,13.4-0.6,19.9-1.7c-0.2-1.3-0.4-2.6-0.5-4c-1.1-15.6,6-31.2,21.1-46.3
				c14.1-14.1,20.6-27.9,19.2-41.2c-1.8-18.6-18.6-30-18.8-30.1c-0.7-0.5-18.6-12.4-20.7-32.9c-1.5-14.6,5.3-29.6,20.3-44.6
				C1725.4,811.1,1730.8,803.5,1733.7,796.2z"/>
			<path class="st4" d="M1739,799.2c-3.3,7.8-9,15.8-17.1,23.9c-13.6,13.6-19.8,26.9-18.5,39.7c1.8,17.7,17.9,28.5,18.1,28.6
				c0.8,0.5,19.3,13,21.4,34.5c1.5,15.2-5.5,30.7-21,46.1c-13.8,13.8-20.3,27.8-19.3,41.6c0.1,1.1,0.2,2.2,0.4,3.2
				c53.1-11.8,92.7-59.3,92.7-116.1C1795.7,857.7,1773,820.1,1739,799.2z"/>
			<path class="st4" d="M1632.9,967.7c14.1-14.1,20.5-27.9,19.2-41.2c-1.8-18.6-18.6-30-18.8-30.1c-0.7-0.5-18.6-12.4-20.7-32.9
				c-1.5-14.6,5.3-29.6,20.3-44.6c12-12,18.3-23.6,18.7-34.4c-53.2,11.7-93,59.3-93,116.2c0,42,21.7,78.8,54.4,100
				C1615.5,989.5,1622.1,978.5,1632.9,967.7z"/>
		</g>
		<g>
			<path class="st7" d="M1563.4,975.7c-13.5,0-24.9-2.5-28-10.3c-2.7-6.8,1.9-15.7,13.5-26.4l3.4,3.7c-9.7,8.9-14,16.3-12.2,20.9
				c1.1,2.7,7.7,11.1,48.7,4.9c29.6-4.5,67.1-15.3,105.7-30.3c38.6-15,73.5-32.5,98.3-49.2c34.4-23.2,33.6-33.9,32.6-36.6
				c-2.1-5.3-12.9-7.8-29.6-6.9l-0.3-5c19.9-1,31.5,2.4,34.6,10.1c4.9,12.7-16,30.1-34.4,42.5c-25.1,16.9-60.4,34.6-99.3,49.7
				c-38.9,15.2-76.8,26-106.8,30.6C1581.1,974.7,1571.9,975.7,1563.4,975.7z"/>
		</g>
		<g>
			<path class="st3" d="M1555.3,987.8c-18.9,0-36.3-3.6-41-15.7c-4.7-11.9,5.1-28.1,28.1-46.7l5,6.2c-27.7,22.3-27.2,33.7-25.7,37.6
				c3.7,9.4,24.6,12.8,56,9.2c34-3.9,76.7-15.5,120.4-32.5c43.7-17,83-37.5,110.7-57.6c25.6-18.6,38.6-35.3,35-44.7
				c-3.3-8.4-21.1-12.2-47.8-10l-0.6-8c31.7-2.6,51,2.7,55.9,15.1c6.7,17.2-16.8,38.9-37.7,54c-28.2,20.5-68.2,41.3-112.5,58.6
				c-44.3,17.3-87.8,29-122.4,33C1571.2,987.2,1563.1,987.8,1555.3,987.8z"/>
		</g>
	</g>
	<circle class="st2" cx="1266.6" cy="765.4" r="8.8"/>
	<circle class="st2" cx="1501" cy="841.4" r="6.5"/>
	<circle class="st2" cx="1878.6" cy="998.6" r="10"/>
	<g>
		<polygon class="st5" points="688.2,114.5 679.6,120.8 686,132.4 675.2,125.2 667.3,138.1 669.2,123.6 655,122.3 667.6,117.6 
			661.8,105.1 672,113.1 680.7,102.3 678,114.7 		"/>
	</g>
	<g>
		<polygon class="st2" points="560.5,284.4 559.8,292 563.2,298.8 555.6,298 548.8,301.4 549.6,293.9 546.2,287.1 553.8,287.9 		"/>
	</g>
	<g>
		<path class="st22" d="M1469.5,245.8c0,0,0.8-24.9,26.8-11.8c26,13.1,28-12.3,28-12.3s2.3-26.4,29.2-12.9
			c26.9,13.6,30.8-13.6,30.8-13.6"/>
		<path class="st22" d="M1465.1,234.1c0,0,0.8-24.9,26.8-11.8c26,13.1,28-12.3,28-12.3s2.3-26.4,29.2-12.9
			c26.9,13.6,30.8-13.6,30.8-13.6"/>
	</g>
	<g>
		<g>
			<path class="st23" d="M610.1,394.1c0-0.2-0.4-23.9,30.4-25.2c12.2-0.5,20.9-4.8,26-12.7c3.8-5.9,4-11.6,4-11.7
				c0-0.3,1.3-26,33.1-27.4c30-1.3,32.9-25.9,33-26.9l2,0.2c0,0.3-3.1,27.4-34.9,28.7c-12.6,0.5-21.7,5-27,13.2
				c-3.9,6.1-4.2,12.1-4.2,12.2c0,0.2-1.1,25-31.8,26.3c-28.8,1.2-28.6,22.3-28.5,23.2L610.1,394.1z"/>
		</g>
		<g>
			<path class="st23" d="M604.4,385.8c0-0.2-0.4-23.9,30.4-25.2c28.9-1.2,29.9-23.4,29.9-24.4c0-0.3,1.3-26,33.1-27.4
				c12.6-0.5,22-5.2,27.9-14c4.4-6.5,5.1-12.9,5.1-13l2,0.2c0,0.3-3.1,27.4-34.9,28.7c-12.6,0.5-21.7,5-27,13.2
				c-3.9,6.1-4.2,12.1-4.2,12.2c0,0.2-1.1,25-31.8,26.3c-28.8,1.2-28.6,22.3-28.5,23.2L604.4,385.8z"/>
		</g>
	</g>
	<circle class="st24" cx="1255.2" cy="265.1" r="3.7"/>
	<polygon class="st25" points="1752.3,106.5 1739.8,101.9 1736.9,113.5 1734.5,101.9 1720.5,104.2 1731.8,97.3 1723.6,88.1 
		1734.4,92.7 1738.7,76.5 1739.8,92.6 1752.7,89.3 1742.5,97.2 	"/>
	<g>
		<polygon class="st26" points="1218.3,39.3 1222.5,48.6 1226.6,57.9 1134.7,93.1 1042.8,128.4 1130.6,83.8 		"/>
		<polygon class="st4" points="1203.9,20.5 1206.1,25.4 1208.3,30.4 1111.1,70.5 1014,110.7 1108.9,65.6 		"/>
		<polygon class="st2" points="1209,27.8 1213.4,37.8 1217.8,47.8 1095.6,96 932.4,160.5 1091.1,86.1 		"/>
		<polygon class="st2" points="1204.4,9 1207.1,15 1209.8,21.1 1140.9,48 1072.1,74.9 1138.2,42 		"/>
		
			<ellipse transform="matrix(0.9535 -0.3013 0.3013 0.9535 45.9173 367.2102)" class="st12" cx="1213.6" cy="34.7" rx="29" ry="27.6"/>
	</g>
	<g>
		<polygon class="st27" points="1286,961 1283.8,967.4 1281.7,973.8 1219.9,950.1 1121.5,916.4 1222.1,943.7 		"/>
		<polygon class="st27" points="1287.4,945.5 1286.2,948.9 1285.1,952.3 1218.5,928.6 1069.8,880.5 1219.6,925.2 		"/>
		<polygon class="st28" points="1286.6,951.3 1284.3,958.1 1281.9,964.9 1199.1,934.1 958.7,857.9 1201.5,927.3 		"/>
		<polygon class="st28" points="1292.9,940.2 1291.5,944.3 1290.1,948.4 1243.6,930.9 1084.2,871 1245,926.8 		"/>
		
			<ellipse transform="matrix(0.2882 -0.9576 0.9576 0.2882 -0.9829 1912.0999)" class="st4" cx="1285.7" cy="956.7" rx="18.2" ry="19.5"/>
	</g>
	<polygon class="st29" points="1219.9,783.5 1218.1,787.4 1216.3,791.3 1125.8,756.4 1035.3,721.5 1127.6,752.5 	"/>
	<polygon class="st2" points="1609.4,1027.7 1607.6,1031.7 1605.8,1035.6 1515.4,1000.7 1383.6,952 1517.2,996.8 	"/>
	<polygon class="st4" points="1139.2,847.2 1137.2,851.1 1135.1,854.9 967.9,790.7 800.6,726.6 969.9,786.9 	"/>
	<polygon class="st5" points="1472.1,940.6 1470.3,944.5 1468.5,948.4 1363,907.8 1257.5,867.2 1364.8,903.9 	"/>
	<polygon class="st12" points="1539.3,141.2 1540.5,145.2 1541.6,149.1 1466.5,174.7 1348.9,214.7 1465.4,170.7 	"/>
	<polygon class="st4" points="1233.6,172.9 1234.8,176.5 1236,180.1 1152.3,213.3 1021.2,265.3 1151.1,209.7 	"/>
	<polygon class="st2" points="1689.3,-16.3 1690.2,-12.7 1691.2,-9 1593.2,24.3 1439.9,76.5 1592.3,20.7 	"/>
	<g>
		<circle class="st3" cx="70" cy="738" r="7.7"/>
	</g>
	<g>
		<circle class="st2" cx="550.3" cy="841.8" r="7.6"/>
	</g>
	<g>
		<path class="st2" d="M74.6,530.7l0.1-12.9l-10.6-7.3l12.2-3.9l3.7-12.3l7.5,10.4l12.9-0.3l-7.6,10.4L97,527l-12.2-4L74.6,530.7z
			 M70.8,511.5l6.9,4.8l0,8.4l6.7-5l7.9,2.6l-2.7-7.9l4.9-6.7l-8.4,0.2l-4.9-6.8l-2.4,8L70.8,511.5z"/>
	</g>
	<g>
		<polygon class="st2" points="738,958.5 737.4,964.9 740.3,970.6 733.9,969.9 728.2,972.8 728.8,966.4 726,960.7 732.3,961.4 		"/>
	</g>
	<g>
		<path class="st5" d="M512.7,288.8c-0.8-0.1-20.6-2.5-30.3-18.7c-7.2-12-6.9-28,0.9-47.8c7.2-18.2,7.5-33.2,1.1-44.6
			c-9-15.9-28.5-19.4-28.7-19.5c-0.9-0.2-22.4-4.1-32.7-22.5c-7.3-13-7-29.8,0.9-49.8c7.2-18.4,7.6-34.1,1-46.7
			c-9.7-18.6-31.4-24-31.7-24.1l0.9-3.9c1,0.2,23.7,5.9,34.3,26.1c7.1,13.6,6.8,30.5-0.9,50c-7.4,18.8-7.8,34.4-1.1,46.4
			c9.4,16.7,29.7,20.5,29.9,20.5c0.9,0.1,21.5,3.8,31.5,21.4c7.1,12.5,6.8,28.7-0.8,48.1c-7.3,18.5-7.7,33.4-1.2,44.2
			c8.7,14.5,27.2,16.8,27.4,16.8L512.7,288.8z"/>
	</g>
	<path class="st21" d="M219.2,711.3c0,0-5.8,50.6-63.8,27.8s-66.8,29.1-66.8,29.1s-9.5,53.9-69.6,30.3c-60.1-23.6-73.4,32-73.4,32"
		/>
	<path class="st22" d="M229.7,735.3c0,0-5.8,50.6-63.8,27.8s-66.8,29.1-66.8,29.1s-9.5,53.9-69.6,30.3s-73.4,32-73.4,32"/>
	<path class="st22" d="M245,760.3c0,0-5.8,50.6-63.8,27.8s-66.8,29.1-66.8,29.1s-9.5,53.9-69.6,30.3s-73.4,32-73.4,32"/>
	<g>
		<g>
			<path class="st5" d="M702,868.5l-38.7-8l-38.7-8c-1.6-0.3-2.8,1.4-1.9,2.8l14.6,23l15.7,24.8l-9.3,38.1l2.7,0.7l9.3-38
				c0,0,0.1,0,0.1,0l24.5-16.6l22.5-15.3C704,870.9,703.6,868.8,702,868.5z"/>
			<g>
				<path class="st7" d="M631.5,861.4c-0.7-1,0.3-2.3,1.4-2.1l28.7,6l28.7,6c1.2,0.2,1.5,1.8,0.5,2.5L674.2,885L656,897.4
					c-0.6,0.4-1.5,0.3-1.9-0.4l-11.8-18.6L631.5,861.4z"/>
			</g>
			<g>
				<path class="st5" d="M638.5,949.8c-2.7-0.9-5.1-2.2-7.1-3.6c-3.3-2.5-4.8-5.4-4.3-8.1c0.7-3.7,5.2-6.3,11.6-6.8l0.2,2.8
					c-5,0.3-8.6,2.1-9,4.5c-0.3,1.6,0.9,3.6,3.2,5.3c2.7,2,6.5,3.5,10.7,4.3c4.2,0.8,8.3,0.7,11.5-0.2c2.8-0.8,4.6-2.2,4.9-3.8
					c0.4-2.1-1.6-4.6-5.3-6.7l1.4-2.5c4.8,2.7,7.3,6.3,6.7,9.6c-0.5,2.7-3,4.9-6.9,6c-3.6,1-8.2,1.1-12.8,0.2
					C641.6,950.8,640,950.3,638.5,949.8z"/>
			</g>
			<g>
				<path class="st5" d="M680.4,876.5c-1.2-0.4-1.8-1.7-1.4-2.8c0.4-1.2,1.7-1.8,2.8-1.4c1.2,0.4,1.8,1.7,1.4,2.8
					C682.8,876.3,681.5,876.9,680.4,876.5z"/>
			</g>
		</g>
		<g>
			<g>
				<path class="st2" d="M658.7,874c-5.7-15,2-31.8,17-37.5c15-5.7,31.8,2,37.5,17"/>
			</g>
			<g>
				<path class="st6" d="M663.1,869.2c-4.5-12.1,1.6-25.5,13.6-30c12.1-4.5,25.5,1.6,30,13.6"/>
			</g>
			<g>
				<path class="st5" d="M666.7,864.7c-3.4-8.9,1.6-19.1,11.1-22.7s19.9,0.8,23.3,9.7"/>
			</g>
			<g>
				<polygon class="st25" points="684,858.7 677.3,842.2 678.3,841.8 684.3,856.4 694,843.7 694.9,844.3 				"/>
			</g>
			<g>
				
					<rect x="675" y="846.4" transform="matrix(0.3066 -0.9518 0.9518 0.3066 -345.7296 1236.1685)" class="st25" width="1.1" height="17.9"/>
			</g>
			<g>
				<circle class="st4" cx="652.3" cy="851.6" r="1.7"/>
			</g>
			<g>
				<circle class="st25" cx="708.4" cy="866.6" r="3.4"/>
			</g>
			<g>
				<circle class="st4" cx="705.7" cy="843.4" r="5"/>
			</g>
			<g>
				<circle class="st5" cx="689.7" cy="829.3" r="2.7"/>
			</g>
		</g>
		<g>
			<path class="st5" d="M630.6,1004.5l-22.5-31.9c0,0,0-0.1,0-0.1l3.6-29.4l3.3-27c0.2-1.6-1.7-2.7-3-1.7l-31.5,23.9l-31.5,23.9
				c-1.3,1-0.8,3.1,0.8,3.3l26.9,4.1l29,4.4l22.6,32.1L630.6,1004.5z"/>
			<g>
				<path class="st7" d="M560.3,962.7c-1.2-0.2-1.6-1.7-0.6-2.5l23.4-17.7l23.4-17.7c1-0.7,2.3,0.1,2.2,1.3l-2.4,20l-2.7,21.8
					c-0.1,0.8-0.8,1.3-1.6,1.2l-21.7-3.3L560.3,962.7z"/>
			</g>
			<g>
				<path class="st5" d="M631.6,1015.6c-2.5,1.4-5,2.5-7.4,3c-4,0.9-7.2,0.1-8.9-2.1c-2.4-3-1.4-8,2.5-13.2l2.2,1.7
					c-3,4-4,7.9-2.6,9.7c1,1.3,3.2,1.7,6.1,1.1c3.3-0.7,6.9-2.5,10.3-5.2c3.4-2.7,6-5.8,7.4-8.8c1.3-2.7,1.4-4.9,0.4-6.2
					c-1.3-1.6-4.6-1.8-8.5-0.4l-1-2.7c5.2-1.9,9.6-1.4,11.7,1.3c1.7,2.2,1.7,5.5,0,9.2c-1.6,3.4-4.5,6.9-8.2,9.8
					C634.3,1013.9,632.9,1014.8,631.6,1015.6z"/>
			</g>
			<g>
				<path class="st5" d="M603.9,935.9c-1.1,0.6-2.4,0.3-3-0.8c-0.6-1.1-0.3-2.4,0.8-3c1.1-0.6,2.4-0.3,3,0.8
					C605.3,933.9,604.9,935.3,603.9,935.9z M602.4,933.4c-0.3,0.2-0.4,0.5-0.2,0.8c0.2,0.3,0.5,0.4,0.8,0.2c0.3-0.2,0.4-0.5,0.2-0.8
					S602.7,933.3,602.4,933.4z"/>
			</g>
		</g>
		<g>
			<g>
				<path class="st2" d="M554.7,942.4c-0.5-16.1,12-29.5,28.1-30.1c16.1-0.5,29.5,12,30.1,28.1"/>
			</g>
			<g>
				<path class="st6" d="M560.4,939.4c-0.4-12.9,9.7-23.7,22.5-24.1c12.9-0.4,23.7,9.7,24.1,22.5"/>
			</g>
			<g>
				<path class="st5" d="M565.2,936.2c-0.3-9.5,7.7-17.6,17.8-17.9c10.2-0.3,18.7,7.1,19,16.7"/>
			</g>
			<g>
				<polygon class="st25" points="583.5,936 582.5,918.3 583.6,918.3 584.5,934 597.8,925 598.5,925.9 				"/>
			</g>
			<g>
				
					<rect x="576.1" y="921.3" transform="matrix(0.595 -0.8037 0.8037 0.595 -514.1071 840.1317)" class="st25" width="1.1" height="17.9"/>
			</g>
			<g>
				<circle class="st25" cx="553.2" cy="923" r="2.8"/>
			</g>
			<g>
				<circle class="st4" cx="590.6" cy="955.4" r="4.8"/>
			</g>
			<g>
				<circle class="st4" cx="609" cy="928.5" r="5"/>
			</g>
			<g>
				<circle class="st5" cx="596.6" cy="910.5" r="2.4"/>
			</g>
		</g>
	</g>
	<g>
		<g>
			<circle class="st2" cx="150.8" cy="814.3" r="5.7"/>
		</g>
		<g>
			<path class="st2" d="M168.6,982.3l-3-8.7l-8.9-2.4l7.3-5.6l-0.4-9.2l7.6,5.2l8.6-3.3l-2.6,8.8l5.7,7.2l-9.2,0.2L168.6,982.3z
				 M163.4,969.9l4.5,1.2l1.5,4.4l2.6-3.9l4.7-0.1l-2.9-3.7l1.4-4.5l-4.4,1.7l-3.9-2.7l0.2,4.7L163.4,969.9z"/>
		</g>
		<g>
			<polygon class="st2" points="414.5,782.7 413.7,789 416.4,794.6 410.2,794.1 404.6,797.1 405.4,790.8 402.7,785.2 408.9,785.7 
							"/>
		</g>
		<g>
			<polygon class="st5" points="150.9,878.5 149.5,872.8 143.9,873.6 148.5,870.2 142.4,863.5 150.3,868 153.7,860 153.1,868.5 
				159.2,868.5 154.1,871.1 157.7,875.3 152.3,873.3 			"/>
		</g>
		<g>
			<path class="st0" d="M287.4,803.9c0,0,21-33.5,26.8-29.9s6,33.6,6,33.6L287.4,803.9z"/>
			<path class="st0" d="M375.3,876.9c0,0,32.4-24.5,27.6-29.3c-4.8-4.8-36.7-0.3-36.7-0.3L375.3,876.9z"/>
			<path class="st0" d="M249.7,829.5c24.3-25.9,67-28.3,95.2-5.4s31.4,62.5,7.1,88.4"/>
			<path class="st0" d="M351.9,911.8c-24.4,25.7-67.1,28-95.2,5c-28.1-23-31.1-62.7-6.7-88.4"/>
			<path class="st23" d="M372.5,881.2l2.5-1.8c0.1-0.1,8.1-5.8,15.7-12.3c14.5-12.5,15.3-17.4,14.4-20.2c-0.5-1.6-2-3.6-6.5-4.1
				c-20.8-2.2-30.9,1.2-31.4,1.3l-0.5,0.2c-4.2-8.7-10.5-16.8-18.7-23.5c-7.6-6.2-16.2-10.6-25.2-13.4l0.1-0.6
				c0.1-0.4,2.3-10.2-2.8-29.1c-1.1-4-3.5-5.2-5.2-5.4c-3.2-0.4-8.2,1-19.6,16c-6,7.9-11,16.1-11,16.2l-0.8,1.3
				c-14.1,3-27.3,10-37.4,20.8c-26,27.7-22.6,70.2,7.6,94.7s76,22,102-5.8C365.1,905.5,370.6,893.6,372.5,881.2z M398.2,847.3
				c1.5,0.2,2.2,0.5,2.3,0.8c0.9,2.8-9,13.5-25.3,25.5l-4.3-25.7C374.5,847.1,383.5,845.7,398.2,847.3z M314.3,776.7
				c0.1,0,0.1,0,0.2,0.1c0.3,0.2,0.7,0.9,0.9,1.9c3.6,13.3,3.4,21.8,3.1,25.2l-28-0.5C301.1,786.8,311.1,776.3,314.3,776.7z
				 M256.9,917.9c-28.2-22.9-31.4-62.5-7.1-88.4c24.3-25.9,67-28.3,95.2-5.4s31.4,62.5,7.1,88.4
				C327.7,938.4,285.1,940.8,256.9,917.9z"/>
			<g>
				<path class="st6" d="M373.8,963c-20.4,21.7-78.5,5.5-129.8-36.2c-51.3-41.7-76.5-93-56.1-114.7c20.4-21.7,47.3,27.7,98.7,69.4
					S394.1,941.3,373.8,963z"/>
			</g>
			<g>
				<path class="st4" d="M329.5,889.9l-0.2-0.2l-20.4-20.2l-25.8-17.3c-6.5-5.3-7.9-13.7-3.1-18.8l9.7-10.4c4.8-5.1,14-4.9,20.5,0.3
					l0.2,0.2c0.2,0.2,15.4,16.1,21,20.7c5.6,4.6,24.7,16.5,24.9,16.6l0.2,0.2c6.5,5.3,7.9,13.7,3.1,18.8l-9.7,10.4
					C345.2,895.3,336,895.2,329.5,889.9z"/>
			</g>
			<g>
				<path class="st23" d="M289.4,875.7c-0.3-0.3-0.7-0.6-1-0.9c-7.6-7.1-3.7-13.7-3.6-14l4.2,2.2c-0.2,0.4-2.1,4.1,2.8,8.7
					c4.7,4.4,8.5,2.5,8.9,2.2l2.7,3.8C301,879.1,295.2,880.4,289.4,875.7z"/>
			</g>
			<g>
				<path class="st23" d="M305.3,888.7c-0.3-0.3-0.7-0.6-1-0.9c-7.6-7.1-3.7-13.7-3.6-14l4.2,2.2c-0.2,0.4-2.1,4.1,2.8,8.7
					c4.7,4.4,8.5,2.5,8.9,2.2l2.7,3.8C316.9,892.1,311.2,893.4,305.3,888.7z"/>
			</g>
			<g>
				<g>
					<polygon class="st23" points="270.7,841 263.5,830.1 266.3,828.6 273.4,839.5 					"/>
				</g>
				<g>
					<polygon class="st23" points="266.8,845.3 253.2,834.3 255.3,832 268.9,843.1 					"/>
				</g>
				<g>
					<polygon class="st23" points="252.3,846 253.4,843.2 266.5,847.9 265.3,850.7 					"/>
				</g>
			</g>
			<g>
				<g>
					<polygon class="st23" points="335.9,916.1 329.7,904.7 332.5,903.4 338.8,914.8 					"/>
				</g>
				<g>
					<polygon class="st23" points="347.2,913.4 334.5,901.5 336.8,899.4 349.5,911.3 					"/>
				</g>
				<g>
					<polygon class="st23" points="337.3,896.9 338.6,894.2 351.2,899.7 349.9,902.4 					"/>
				</g>
			</g>
			<g>
				<path class="st23" d="M220.9,884.5c-9.2-7.4-10.2-20.3-2.4-28.7c7.9-8.4,21.7-9.1,30.9-1.7c9.2,7.4,10.2,20.3,2.4,28.7
					C244,891.2,230.1,891.9,220.9,884.5z M246.3,857.5c-7.1-5.8-17.9-5.2-24.1,1.3c-6.1,6.5-5.3,16.5,1.8,22.3
					c7.1,5.8,17.9,5.2,24.1-1.3C254.3,873.3,253.4,863.3,246.3,857.5z"/>
			</g>
			<g>
				<path class="st23" d="M262.3,918.1c-9.2-7.4-10.2-20.3-2.4-28.7c7.9-8.4,21.7-9.1,30.9-1.7c9.2,7.4,10.2,20.3,2.4,28.7
					C285.3,924.7,271.4,925.5,262.3,918.1z M287.6,891c-7.1-5.8-17.9-5.2-24.1,1.3c-6.1,6.5-5.3,16.5,1.8,22.3
					c7.1,5.8,17.9,5.2,24.1-1.3C295.6,906.9,294.8,896.8,287.6,891z"/>
			</g>
			<g>
				<path class="st23" d="M303.6,951.6c-9.2-7.4-10.2-20.3-2.4-28.7c7.9-8.4,21.7-9.1,30.9-1.7c9.2,7.4,10.2,20.3,2.4,28.7
					C326.6,958.3,312.8,959,303.6,951.6z M329,924.6c-7.1-5.8-17.9-5.2-24.1,1.3c-6.1,6.5-5.3,16.5,1.8,22.3
					c7.1,5.8,17.9,5.2,24.1-1.3C336.9,940.4,336.1,930.4,329,924.6z"/>
			</g>
			<g>
				<polygon class="st26" points="273.3,912.4 272.3,906.1 265.6,905 270.9,901.2 268.5,895.3 274.8,897.7 279.1,892.9 280.1,899.1 
					286.8,900.2 281.5,904.1 283.9,910 277.6,907.6 				"/>
			</g>
		</g>
		<g>
			<polygon class="st5" points="333.7,1017.5 326.4,1014.5 321.5,1023.1 321.9,1013.5 310.5,1013.5 320.5,1009 315.7,999.5 
				323.7,1005.6 329.3,997.1 328.2,1006.7 338.5,1007.9 329.6,1011.1 			"/>
		</g>
	</g>
	<circle class="st5" cx="460.7" cy="983.8" r="13.6"/>
	<g>
		<g>
			<circle class="st2" cx="576.6" cy="80.7" r="8.9"/>
		</g>
		<g>
			<g>
				
					<rect x="627.8" y="101" transform="matrix(0.5223 -0.8528 0.8528 0.5223 177.7774 606.0608)" class="st3" width="4" height="86.8"/>
			</g>
			<g>
				<circle class="st4" cx="593.1" cy="121.1" r="5.9"/>
			</g>
		</g>
		<g>
			<g>
				
					<rect x="463.5" y="129.6" transform="matrix(0.9649 -0.2627 0.2627 0.9649 -16.772 137.7859)" class="st3" width="86.8" height="4"/>
			</g>
			<g>
				<circle class="st4" cx="549" cy="120.8" r="5.9"/>
			</g>
		</g>
		<g>
			<path class="st5" d="M586.2,233.2h-30.3c-17.9,0-32.4-14.5-32.4-32.4V167c0-3.3,2.7-6,6-6h83.2c3.3,0,6,2.7,6,6v33.6
				C618.8,218.6,604.2,233.2,586.2,233.2z"/>
			<polygon class="st6" points="559.1,183.2 564.3,207.2 569.6,231.2 559.1,231.2 548.7,231.2 553.9,207.2 			"/>
			<polygon class="st6" points="584,183.2 589.2,207.2 594.4,231.2 584,231.2 573.6,231.2 578.8,207.2 			"/>
			<polygon class="st6" points="602.8,223.9 597.6,206.5 592.4,189.1 602.8,189.1 613.2,189.1 608,206.5 			"/>
			<polygon class="st6" points="540.6,223.9 535.4,206.5 530.2,189.1 540.6,189.1 551,189.1 545.8,206.5 			"/>
			<polygon class="st7" points="572.3,174.7 574.7,186 580,186.8 576.2,190.5 577.1,195.9 572.3,193.4 567.5,195.9 568.4,190.5 
				564.5,186.8 569.9,186 			"/>
			<path class="st23" d="M523.5,166.9c0-14.9,21.3-16.9,47.6-16.9c27.9,0,47.6,4.8,47.6,16.9"/>
		</g>
	</g>
</g>
<g id="color">
	<g>
		<rect x="447.4" y="-110.5" class="st3" width="176.3" height="89.4"/>
		<rect x="623.7" y="-110.5" class="st4" width="176.3" height="89.4"/>
		<rect x="800.8" y="-110.5" class="st23" width="176.3" height="89.4"/>
		<rect x="977.8" y="-110.5" class="st5" width="176.3" height="89.4"/>
		<rect x="1154.9" y="-110.5" class="st6" width="176.3" height="89.4"/>
		<rect x="1331.9" y="-110.5" class="st7" width="176.3" height="89.4"/>
		<rect x="1509" y="-110.5" class="st12" width="176.3" height="89.4"/>
		<rect x="1683.8" y="-110.5" class="st0" width="176.3" height="89.4"/>
		<text transform="matrix(1 0 0 1 491.8513 -57.8084)" style="font-family:'KozGoPr6N-Regular-83pv-RKSJ-H'; font-size:24px;">FF56C2</text>
		<text transform="matrix(1 0 0 1 674.5654 -57.8084)" style="font-family:'KozGoPr6N-Regular-83pv-RKSJ-H'; font-size:24px;">59FFF6</text>
		<text transform="matrix(1 0 0 1 850.6111 -57.8084)" style="font-family:'KozGoPr6N-Regular-83pv-RKSJ-H'; font-size:24px;">FFFFFF</text>
		<text transform="matrix(1 0 0 1 1026.6569 -57.8084)" style="font-family:'KozGoPr6N-Regular-83pv-RKSJ-H'; font-size:24px;">FAF000</text>
		<text transform="matrix(1 0 0 1 1202.7026 -57.8084)" style="font-family:'KozGoPr6N-Regular-83pv-RKSJ-H'; font-size:24px;">FF5720</text>
		<text transform="matrix(1 0 0 1 1378.7484 -57.8084)" style="font-family:'KozGoPr6N-Regular-83pv-RKSJ-H'; font-size:24px;">7D55FF</text>
		<text transform="matrix(1 0 0 1 1554.7942 -57.8084)" style="font-family:'KozGoPr6N-Regular-83pv-RKSJ-H'; font-size:24px;">EFA9DD</text>
		
			<text transform="matrix(1 0 0 1 1730.84 -57.8084)" class="st23" style="font-family:'KozGoPr6N-Regular-83pv-RKSJ-H'; font-size:24px;">000000</text>
	</g>
</g>
</svg>
