<?xml version="1.0" encoding="utf-8"?>
<!-- Generator: Adobe Illustrator 26.3.1, SVG Export Plug-In . SVG Version: 6.00 Build 0)  -->
<svg version="1.0" xmlns="http://www.w3.org/2000/svg" xmlns:xlink="http://www.w3.org/1999/xlink" x="0px" y="0px"
	 viewBox="0 0 1920 1080" style="enable-background:new 0 0 1920 1080;" xml:space="preserve">
<style type="text/css">
	.st0{fill:#202123;}
	.st1{fill:#FFF79B;}
	.st2{fill:#F6F6F6;}
	.st3{fill:#FF56C2;}
	.st4{fill:#59FFF6;}
	.st5{fill:#FAF000;}
	.st6{fill:#FF5720;}
	.st7{fill:#7D55FF;}
	.st8{fill:#FDFF00;}
	.st9{fill:none;}
	.st10{fill:#F4F4F4;}
	.st11{fill:#FFF691;}
	.st12{fill:#FFFFFF;}
	.st13{fill:#6D6C3B;}
	.st14{fill:#EFA9DD;}
	.st15{fill:#353812;}
	.st16{clip-path:url(#SVGID_00000006700968929717584920000012118699531344616066_);}
	.st17{clip-path:url(#SVGID_00000109027047151472819690000007907639913583406476_);fill:#F6F6F6;}
	.st18{clip-path:url(#SVGID_00000144311517103147871140000016932541891726149306_);}
	.st19{clip-path:url(#SVGID_00000178912761518216417820000005864751595559653013_);fill:#F6F6F6;}
	.st20{clip-path:url(#SVGID_00000010284614712361392960000003666093012865225128_);}
	.st21{clip-path:url(#SVGID_00000030469316965875503500000016043437411275198877_);fill:#FF5720;}
	.st22{clip-path:url(#SVGID_00000082349698554500790930000005477719553940102552_);}
	.st23{clip-path:url(#SVGID_00000073686370686898474420000010321365428053193864_);fill:#F6F6F6;}
	.st24{fill:none;stroke:#FFFFFF;stroke-width:2;stroke-miterlimit:10;}
	.st25{fill:none;stroke:#FFFFFF;stroke-width:3;stroke-miterlimit:10;}
	.st26{fill:#FF84EE;}
	.st27{fill:none;stroke:#FF60FF;stroke-width:3;stroke-miterlimit:10;}
	.st28{fill:#7D55FF;stroke:#FFFFFF;stroke-width:2;stroke-miterlimit:10;}
	.st29{fill:#FF60FF;}
	.st30{fill:#E6CEF9;}
	.st31{clip-path:url(#SVGID_00000049194701449611810010000018396157878471981461_);}
	.st32{clip-path:url(#SVGID_00000078042597602218832950000012164023461884468882_);fill:#FF5720;}
	.st33{clip-path:url(#SVGID_00000088849724017717868440000010431379619481982621_);}
	.st34{clip-path:url(#SVGID_00000030453432439086046900000014121917388506821028_);fill:#F6F6F6;}
	.st35{fill:none;stroke:#F6F6F6;stroke-width:3;stroke-miterlimit:10;}
	.st36{fill:#00F2F0;}
	.st37{fill:#E5B7FF;}
	.st38{fill:#F8F8B8;}
</style>
<g id="bk-color">
	<rect x="-15" y="-8" class="st0" width="1958" height="1087.6"/>
</g>
<g id="_x31_0th-main">
	<g>
		<g>
			<path class="st0" d="M534.7,633.3c-14.7,14.4-34.6,23.2-56.5,23.2c-45.1,0-81.6-37.2-81.6-83.1s36.5-83.1,81.6-83.1
				c25.1,0,47.6,11.6,62.5,29.7l79.3-21.5c-27.6-60-87.2-101.5-156.4-101.5c-61.9,0-116.1,33.2-146.6,83.2l-2-2l1,3.6
				c-2.1,3.6-4.1,7.2-6,11l-7.4-2.1l5.7,5.5c-1.6,3.3-3,6.6-4.4,9.9l-5.9,1.5l4.8,1.2c-7.8,20.1-12,41.9-12,64.8
				c0,97.5,77.3,176.5,172.7,176.5c66.1,0,123.5-37.9,152.5-93.6L534.7,633.3z"/>
		</g>
		<path class="st1" d="M677,246.4l-34.5-23.7L536.3,413.5c2,0.9,3.9,1.9,5.8,2.9L677,246.4z"/>
		<path class="st2" d="M543.2,416.9c5,2.7,9.9,5.6,14.6,8.7l202.8-252.4L830,85.6l-15.7-12.4L677,246.4l14.5,10L543.2,416.9z"/>
		<path class="st2" d="M543.2,416.9l148.3-160.6l-14.5-10l-134.8,170C542.5,416.6,542.8,416.7,543.2,416.9z"/>
		<path class="st3" d="M778.2,151.3l-17.6,21.9L559.4,426.8c5,3.4,9.7,7,14.3,10.9l136.8-157.8l0.1,0.1L800,168.8L778.2,151.3z"/>
		<path class="st3" d="M559.4,426.8l201.1-253.6L557.8,425.6C558.3,426,558.9,426.4,559.4,426.8z"/>
		<path class="st3" d="M241.4,56.6l18.5-7.6L207.5-77.6L138-36.7l241.3,456.2c6.8-3.9,13.8-7.3,21.1-10.2L241.4,56.6z"/>
		<path class="st2" d="M415.8,404L266.6,46.3l-6.7,2.7l147.8,357.5C410.4,405.6,413.1,404.8,415.8,404z"/>
		<path class="st2" d="M400.4,409.3c2.4-1,4.9-1.9,7.3-2.8L259.9,49l-18.5,7.6L400.4,409.3z"/>
		<path class="st4" d="M426.3,401.2c4.5-1,9-1.8,13.6-2.5L268.1-106.9l-66.9-3.4l65.4,156.6l6.7-2.7L426.3,401.2z"/>
		<path class="st4" d="M426.3,401.2L273.2,43.6l-6.7,2.7L415.8,404C419.3,402.9,422.8,402,426.3,401.2z"/>
		<path class="st0" d="M542.2,416.4l-0.9,1.1l0.8,0.6l1.1-1.2C542.8,416.7,542.5,416.6,542.2,416.4z"/>
		<path class="st0" d="M555.4,428.6l1.6,1.3l2.5-3.1c-0.6-0.4-1.1-0.8-1.7-1.1L555.4,428.6z"/>
		<path class="st5" d="M377.5,727.7L204.8,1021l23,11.5l157.2-301.6c-2.4-1.2-4.7-2.5-7-3.9L377.5,727.7z"/>
		<path class="st1" d="M279.3,990.7l15.7,6.5l100.5-261.3c-2.2-1-4.5-2-6.7-3.1L279.3,990.7z"/>
		<path class="st3" d="M355.1,710.9L232.4,868.6l22.1,17.2l123-158.1l0.5-0.8C369.9,722.2,362.3,716.9,355.1,710.9z"/>
		<path class="st3" d="M378,726.9l-0.5,0.8l0.6-0.8C378.1,727,378,726.9,378,726.9z"/>
		<path class="st4" d="M622.7,843.4l13.9-9.8l-80.8-110.7c-3.3,2.2-6.8,4.2-10.3,6.1L622.7,843.4z"/>
		<g>
			<path class="st6" d="M585.1,495.7l8.5-3.2c-6.5-11.1-14.2-21.2-23.1-30.3l-6.1,7C572.2,477.3,579.2,486.1,585.1,495.7z"/>
			<path class="st6" d="M546.1,693.1l5.8,5.6c17.2-12.7,31.7-29,42.5-47.8l-7.8-2.3C576.2,666.2,562.4,681.4,546.1,693.1z"/>
			<path class="st6" d="M463.6,719.8c-79.1,0-143.3-65.6-143.3-146.4S384.5,427,463.6,427c34.7,0,66.4,12.6,91.2,33.5l6.2-7.1
				c-26.6-22.9-60.9-36.8-98.4-36.8c-84.2,0-152.5,69.8-152.5,155.8s68.3,155.8,152.5,155.8c13.3,0,26.1-1.7,38.4-5l-3.6-7.5
				C486.5,718.4,475.2,719.8,463.6,719.8z"/>
			<path class="st6" d="M509.9,712l3.6,7.3c11.9-4.3,23-10,33.3-17l-5.8-5.7C531.4,702.9,521,708.1,509.9,712z"/>
			<path class="st6" d="M590.7,505.7l8.6-2.4c-1-2.1-2.1-4.2-3.2-6.3l-8.4,3.1C588.7,502,589.7,503.8,590.7,505.7z"/>
			<path class="st7" d="M565.8,508.3c0.9,1.2,1.7,2.5,2.6,3.7l22.3-6.4c-1-1.9-2-3.7-3-5.6L565.8,508.3z"/>
			<path class="st7" d="M525.3,672.9l20.8,20.2c16.3-11.8,30.2-26.9,40.5-44.5l-23.2-6.8C553.2,654.9,540.2,665.6,525.3,672.9z"/>
			<path class="st7" d="M478.5,683.8c-59.7,0-108-49.4-108-110.4c0-61,48.4-110.4,108-110.4c21.7,0,41.8,6.5,58.7,17.7l17.6-20.3
				C530,439.6,498.2,427,463.6,427c-79.1,0-143.3,65.6-143.3,146.4s64.2,146.4,143.3,146.4c11.6,0,22.9-1.4,33.7-4.1l-15.6-32
				C480.7,683.8,479.6,683.8,478.5,683.8z"/>
			<path class="st7" d="M562.6,504.1l22.4-8.4c-5.9-9.6-12.9-18.5-20.7-26.4l-16.7,19.3C553.1,493.3,558.2,498.5,562.6,504.1z"/>
			<path class="st7" d="M495.6,682.4l14.4,29.6c11-3.9,21.5-9.1,31.1-15.4l-21.6-21C511.9,678.8,503.9,681.1,495.6,682.4z"/>
			<path class="st8" d="M547.6,488.6l-3.7,4.2c4.8,4,9.2,8.5,13.1,13.4l5.5-2.1C558.2,498.5,553.1,493.3,547.6,488.6z"/>
			<path class="st8" d="M521,668.7l4.3,4.2c14.9-7.3,27.9-18,38-31.1l-5.8-1.7C547.7,652.3,535.2,662.1,521,668.7z"/>
			<path class="st8" d="M478.5,463c-59.7,0-108,49.4-108,110.4c0,61,48.4,110.4,108,110.4c1.1,0,2.2,0,3.2,0l-2.7-5.6
				c-0.2,0-0.3,0-0.5,0c-56.6,0-102.5-46.9-102.5-104.7s45.9-104.7,102.5-104.7c20.2,0,39.1,6,55,16.4l3.7-4.3
				C520.3,469.5,500.2,463,478.5,463z"/>
			<path class="st8" d="M519.4,675.6l-4.4-4.3c-7,2.7-14.4,4.7-22,5.8l2.6,5.3C503.9,681.1,511.9,678.8,519.4,675.6z"/>
			<path class="st8" d="M560.3,510.3c0.8,1.1,1.6,2.2,2.4,3.3l5.6-1.6c-0.8-1.3-1.7-2.5-2.6-3.7L560.3,510.3z"/>
			<path class="st4" d="M557.5,640.1l-22.7-6.6c-8.6,8.4-19.1,14.9-30.7,18.9l16.8,16.4C535.2,662.1,547.7,652.3,557.5,640.1z"/>
			<path class="st4" d="M544,492.8L530,509c2,1.7,3.9,3.4,5.7,5.3l21.4-8C553.1,501.4,548.7,496.9,544,492.8z"/>
			<path class="st4" d="M515,671.3l-17.5-17c-4.7,1.2-9.6,1.9-14.6,2.2l10,20.6C500.6,676,508,674,515,671.3z"/>
			<path class="st4" d="M478.5,468.7c-56.6,0-102.5,46.9-102.5,104.7s45.9,104.7,102.5,104.7c0.2,0,0.3,0,0.5,0l-10.8-22.2
				c-40.1-5.2-71.1-40.1-71.1-82.5c0-45.9,36.4-83.2,81.4-83.2c14.9,0,28.8,4.1,40.8,11.2l14.2-16.4
				C517.6,474.7,498.8,468.7,478.5,468.7z"/>
			<path class="st4" d="M539.4,518.2c0.5,0.6,1,1.1,1.4,1.7l21.9-6.2c-0.8-1.1-1.6-2.2-2.4-3.3L539.4,518.2z"/>
		</g>
	</g>
	<g>
		<g>
			<path class="st5" d="M217.9,666.9h-12c-12.1,0-21.9-9.8-21.9-21.9V475.2c0-12.1,9.8-21.9,21.9-21.9h12c12.1,0,21.9,9.8,21.9,21.9
				V645C239.8,657.1,230,666.9,217.9,666.9z"/>
		</g>
		<g>
			<path class="st4" d="M211.9,629.7c-36.4,0-66-29.6-66-66s29.6-66,66-66s66,29.6,66,66S248.3,629.7,211.9,629.7z M211.9,500.7
				c-34.7,0-63,28.3-63,63s28.3,63,63,63s63-28.3,63-63S246.7,500.7,211.9,500.7z"/>
		</g>
		<g>
			<path class="st4" d="M211.9,555.7c-36.4,0-66-29.6-66-66c0-36.4,29.6-66,66-66s66,29.6,66,66
				C277.9,526.1,248.3,555.7,211.9,555.7z M211.9,426.7c-34.7,0-63,28.3-63,63s28.3,63,63,63s63-28.3,63-63S246.7,426.7,211.9,426.7
				z"/>
		</g>
		<g>
			<path class="st4" d="M211.9,701.2c-36.4,0-66-29.6-66-66s29.6-66,66-66s66,29.6,66,66S248.3,701.2,211.9,701.2z M211.9,572.2
				c-34.7,0-63,28.3-63,63s28.3,63,63,63s63-28.3,63-63S246.7,572.2,211.9,572.2z"/>
		</g>
		<g>
			<path class="st4" d="M211.9,727c-36.4,0-66-29.6-66-66c0-36.4,29.6-66,66-66s66,29.6,66,66C277.9,697.4,248.3,727,211.9,727z
				 M211.9,598c-34.7,0-63,28.3-63,63s28.3,63,63,63s63-28.3,63-63S246.7,598,211.9,598z"/>
		</g>
		<g>
			<path class="st4" d="M211.9,683.6c-36.4,0-66-29.6-66-66s29.6-66,66-66s66,29.6,66,66S248.3,683.6,211.9,683.6z M211.9,554.6
				c-34.7,0-63,28.3-63,63s28.3,63,63,63s63-28.3,63-63S246.7,554.6,211.9,554.6z"/>
		</g>
		<g>
			<path class="st5" d="M252.2,331l45.2-7.2l-43.3-15l35.6-28.8l-44.9,8.7l16.4-42.7l-34.6,30l-7.2-45.2l-15,43.3l-28.8-35.6
				l8.7,44.9L141.6,267l30,34.6l-45.2,7.2l43.3,15l-35.6,28.8l44.9-8.7l-16.4,42.7l34.6-30l7.2,45.2l15-43.3l28.8,35.6l-8.7-44.9
				l42.7,16.4L252.2,331z M227.3,334.7l4.9,25.2L216.1,340l-8.4,24.2l-4-25.3l-19.4,16.8l9.2-23.9l-25.2,4.9l19.9-16.1l-24.2-8.4
				l25.3-4l-16.8-19.4l23.9,9.2l-4.9-25.2l16.1,19.9l8.4-24.2l4,25.3l19.4-16.8l-9.2,23.9l25.2-4.9l-19.9,16.1l24.2,8.4l-25.3,4
				l16.8,19.4L227.3,334.7z"/>
		</g>
	</g>
	<g>
		<polygon class="st9" points="349.4,486.5 353.2,501.7 364.1,490.5 359.8,505.5 374.8,501.2 363.6,512 378.7,515.8 363.6,519.6 
			374.8,530.5 359.8,526.2 364.1,541.2 353.2,530 349.4,545.1 345.6,530 334.8,541.2 339.1,526.2 324.1,530.5 335.3,519.6 
			320.1,515.8 335.3,512 324.1,501.2 339.1,505.5 334.8,490.5 345.6,501.7 		"/>
	</g>
	<g>
		<polygon class="st10" points="352.4,499.1 356.2,506.8 364.7,508.1 358.6,514.1 360,522.6 352.4,518.5 344.8,522.6 346.2,514.1 
			340.1,508.1 348.6,506.8 		"/>
	</g>
	<g>
		<polygon class="st10" points="491.9,618.1 494.3,623.2 499.9,624 495.9,627.9 496.8,633.5 491.9,630.8 486.9,633.5 487.8,627.9 
			483.8,624 489.4,623.2 		"/>
	</g>
	<g>
		<polygon class="st10" points="397.2,672 399.2,676.1 403.7,676.8 400.4,679.9 401.2,684.4 397.2,682.3 393.1,684.4 393.9,679.9 
			390.6,676.8 395.1,676.1 		"/>
	</g>
	<g>
		<polygon class="st10" points="469.7,438.7 471.7,442.8 476.2,443.5 473,446.7 473.7,451.2 469.7,449 465.7,451.2 466.4,446.7 
			463.2,443.5 467.7,442.8 		"/>
	</g>
	<g>
		<circle class="st0" cx="397" cy="526.3" r="5.2"/>
	</g>
	<g>
		<circle class="st0" cx="565.9" cy="669" r="9"/>
	</g>
	<g>
		<circle class="st0" cx="369.2" cy="662.5" r="7.2"/>
	</g>
	<g>
		
			<rect x="602.4" y="279.4" transform="matrix(0.9348 -0.3552 0.3552 0.9348 -25.5232 428.7789)" class="st11" width="1105.3" height="9"/>
	</g>
	<g>
		
			<rect x="1740.7" y="47.4" transform="matrix(0.9348 -0.3552 0.3552 0.9348 97.5376 635.1608)" class="st11" width="75.9" height="9"/>
	</g>
	<g>
		
			<rect x="1089.4" y="341.7" transform="matrix(0.3292 -0.9443 0.9443 0.3292 -49.566 1589.5282)" class="st11" width="9" height="975.9"/>
	</g>
	<g>
		
			<rect x="1775.9" y="1024.8" transform="matrix(0.3292 -0.9443 0.9443 0.3292 193.0407 2392.6067)" class="st11" width="9" height="71.3"/>
	</g>
	<g>
		<g>
			<path class="st12" d="M931.1,343.2l-2.2-2.1c1.2-1.2,2.4-2.4,3.6-3.6l2.1,2.1C933.4,340.8,932.2,342,931.1,343.2z"/>
		</g>
		<g>
			<path class="st12" d="M941.6,333.3l-1.9-2.3c2.5-2.1,5.1-4.1,7.7-6l1.7,2.5C946.6,329.2,944.1,331.2,941.6,333.3z M957.2,322.3
				l-1.5-2.6c2.9-1.7,5.8-3.1,8.8-4.4l1.2,2.7C962.8,319.3,960,320.7,957.2,322.3z"/>
		</g>
		<g>
			<path class="st12" d="M999.9,819.1l-0.1-3c3.1-0.1,6.3-0.5,9.4-1l0.5,3C1006.5,818.6,1003.2,819,999.9,819.1z M990.1,818.9
				c-3.2-0.3-6.5-0.8-9.7-1.5l0.6-2.9c3.1,0.7,6.2,1.2,9.4,1.4L990.1,818.9z M1019.3,815.9l-0.9-2.9c3-0.9,6-2,8.9-3.3l1.2,2.8
				C1025.4,813.8,1022.3,814.9,1019.3,815.9z M970.9,814.7c-3-1.1-6.1-2.3-9.1-3.8l1.3-2.7c2.9,1.4,5.8,2.6,8.8,3.6L970.9,814.7z
				 M1037.3,808.1l-1.5-2.6c2.7-1.5,5.4-3.2,8.1-5.1l1.7,2.5C1042.8,804.8,1040,806.5,1037.3,808.1z M1053.3,797l-1.9-2.3
				c2.4-2,4.8-4.1,7.1-6.4l2.1,2.2C1058.2,792.8,1055.8,794.9,1053.3,797z M1067.4,783.5l-2.2-2c2.1-2.3,4.2-4.8,6.2-7.3l2.3,1.9
				C1071.7,778.6,1069.6,781.1,1067.4,783.5z M1079.7,768.3l-2.4-1.8c1.8-2.5,3.7-5.2,5.4-7.9l2.5,1.6
				C1083.4,763,1081.5,765.7,1079.7,768.3z M1090.3,752l-2.6-1.5c1.6-2.7,3.2-5.5,4.7-8.4l2.6,1.4
				C1093.5,746.4,1091.9,749.2,1090.3,752z M1099.5,734.8l-2.7-1.3c1.4-2.8,2.7-5.8,4.1-8.7l2.7,1.2
				C1102.2,729,1100.9,732,1099.5,734.8z M1107.4,717.1l-2.8-1.1c1.2-2.9,2.4-5.9,3.5-9l2.8,1
				C1109.7,711.1,1108.6,714.1,1107.4,717.1z M1114.1,698.8l-2.8-1c1-3,2-6.1,2.9-9.2l2.9,0.9
				C1116.1,692.7,1115.1,695.8,1114.1,698.8z M1119.8,680.3l-2.9-0.8c0.8-3.1,1.7-6.2,2.5-9.3l2.9,0.7
				C1121.5,674,1120.7,677.2,1119.8,680.3z M1124.5,661.4l-2.9-0.7c0.7-3.1,1.4-6.3,2-9.4l2.9,0.6
				C1125.9,655.1,1125.2,658.3,1124.5,661.4z M1128.3,642.4l-3-0.5c0.5-3.1,1.1-6.3,1.5-9.5l3,0.4
				C1129.4,636,1128.8,639.3,1128.3,642.4z M1131.2,623.2l-3-0.4c0.4-3.2,0.8-6.4,1.1-9.6l3,0.3C1132,616.8,1131.6,620,1131.2,623.2
				z M1133.3,603.9l-3-0.3c0.3-3.2,0.5-6.4,0.7-9.6l3,0.2C1133.8,597.5,1133.5,600.7,1133.3,603.9z M1134.5,584.6l-3-0.1
				c0.1-3.2,0.2-6.4,0.3-9.6l3,0.1C1134.7,578.1,1134.6,581.4,1134.5,584.6z M1135,565.2l-3,0l0-1.5c0-2.7,0-5.5-0.1-8.2l3-0.1
				c0,2.7,0.1,5.5,0.1,8.2L1135,565.2z M1131.6,545.9c-0.1-3.2-0.3-6.4-0.5-9.6l3-0.2c0.2,3.2,0.3,6.5,0.5,9.7L1131.6,545.9z
				 M1130.5,526.6c-0.3-3.2-0.5-6.4-0.9-9.6l3-0.3c0.3,3.2,0.6,6.4,0.9,9.7L1130.5,526.6z M1128.6,507.5c-0.4-3.2-0.8-6.4-1.3-9.6
				l3-0.4c0.5,3.2,0.9,6.4,1.3,9.6L1128.6,507.5z M1125.8,488.4c-0.5-3.2-1.1-6.4-1.7-9.5l2.9-0.6c0.6,3.2,1.2,6.4,1.7,9.6
				L1125.8,488.4z M1122.2,469.5c-0.7-3.1-1.4-6.3-2.1-9.4l2.9-0.7c0.8,3.1,1.5,6.3,2.2,9.5L1122.2,469.5z M1117.7,450.7
				c-0.8-3.1-1.7-6.2-2.6-9.3l2.9-0.9c0.9,3.1,1.8,6.2,2.6,9.3L1117.7,450.7z M1112.2,432.3c-1-3.1-2.1-6.1-3.1-9.1l2.8-1
				c1.1,3,2.1,6.1,3.2,9.2L1112.2,432.3z M1105.7,414.2c-1.2-3-2.4-6-3.7-8.9l2.8-1.2c1.3,2.9,2.5,6,3.7,9L1105.7,414.2z
				 M1098,396.5c-1.4-2.9-2.8-5.8-4.3-8.6l2.7-1.4c1.5,2.8,2.9,5.8,4.3,8.7L1098,396.5z M1089.2,379.5c-1.6-2.8-3.3-5.6-4.9-8.2
				l2.5-1.6c1.7,2.7,3.4,5.5,5,8.3L1089.2,379.5z M1078.9,363.2c-1.9-2.7-3.8-5.3-5.7-7.7l2.4-1.8c2,2.5,3.9,5.1,5.8,7.8
				L1078.9,363.2z M1067.1,348.1c-2.1-2.4-4.3-4.8-6.5-7l2.1-2.1c2.2,2.3,4.5,4.7,6.7,7.1L1067.1,348.1z M1053.6,334.6
				c-2.4-2.1-4.9-4.1-7.4-6l1.8-2.4c2.6,1.9,5.1,3.9,7.6,6.1L1053.6,334.6z M1038.3,323.3c-2.8-1.7-5.6-3.2-8.4-4.5l1.3-2.7
				c2.9,1.4,5.8,2.9,8.6,4.6L1038.3,323.3z M1021.1,315.3c-3-1-6.1-1.9-9.1-2.5l0.6-2.9c3.2,0.7,6.4,1.5,9.5,2.6L1021.1,315.3z
				 M974.6,314.7l-0.9-2.9c3.2-1,6.4-1.8,9.6-2.3l0.5,3C980.7,312.9,977.6,313.7,974.6,314.7z M1002.6,311.4
				c-1.9-0.2-3.9-0.2-5.8-0.2c-1.2,0-2.4,0-3.6,0.1l-0.2-3c1.3-0.1,2.6-0.1,3.8-0.1c2,0,4,0.1,6,0.2L1002.6,311.4z"/>
		</g>
		<g>
			<path class="st12" d="M953,806.1c-1.4-0.9-2.8-1.8-4.3-2.8l1.7-2.5c1.4,0.9,2.8,1.8,4.1,2.7L953,806.1z"/>
		</g>
	</g>
	<g>
		<g>
			<path class="st12" d="M1261.1,211.6l-2.2-2.1c1.2-1.2,2.4-2.4,3.5-3.6l2.1,2.1C1263.5,209.2,1262.3,210.4,1261.1,211.6z"/>
		</g>
		<g>
			<path class="st12" d="M1271.7,201.5l-2-2.3c2.5-2.2,5-4.3,7.6-6.3l1.8,2.4C1276.6,197.3,1274.1,199.4,1271.7,201.5z
				 M1286.9,189.8l-1.7-2.5c2.8-1.8,5.6-3.6,8.4-5.1l1.5,2.6C1292.4,186.3,1289.7,188,1286.9,189.8z"/>
		</g>
		<g>
			<path class="st12" d="M1341.8,958.4c-1.7,0-3.4,0-5-0.1l0.2-3c3.2,0.2,6.4,0.2,9.6,0l0.2,3C1345,958.4,1343.4,958.4,1341.8,958.4
				z M1356.4,957.2l-0.5-3c3.1-0.5,6.3-1.2,9.3-2l0.8,2.9C1362.9,956,1359.6,956.7,1356.4,957.2z M1326.9,957.2
				c-3.2-0.5-6.5-1.2-9.7-2.1l0.8-2.9c3.1,0.9,6.2,1.5,9.4,2.1L1326.9,957.2z M1375.4,952l-1.1-2.8c2.9-1.1,5.9-2.4,8.8-3.8l1.3,2.7
				C1381.5,949.6,1378.5,950.9,1375.4,952z M1307.8,951.9c-3-1.2-6.1-2.5-9-4l1.3-2.7c2.9,1.4,5.9,2.7,8.8,3.9L1307.8,951.9z
				 M1393.1,943.4l-1.5-2.6c2.7-1.6,5.4-3.4,8-5.3l1.7,2.5C1398.6,939.9,1395.9,941.7,1393.1,943.4z M1290.1,943.2
				c-2.8-1.7-5.5-3.5-8.2-5.4l1.7-2.4c2.7,1.9,5.4,3.7,8,5.3L1290.1,943.2z M1409.2,932.1l-1.9-2.3c2.4-2,4.9-4.1,7.3-6.3l2,2.2
				C1414.2,927.9,1411.7,930,1409.2,932.1z M1423.6,918.8l-2.1-2.1c2.2-2.3,4.4-4.6,6.6-7.1l2.3,2
				C1428.1,914.1,1425.9,916.5,1423.6,918.8z M1436.6,904.1l-2.3-1.9c2-2.5,4-5,5.9-7.7l2.4,1.8
				C1440.6,899,1438.6,901.6,1436.6,904.1z M1448.3,888.3l-2.5-1.7c1.8-2.6,3.6-5.3,5.3-8.1l2.5,1.6
				C1451.9,882.9,1450.1,885.7,1448.3,888.3z M1458.8,871.8l-2.6-1.5c1.6-2.7,3.2-5.6,4.8-8.4l2.6,1.4
				C1462,866.2,1460.4,869.1,1458.8,871.8z M1468.2,854.7l-2.7-1.4c1.5-2.8,2.9-5.7,4.3-8.7l2.7,1.3
				C1471.1,848.9,1469.7,851.8,1468.2,854.7z M1476.7,837.1l-2.7-1.2c1.3-2.9,2.6-5.9,3.9-8.9l2.8,1.2
				C1479.4,831.2,1478.1,834.2,1476.7,837.1z M1484.4,819.1l-2.8-1.1c1.2-3,2.4-6,3.5-9l2.8,1.1
				C1486.8,813.1,1485.6,816.1,1484.4,819.1z M1491.3,800.8l-2.8-1c1.1-3,2.1-6.1,3.2-9.2l2.8,1
				C1493.5,794.7,1492.4,797.8,1491.3,800.8z M1497.5,782.3l-2.9-0.9c1-3,1.9-6.2,2.8-9.3l2.9,0.9
				C1499.5,776.1,1498.5,779.3,1497.5,782.3z M1503.1,763.6l-2.9-0.8c0.9-3.1,1.7-6.2,2.5-9.4l2.9,0.8
				C1504.8,757.3,1504,760.5,1503.1,763.6z M1508,744.7l-2.9-0.7c0.8-3.1,1.5-6.3,2.2-9.5l2.9,0.7
				C1509.5,738.4,1508.8,741.6,1508,744.7z M1512.4,725.7l-2.9-0.6c0.7-3.1,1.3-6.3,2-9.5l2.9,0.6
				C1513.7,719.3,1513,722.5,1512.4,725.7z M1516.2,706.5l-3-0.5c0.6-3.2,1.1-6.4,1.7-9.6l3,0.5
				C1517.3,700.1,1516.8,703.3,1516.2,706.5z M1519.4,687.3l-3-0.5c0.5-3.2,1-6.4,1.4-9.6l3,0.4
				C1520.4,680.8,1519.9,684.1,1519.4,687.3z M1522.2,667.9l-3-0.4c0.4-3.2,0.8-6.4,1.2-9.7l3,0.3
				C1523,661.5,1522.6,664.7,1522.2,667.9z M1524.4,648.5l-3-0.3c0.3-3.2,0.6-6.4,0.9-9.7l3,0.3
				C1525.1,642.1,1524.8,645.3,1524.4,648.5z M1526.2,629.1l-3-0.2c0.3-3.2,0.5-6.5,0.7-9.7l3,0.2
				C1526.7,622.6,1526.5,625.9,1526.2,629.1z M1527.5,609.6l-3-0.2c0.2-3.2,0.3-6.5,0.5-9.7l3,0.1
				C1527.8,603.1,1527.7,606.4,1527.5,609.6z M1528.3,590.1l-3-0.1c0.1-3.2,0.2-6.5,0.2-9.7l3,0.1
				C1528.5,583.6,1528.4,586.9,1528.3,590.1z M1528.7,570.6l-3,0c0-2.3,0-4.6,0-6.9l0-2.8l3,0l0,2.8
				C1528.8,566,1528.7,568.3,1528.7,570.6z M1525.7,551.2c0-3.3-0.1-6.5-0.2-9.7l3-0.1c0.1,3.2,0.2,6.5,0.2,9.8L1525.7,551.2z
				 M1525.2,531.7c-0.1-3.2-0.3-6.5-0.4-9.7l3-0.1c0.2,3.2,0.3,6.5,0.4,9.7L1525.2,531.7z M1524.2,512.3c-0.2-3.2-0.4-6.5-0.7-9.7
				l3-0.2c0.2,3.2,0.5,6.5,0.7,9.7L1524.2,512.3z M1522.8,492.9c-0.3-3.2-0.6-6.5-0.9-9.7l3-0.3c0.3,3.2,0.6,6.5,0.9,9.7
				L1522.8,492.9z M1520.8,473.5c-0.4-3.2-0.7-6.5-1.1-9.7l3-0.4c0.4,3.2,0.8,6.4,1.1,9.7L1520.8,473.5z M1518.5,454.2
				c-0.4-3.2-0.9-6.4-1.4-9.6l3-0.4c0.5,3.2,0.9,6.4,1.4,9.7L1518.5,454.2z M1515.6,435c-0.5-3.2-1.1-6.4-1.6-9.6l3-0.5
				c0.6,3.2,1.1,6.4,1.6,9.6L1515.6,435z M1512.2,415.9c-0.6-3.2-1.3-6.4-1.9-9.5l2.9-0.6c0.7,3.2,1.3,6.4,1.9,9.6L1512.2,415.9z
				 M1508.2,396.8c-0.7-3.1-1.4-6.3-2.2-9.5l2.9-0.7c0.7,3.2,1.5,6.4,2.2,9.5L1508.2,396.8z M1503.7,377.9c-0.8-3.2-1.6-6.3-2.5-9.4
				l2.9-0.8c0.8,3.1,1.7,6.3,2.5,9.4L1503.7,377.9z M1498.7,359.2c-0.9-3.1-1.8-6.2-2.8-9.3l2.9-0.9c0.9,3.1,1.9,6.2,2.8,9.4
				L1498.7,359.2z M1492.9,340.6c-1-3.1-2.1-6.2-3.1-9.2l2.8-1c1.1,3,2.1,6.2,3.1,9.3L1492.9,340.6z M1486.6,322.2
				c-1.1-3-2.3-6.1-3.5-9.1l2.8-1.1c1.2,3,2.3,6.1,3.5,9.1L1486.6,322.2z M1479.5,304.2c-1.2-3-2.5-6-3.8-8.9l2.7-1.2
				c1.3,2.9,2.6,6,3.9,9L1479.5,304.2z M1471.6,286.4c-1.4-2.9-2.8-5.9-4.2-8.7l2.7-1.3c1.4,2.9,2.9,5.8,4.3,8.8L1471.6,286.4z
				 M1462.9,269.1c-1.5-2.9-3.1-5.7-4.7-8.5l2.6-1.5c1.6,2.8,3.2,5.7,4.7,8.6L1462.9,269.1z M1453.3,252.3c-1.7-2.8-3.5-5.5-5.2-8.2
				l2.5-1.7c1.8,2.7,3.5,5.5,5.3,8.3L1453.3,252.3z M1442.5,236.1c-1.9-2.7-3.8-5.3-5.8-7.8l2.4-1.8c2,2.5,3.9,5.2,5.9,7.9
				L1442.5,236.1z M1430.7,220.8c-2.1-2.5-4.3-4.9-6.4-7.2l2.2-2c2.2,2.3,4.4,4.8,6.5,7.3L1430.7,220.8z M1417.5,206.7
				c-2.3-2.3-4.7-4.4-7.1-6.5l2-2.3c2.4,2.1,4.9,4.3,7.3,6.6L1417.5,206.7z M1402.8,194.2c-2.6-2-5.3-3.8-7.9-5.5l1.6-2.5
				c2.7,1.7,5.4,3.6,8.1,5.6L1402.8,194.2z M1386.7,183.8c-2.8-1.5-5.8-2.9-8.6-4.2l1.2-2.8c3,1.3,6,2.7,8.9,4.3L1386.7,183.8z
				 M1303.7,180.4l-1.2-2.7c3-1.4,6.1-2.6,9.2-3.6l1,2.8C1309.7,177.9,1306.7,179.1,1303.7,180.4z M1369.1,176.3
				c-3.1-1-6.2-1.8-9.2-2.4l0.6-2.9c3.2,0.7,6.4,1.5,9.5,2.5L1369.1,176.3z M1321.9,174.3l-0.7-2.9c3.2-0.7,6.5-1.3,9.7-1.7l0.4,3
				C1328.2,173,1325,173.6,1321.9,174.3z M1350.4,172.4c-2.9-0.3-5.8-0.4-8.6-0.4l-0.9,0l0-3l0.9,0c3,0,6,0.1,8.9,0.4L1350.4,172.4z
				"/>
		</g>
		<g>
			<path class="st12" d="M1273.8,931.7c-1.3-1.1-2.6-2.2-3.9-3.3l2-2.3c1.2,1.1,2.5,2.2,3.8,3.2L1273.8,931.7z"/>
		</g>
	</g>
	<g>
		<path class="st13" d="M1488.2,184.8l332.5-128.7c0,0,171.1,388.6,0,1001.9L1497,937.6c0,0,94.2-139.2,92.3-366.6
			S1488.2,184.8,1488.2,184.8z"/>
	</g>
	<g>
		<g>
			<path class="st12" d="M1643.8,80.9l-1.6-2.5c1.4-0.9,2.9-1.8,4.3-2.7l1.5,2.6C1646.6,79.1,1645.2,80,1643.8,80.9z"/>
		</g>
		<g>
			<path class="st12" d="M1656.7,73.8l-1.2-2.7c3.1-1.4,6.3-2.6,9.4-3.6l0.9,2.9C1662.8,71.2,1659.7,72.4,1656.7,73.8z M1675.2,67.9
				l-0.5-3c3.3-0.6,6.7-0.9,10.1-1l0.1,3C1681.7,67,1678.4,67.4,1675.2,67.9z"/>
		</g>
		<g>
			<path class="st12" d="M1687.2,1063.5v-3c3.2,0,6.5-0.2,9.7-0.7l0.4,3C1694,1063.3,1690.6,1063.5,1687.2,1063.5z M1707.2,1060.7
				l-0.8-2.9c3.1-0.9,6.1-1.9,9.2-3.2l1.2,2.8C1713.5,1058.7,1710.3,1059.8,1707.2,1060.7z M1725.7,1052.9l-1.5-2.6
				c2.8-1.5,5.6-3.3,8.3-5.2l1.7,2.5C1731.5,1049.6,1728.6,1051.4,1725.7,1052.9z M1742.3,1041.6l-1.9-2.3c2.5-2,4.9-4.2,7.4-6.5
				l2.1,2.2C1747.3,1037.3,1744.8,1039.5,1742.3,1041.6z M1756.9,1027.8l-2.2-2c2.2-2.3,4.4-4.8,6.5-7.4l2.3,1.9
				C1761.3,1022.9,1759.1,1025.5,1756.9,1027.8z M1769.8,1012.5l-2.4-1.8c1.9-2.6,3.9-5.2,5.8-8l2.5,1.7
				C1773.7,1007.2,1771.7,1009.9,1769.8,1012.5z M1781.2,996.1l-2.5-1.6c1.7-2.7,3.5-5.5,5.2-8.4l2.6,1.5
				C1784.8,990.5,1783,993.4,1781.2,996.1z M1791.5,979l-2.6-1.5c1.6-2.8,3.2-5.8,4.7-8.7l2.7,1.4
				C1794.7,973.2,1793.1,976.1,1791.5,979z M1800.7,961.3l-2.7-1.3c1.4-2.9,2.9-5.9,4.3-9l2.7,1.3
				C1803.6,955.3,1802.2,958.3,1800.7,961.3z M1809.1,943.1l-2.8-1.2c1.3-3,2.6-6.1,3.9-9.1l2.8,1.1
				C1811.7,937,1810.4,940.1,1809.1,943.1z M1816.7,924.7l-2.8-1.1c1.2-3,2.4-6.2,3.5-9.3l2.8,1
				C1819.1,918.5,1817.9,921.6,1816.7,924.7z M1823.6,906l-2.8-1c1.1-3.1,2.2-6.2,3.2-9.4l2.8,0.9
				C1825.8,899.7,1824.7,902.9,1823.6,906z M1829.9,887.1l-2.9-0.9c1-3.1,2-6.3,2.9-9.5l2.9,0.9
				C1831.9,880.7,1830.9,883.9,1829.9,887.1z M1835.7,868l-2.9-0.8c0.9-3.2,1.8-6.3,2.7-9.6l2.9,0.8
				C1837.5,861.6,1836.6,864.8,1835.7,868z M1840.9,848.7l-2.9-0.8c0.8-3.2,1.6-6.4,2.4-9.6l2.9,0.7
				C1842.6,842.3,1841.7,845.6,1840.9,848.7z M1845.7,829.4l-2.9-0.7c0.8-3.2,1.5-6.4,2.2-9.7l2.9,0.7
				C1847.2,822.9,1846.4,826.2,1845.7,829.4z M1850,809.9l-2.9-0.6c0.7-3.2,1.4-6.5,2-9.7l2.9,0.6
				C1851.4,803.5,1850.7,806.7,1850,809.9z M1854,790.4l-2.9-0.6c0.6-3.2,1.2-6.5,1.8-9.8l3,0.5
				C1855.2,783.9,1854.6,787.2,1854,790.4z M1857.5,770.8l-3-0.5c0.6-3.2,1.1-6.5,1.6-9.8l3,0.5
				C1858.6,764.3,1858,767.5,1857.5,770.8z M1860.6,751.1l-3-0.4c0.5-3.3,1-6.5,1.4-9.8l3,0.4
				C1861.6,744.6,1861.1,747.9,1860.6,751.1z M1863.4,731.4l-3-0.4c0.4-3.3,0.9-6.6,1.3-9.9l3,0.4
				C1864.3,724.8,1863.9,728.1,1863.4,731.4z M1865.9,711.6l-3-0.3c0.4-3.3,0.7-6.6,1.1-9.9l3,0.3
				C1866.6,705,1866.3,708.3,1865.9,711.6z M1868,691.8l-3-0.3c0.3-3.3,0.6-6.6,0.9-9.9l3,0.3C1868.6,685.2,1868.3,688.5,1868,691.8
				z M1869.8,672l-3-0.2c0.3-3.3,0.5-6.6,0.8-9.9l3,0.2C1870.3,665.4,1870.1,668.7,1869.8,672z M1871.3,652.1l-3-0.2
				c0.2-3.3,0.4-6.6,0.6-9.9l3,0.2C1871.7,645.5,1871.5,648.8,1871.3,652.1z M1872.5,632.2l-3-0.2c0.2-3.3,0.3-6.6,0.5-9.9l3,0.1
				C1872.8,625.6,1872.6,628.9,1872.5,632.2z M1873.3,612.3l-3-0.1c0.1-3.3,0.2-6.6,0.3-9.9l3,0.1
				C1873.5,605.7,1873.4,609,1873.3,612.3z M1873.9,592.4l-3-0.1c0.1-3.3,0.1-6.6,0.2-9.9l3,0C1874,585.8,1874,589.1,1873.9,592.4z
				 M1874.2,572.5l-3,0c0-2.9,0-5.9,0-8.8l0-1.1l3,0l0,1.1C1874.2,566.6,1874.2,569.6,1874.2,572.5z M1871.1,552.6
				c0-3.3-0.1-6.6-0.1-9.9l3,0c0.1,3.3,0.1,6.6,0.1,10L1871.1,552.6z M1870.8,532.8c-0.1-3.3-0.2-6.6-0.3-9.9l3-0.1
				c0.1,3.3,0.2,6.6,0.3,10L1870.8,532.8z M1870.2,512.9c-0.1-3.3-0.3-6.6-0.4-9.9l3-0.1c0.1,3.3,0.3,6.6,0.4,9.9L1870.2,512.9z
				 M1869.3,493c-0.2-3.3-0.4-6.6-0.6-9.9l3-0.2c0.2,3.3,0.4,6.6,0.6,9.9L1869.3,493z M1868.1,473.2c-0.2-3.3-0.5-6.6-0.7-9.9l3-0.2
				c0.3,3.3,0.5,6.6,0.7,9.9L1868.1,473.2z M1866.6,453.4c-0.3-3.3-0.6-6.6-0.9-9.9l3-0.3c0.3,3.3,0.6,6.6,0.9,9.9L1866.6,453.4z
				 M1864.8,433.6c-0.3-3.3-0.7-6.6-1-9.9l3-0.3c0.4,3.3,0.7,6.6,1,9.9L1864.8,433.6z M1862.7,413.9c-0.4-3.3-0.8-6.6-1.2-9.9l3-0.4
				c0.4,3.3,0.8,6.6,1.2,9.9L1862.7,413.9z M1860.2,394.1c-0.4-3.3-0.9-6.6-1.4-9.8l3-0.4c0.5,3.3,0.9,6.6,1.4,9.9L1860.2,394.1z
				 M1857.3,374.5c-0.5-3.3-1-6.6-1.5-9.8l3-0.5c0.5,3.3,1,6.5,1.6,9.8L1857.3,374.5z M1854.1,354.9c-0.6-3.3-1.1-6.5-1.7-9.8l3-0.5
				c0.6,3.2,1.2,6.5,1.7,9.8L1854.1,354.9z M1850.6,335.3c-0.6-3.3-1.3-6.5-1.9-9.7l2.9-0.6c0.7,3.2,1.3,6.5,1.9,9.8L1850.6,335.3z
				 M1846.6,315.9c-0.7-3.3-1.4-6.5-2.1-9.7l2.9-0.7c0.7,3.2,1.4,6.5,2.1,9.7L1846.6,315.9z M1842.3,296.5c-0.8-3.2-1.6-6.5-2.4-9.6
				l2.9-0.7c0.8,3.2,1.6,6.4,2.4,9.7L1842.3,296.5z M1837.4,277.2c-0.8-3.2-1.7-6.4-2.6-9.6l2.9-0.8c0.9,3.2,1.7,6.4,2.6,9.6
				L1837.4,277.2z M1832.2,258.1c-0.9-3.2-1.9-6.4-2.8-9.5l2.9-0.9c1,3.2,1.9,6.4,2.8,9.6L1832.2,258.1z M1826.4,239.1
				c-1-3.2-2.1-6.3-3.1-9.4l2.8-1c1,3.1,2.1,6.3,3.1,9.5L1826.4,239.1z M1820,220.3c-1.1-3.1-2.3-6.3-3.4-9.3l2.8-1.1
				c1.1,3.1,2.3,6.2,3.4,9.4L1820,220.3z M1813.1,201.7c-1.2-3.1-2.5-6.2-3.7-9.2l2.8-1.2c1.3,3,2.5,6.1,3.7,9.2L1813.1,201.7z
				 M1805.4,183.4c-1.3-3.1-2.7-6.1-4.1-9l2.7-1.3c1.4,3,2.8,6,4.1,9.1L1805.4,183.4z M1797,165.4c-1.5-3-3-6-4.5-8.8l2.7-1.4
				c1.5,2.9,3.1,5.9,4.6,8.9L1797,165.4z M1787.8,147.9c-1.6-2.9-3.3-5.8-5-8.5l2.6-1.6c1.7,2.8,3.4,5.7,5.1,8.6L1787.8,147.9z
				 M1777.5,131c-1.8-2.8-3.7-5.5-5.6-8.2l2.4-1.7c1.9,2.7,3.8,5.4,5.6,8.3L1777.5,131z M1766,114.9c-2.1-2.6-4.2-5.2-6.2-7.6l2.3-2
				c2.1,2.5,4.3,5.1,6.3,7.8L1766,114.9z M1753.1,100c-2.3-2.4-4.7-4.7-7-6.9l2-2.2c2.4,2.2,4.8,4.6,7.2,7L1753.1,100z M1738.6,86.7
				c-2.6-2.1-5.3-4-7.9-5.7l1.7-2.5c2.7,1.8,5.5,3.8,8.1,5.9L1738.6,86.7z M1722.3,76c-2.9-1.5-5.9-2.9-8.9-4l1.1-2.8
				c3.1,1.2,6.1,2.6,9.2,4.2L1722.3,76z M1704.2,69c-3.2-0.8-6.4-1.4-9.5-1.7l0.3-3c3.3,0.4,6.6,1,9.9,1.8L1704.2,69z"/>
		</g>
		<g>
			<path class="st12" d="M1676.7,1062.7c-1.7-0.2-3.4-0.6-5-0.9l0.6-2.9c1.6,0.3,3.2,0.6,4.8,0.9L1676.7,1062.7z"/>
		</g>
	</g>
	<g>
		<circle class="st2" cx="457.9" cy="304.7" r="5.1"/>
	</g>
	<g>
		<circle class="st2" cx="200.7" cy="148.6" r="11.2"/>
	</g>
	<g>
		<circle class="st7" cx="364.7" cy="268.4" r="10.7"/>
	</g>
	<g>
		<path class="st2" d="M438.2,160.5l0.1-12.5l-10.3-7.1L440,137l3.6-12l7.3,10.2l12.5-0.3L456,145l4.1,11.8l-11.9-3.9L438.2,160.5z
			 M434.8,141.8l6.6,4.6l0,8l6.4-4.8l7.6,2.5l-2.6-7.6l4.7-6.4l-8,0.2l-4.7-6.5l-2.3,7.7L434.8,141.8z"/>
	</g>
	<g>
		<path class="st2" d="M1034.4,498.5l-4.2-12.1l-12.4-3.4l10.2-7.8l-0.6-12.8l10.6,7.3l12-4.5l-3.7,12.3l8,10l-12.9,0.3
			L1034.4,498.5z M1024.4,481.7l8.1,2.2l2.8,7.9l4.6-7l8.4-0.2l-5.2-6.5l2.4-8l-7.8,3l-6.9-4.8l0.4,8.3L1024.4,481.7z"/>
	</g>
	<g>
		<path class="st2" d="M731.6,772.3c-3.2,0-5.9-2.6-5.9-5.9s2.6-5.9,5.9-5.9s5.9,2.6,5.9,5.9S734.9,772.3,731.6,772.3z M731.6,763.6
			c-1.6,0-2.9,1.3-2.9,2.9s1.3,2.9,2.9,2.9s2.9-1.3,2.9-2.9S733.2,763.6,731.6,763.6z"/>
	</g>
	<g>
		<path class="st2" d="M872.3,699.2c-7.5,0-13.7-6.1-13.7-13.7c0-7.5,6.1-13.7,13.7-13.7c7.5,0,13.7,6.1,13.7,13.7
			C886,693.1,879.9,699.2,872.3,699.2z M872.3,674.9c-5.9,0-10.7,4.8-10.7,10.7c0,5.9,4.8,10.7,10.7,10.7c5.9,0,10.7-4.8,10.7-10.7
			C883,679.7,878.2,674.9,872.3,674.9z"/>
	</g>
	<g>
		<path class="st2" d="M684,382.3c-3.1,0-5.6-2.5-5.6-5.6s2.5-5.6,5.6-5.6s5.6,2.5,5.6,5.6S687.1,382.3,684,382.3z M684,374
			c-1.4,0-2.6,1.2-2.6,2.6s1.2,2.6,2.6,2.6s2.6-1.2,2.6-2.6S685.4,374,684,374z"/>
	</g>
	<g>
		<path class="st2" d="M654.7,759.7c-1.7,0-3-1.4-3-3s1.4-3,3-3c1.7,0,3,1.4,3,3S656.4,759.7,654.7,759.7z M654.7,756.7L654.7,756.7
			C654.8,756.7,654.8,756.7,654.7,756.7z"/>
	</g>
	<g>
		<path class="st2" d="M834.7,863c-2.4,0-4.3-1.9-4.3-4.3c0-2.4,1.9-4.3,4.3-4.3c2.4,0,4.3,1.9,4.3,4.3
			C839.1,861.1,837.1,863,834.7,863z M834.7,857.3c-0.7,0-1.3,0.6-1.3,1.3c0,0.7,0.6,1.3,1.3,1.3c0.7,0,1.3-0.6,1.3-1.3
			C836.1,857.9,835.5,857.3,834.7,857.3z"/>
	</g>
	<g>
		<path class="st2" d="M812.5,925.2c-4.3,0-7.7-3.5-7.7-7.7c0-4.3,3.5-7.7,7.7-7.7s7.7,3.5,7.7,7.7
			C820.2,921.8,816.8,925.2,812.5,925.2z M812.5,912.8c-2.6,0-4.7,2.1-4.7,4.7s2.1,4.7,4.7,4.7s4.7-2.1,4.7-4.7
			S815.1,912.8,812.5,912.8z"/>
	</g>
	<g>
		<polyline class="st1" points="116.5,455 -168.5,329.7 -164.3,312.1 		"/>
	</g>
	<g>
		<polyline class="st14" points="131.6,502.7 -179.3,517.7 -183.5,500.1 		"/>
	</g>
	<g>
		<polyline class="st2" points="141.5,595.6 -140.8,840 -147.8,825.7 		"/>
	</g>
	<path class="st15" d="M1081.6,333.3l318.5-116.7c0,0,95.8,132.1,92.8,342.4c-1.5,99.1-18.5,238.6-92.8,342.6l-307.6-108.2
		c0,0,65.4-74.1,63.5-229.6S1081.6,333.3,1081.6,333.3z"/>
	<g>
		<g>
			<defs>
				<path id="SVGID_1_" d="M535.5,559.4c13,0,22.2,1.9,28.8,4.5v-10.7c-5.6-1.8-14.4-3.6-28.5-3.6c-17.9,0-26.5,3.6-30.8,7.9
					c-3.9,4-6,9.2-6,16c0,6.7,2,12.1,6,16c4.3,4.4,12.7,7.9,30.2,7.9c14,0,22.6-1.9,28-7.3c2.9-2.9,4.5-7.1,4.5-14.2v-5.9h-39.1v8.9
					H556c0.1,1.1,0.1,3.4-1.5,4.9c-2.8,2.8-9.9,3.8-19.2,3.8c-11.4,0-17.4-2.1-20.2-4.9c-2-2.1-3.1-5.1-3.1-9.2
					c0-4.1,1.1-7.2,3.4-9.5C517.7,561.4,523.7,559.4,535.5,559.4C535.5,559.4,523.7,559.4,535.5,559.4z"/>
			</defs>
			<use xlink:href="#SVGID_1_"  style="overflow:visible;fill-rule:evenodd;clip-rule:evenodd;fill:#F6F6F6;"/>
			<clipPath id="SVGID_00000079464811357243038860000016286786498778713766_">
				<use xlink:href="#SVGID_1_"  style="overflow:visible;"/>
			</clipPath>
			<g style="clip-path:url(#SVGID_00000079464811357243038860000016286786498778713766_);">
				<defs>
					<rect id="SVGID_00000150783844230598151130000012881541103916427942_" x="123.7" y="283" width="1075.1" height="669.4"/>
				</defs>
				<use xlink:href="#SVGID_00000150783844230598151130000012881541103916427942_"  style="overflow:visible;fill:#F6F6F6;"/>
				<clipPath id="SVGID_00000044872492864661627710000000741029680230140852_">
					<use xlink:href="#SVGID_00000150783844230598151130000012881541103916427942_"  style="overflow:visible;"/>
				</clipPath>
				
					<rect x="495.3" y="545.8" style="clip-path:url(#SVGID_00000044872492864661627710000000741029680230140852_);fill:#F6F6F6;" width="76.1" height="55.1"/>
			</g>
		</g>
		<g>
			<defs>
				<polygon id="SVGID_00000091006057278557276040000012213264621871439033_" points="753.8,551.2 739.2,551.2 715.9,586.1 
					692.7,551.2 677.5,551.2 707.9,595.6 723.3,595.6 				"/>
			</defs>
			
				<use xlink:href="#SVGID_00000091006057278557276040000012213264621871439033_"  style="overflow:visible;fill-rule:evenodd;clip-rule:evenodd;fill:#F6F6F6;"/>
			<clipPath id="SVGID_00000032622206164881215080000004386447297185591438_">
				<use xlink:href="#SVGID_00000091006057278557276040000012213264621871439033_"  style="overflow:visible;"/>
			</clipPath>
			<g style="clip-path:url(#SVGID_00000032622206164881215080000004386447297185591438_);">
				<defs>
					<rect id="SVGID_00000149359965551594482770000006222114188008255642_" x="123.7" y="283" width="1075.1" height="669.4"/>
				</defs>
				<use xlink:href="#SVGID_00000149359965551594482770000006222114188008255642_"  style="overflow:visible;fill:#F6F6F6;"/>
				<clipPath id="SVGID_00000091006983008313266330000014244362910738169221_">
					<use xlink:href="#SVGID_00000149359965551594482770000006222114188008255642_"  style="overflow:visible;"/>
				</clipPath>
				
					<rect x="673.7" y="547.5" style="clip-path:url(#SVGID_00000091006983008313266330000014244362910738169221_);fill:#F6F6F6;" width="83.8" height="51.8"/>
			</g>
		</g>
		<g>
			<defs>
				<polygon id="SVGID_00000055676409593151793190000005414445786801709987_" points="673.7,520.5 661,520.5 578.6,625.8 
					591.4,625.8 				"/>
			</defs>
			<use xlink:href="#SVGID_00000055676409593151793190000005414445786801709987_"  style="overflow:visible;fill:#FF5720;"/>
			<clipPath id="SVGID_00000032634327048566407570000003813358661773392827_">
				<use xlink:href="#SVGID_00000055676409593151793190000005414445786801709987_"  style="overflow:visible;"/>
			</clipPath>
			<g style="clip-path:url(#SVGID_00000032634327048566407570000003813358661773392827_);">
				<defs>
					<rect id="SVGID_00000097472415869578232170000001204544340589061773_" x="123.7" y="283" width="1075.1" height="669.4"/>
				</defs>
				<use xlink:href="#SVGID_00000097472415869578232170000001204544340589061773_"  style="overflow:visible;fill:#FF5720;"/>
				<clipPath id="SVGID_00000083786004652248918810000003293247419854850745_">
					<use xlink:href="#SVGID_00000097472415869578232170000001204544340589061773_"  style="overflow:visible;"/>
				</clipPath>
				
					<rect x="574.9" y="516.8" style="clip-path:url(#SVGID_00000083786004652248918810000003293247419854850745_);fill:#FF5720;" width="102.5" height="112.8"/>
			</g>
		</g>
		<g>
			<defs>
				<path id="SVGID_00000065775832348599807160000016916844151010727854_" d="M625.3,587c-11.2,0-17-2.4-19.5-4.9
					c-1.9-1.9-3.3-4.5-3.3-9.2s1.2-7.4,3.2-9.4c2.6-2.6,8.3-4.6,19.6-4.6c11.2,0,16.9,2.1,19.4,4.8c2.1,2.1,3.3,4.5,3.3,9.3
					c0,4.8-1.2,7.4-3.2,9.4C642.2,585,636.6,587,625.3,587z M655,557.5c-4.1-4.2-12.1-8-29.7-8c-16.9,0-25.5,3.7-29.7,8
					c-3.8,3.9-5.9,8.7-5.9,15.9c0,7.2,2.1,11.9,5.9,15.8c4.1,4.2,12.5,8,29.7,8c17.2,0,25.5-3.8,29.7-8c3.8-3.9,5.9-8.7,5.9-15.9
					S658.8,561.4,655,557.5z"/>
			</defs>
			
				<use xlink:href="#SVGID_00000065775832348599807160000016916844151010727854_"  style="overflow:visible;fill-rule:evenodd;clip-rule:evenodd;fill:#F6F6F6;"/>
			<clipPath id="SVGID_00000139287661556133276440000008697588971876972196_">
				<use xlink:href="#SVGID_00000065775832348599807160000016916844151010727854_"  style="overflow:visible;"/>
			</clipPath>
			<g style="clip-path:url(#SVGID_00000139287661556133276440000008697588971876972196_);">
				<defs>
					<rect id="SVGID_00000104693085050624631930000001024287519037308306_" x="123.7" y="283" width="1075.1" height="669.4"/>
				</defs>
				<use xlink:href="#SVGID_00000104693085050624631930000001024287519037308306_"  style="overflow:visible;fill:#F6F6F6;"/>
				<clipPath id="SVGID_00000062907295155917928050000001742446098367499658_">
					<use xlink:href="#SVGID_00000104693085050624631930000001024287519037308306_"  style="overflow:visible;"/>
				</clipPath>
				
					<rect x="586" y="545.8" style="clip-path:url(#SVGID_00000062907295155917928050000001742446098367499658_);fill:#F6F6F6;" width="78.7" height="55.2"/>
			</g>
		</g>
	</g>
	<polygon class="st10" points="440.1,537.9 447.5,537.6 453.5,533.4 453.7,540.8 457.9,546.8 450.6,547.1 444.6,551.2 444.3,543.9 	
		"/>
	<g>
		<polygon class="st2" points="747.4,485 746.4,494.7 750.8,503.4 741.1,502.4 732.4,506.8 733.4,497.1 729,488.4 738.7,489.4 		"/>
	</g>
	<g>
		<path class="st24" d="M445.9,762.1c0,0,44.1,25.5,0,69.6s0,72.9,0,72.9s45.6,30.3,0,75.9c-45.6,45.6,0,80.1,0,80.1"/>
		<path class="st25" d="M472.1,762.1c0,0,44.1,25.5,0,69.6s0,72.9,0,72.9s45.6,30.3,0,75.9c-45.6,45.6,0,80.1,0,80.1"/>
		<path class="st25" d="M510.3,762.1c0,0,44.1,25.5,0,69.6c-44.1,44.1,0,72.9,0,72.9s45.6,30.3,0,75.9c-45.6,45.6,0,80.1,0,80.1"/>
	</g>
	<g>
		<path class="st5" d="M468.5,337.9c-0.8-0.1-20.6-2.5-30.3-18.7c-7.2-12-6.9-28,0.9-47.8c7.2-18.2,7.5-33.2,1.1-44.6
			c-9-15.9-28.5-19.4-28.7-19.5c-0.9-0.2-22.4-4.1-32.7-22.5c-7.3-13-7-29.8,0.9-49.8c7.2-18.4,7.6-34.1,1-46.7
			c-9.7-18.6-31.4-24-31.7-24.1l0.9-3.9c1,0.2,23.7,5.9,34.3,26.1c7.1,13.6,6.8,30.5-0.9,50c-7.4,18.8-7.8,34.4-1.1,46.4
			c9.4,16.7,29.7,20.5,29.9,20.5c0.9,0.1,21.5,3.8,31.5,21.4c7.1,12.5,6.8,28.7-0.8,48.1c-7.3,18.5-7.7,33.4-1.2,44.2
			c8.7,14.5,27.2,16.8,27.4,16.8L468.5,337.9z"/>
	</g>
	<g>
		<path class="st5" d="M426.6,355.3c-0.8-0.1-20.6-2.5-30.3-18.7c-7.2-12-6.9-28,0.9-47.8c7.2-18.2,7.5-33.2,1.1-44.6
			c-9-15.9-28.5-19.4-28.7-19.5c-0.9-0.2-22.4-4.1-32.7-22.5c-7.3-13-7-29.8,0.9-49.8c7.2-18.4,7.6-34.1,1-46.7
			c-9.7-18.6-31.4-24-31.7-24.1l0.9-3.9c1,0.2,23.7,5.9,34.3,26.1c7.1,13.6,6.8,30.5-0.9,50c-7.4,18.8-7.8,34.4-1.1,46.3
			c9.4,16.7,29.7,20.5,29.9,20.6c0.9,0.1,21.5,3.8,31.5,21.4c7.1,12.5,6.8,28.7-0.8,48.1c-7.3,18.5-7.7,33.4-1.2,44.3
			c8.7,14.5,27.1,16.8,27.3,16.8L426.6,355.3z"/>
	</g>
	<g>
		<g>
			<path class="st12" d="M872.9,893c-2.7,0-35.5-1-54.6-44.7c-19.4-44.1-55.2-45.5-55.5-45.6c-0.4,0-39.1-1.7-59.7-48.7
				C683,708.3,642.3,704,641.9,704l0.2-2c0.4,0,42.2,4.4,62.8,51.3c20.1,45.8,57.5,47.5,57.9,47.5c0.4,0,37.4,1.4,57.3,46.7
				c19.4,44.2,52.6,43.5,52.9,43.5l0.1,2C873.1,893,873,893,872.9,893z"/>
		</g>
		<g>
			<path class="st12" d="M864.4,903.9c-2.8,0-35.8-1-55.1-45c-5.6-12.6-16.1-29.7-34.8-39.3c-11.2-5.7-20.2-6-20.3-6
				c-0.4,0-39.4-1.7-60.1-49c-20-45.5-60.4-49.8-60.8-49.8l0.3-3c0.4,0,42.5,4.4,63.2,51.6c20,45.5,57.1,47.2,57.4,47.2
				c0.4,0,37.7,1.4,57.7,47c10,22.9,23.8,33.4,33.5,38.2c10.5,5.2,18.8,5,18.9,5l0.1,3C864.6,903.9,864.5,903.9,864.4,903.9z"/>
		</g>
		<g>
			<path class="st12" d="M855.3,912.5c-2.8,0-35.8-1-55.1-45c-5.6-12.6-16.1-29.7-34.8-39.3c-11.2-5.7-20.2-6-20.3-6
				c-0.4,0-39.4-1.7-60.1-49c-20-45.5-60.4-49.8-60.8-49.8l0.3-3c0.4,0,42.5,4.4,63.2,51.6c20,45.5,57.1,47.2,57.4,47.2
				c0.4,0,37.7,1.4,57.7,47c10,22.9,23.8,33.4,33.5,38.2c10.5,5.2,18.8,5,18.9,5l0.1,3C855.5,912.5,855.4,912.5,855.3,912.5z"/>
		</g>
	</g>
	<g>
		<g>
			<path class="st5" d="M1329.7,474.2c-51.3,0-93.1-41.8-93.1-93.1s41.8-93.1,93.1-93.1c33.3,0,64.3,18,80.9,46.9l-3.5,2
				c-15.9-27.7-45.5-44.9-77.4-44.9c-49.1,0-89.1,40-89.1,89.1s40,89.1,89.1,89.1c31.9,0,61.5-17.2,77.4-44.9l3.5,2
				C1394,456.3,1363,474.2,1329.7,474.2z"/>
		</g>
		<g>
			<path class="st7" d="M1329.7,311.4c-38.5,0-69.8,31.2-69.8,69.8c0,38.5,31.2,69.8,69.8,69.8c26,0,48.6-14.2,60.6-35.2l-0.2-0.1
				l-59.6-34.4l59.6-34.4l0.2-0.1C1378.3,325.6,1355.7,311.4,1329.7,311.4z"/>
		</g>
		<g>
			<path class="st0" d="M1408.8,335.9"/>
		</g>
		<g>
			<path class="st7" d="M1385.3,381.1l67-31.8l67-31.8c0,0,32.6,18.3,32.6,66.1c0,47.9-32.6,61.3-32.6,61.3l-67-31.8L1385.3,381.1z"
				/>
		</g>
		<g>
			<path class="st2" d="M1518,437.7l-119.2-56.6l119.3-56.6l0.5,0.3c0.3,0.2,28.9,16.7,28.9,58.5c0,21.9-7.9,35.5-14.4,43
				c-7.2,8.2-14.3,11.2-14.6,11.3L1518,437.7z M1403.5,381.1l114.6,54.4c3.4-1.6,27.4-14.4,27.4-52.3c0-37.8-23.9-54.3-27.5-56.5
				L1403.5,381.1z"/>
		</g>
		<g>
			<circle class="st26" cx="1350.9" cy="335.2" r="5.3"/>
		</g>
		<g>
			<circle class="st26" cx="1319.8" cy="365.1" r="5.3"/>
		</g>
		<g>
			<circle class="st26" cx="1515.3" cy="335.9" r="5.3"/>
		</g>
		<g>
			<circle class="st2" cx="1515.3" cy="419.3" r="5.3"/>
		</g>
		<g>
			<circle class="st2" cx="1280.5" cy="397.4" r="5.3"/>
		</g>
		<g>
			<circle class="st2" cx="1361.6" cy="427.4" r="5.3"/>
		</g>
		<g>
			<circle class="st26" cx="1475.5" cy="400.1" r="5.3"/>
		</g>
		<g>
			<circle class="st26" cx="1268.1" cy="361.1" r="9.4"/>
		</g>
		<g>
			<circle class="st26" cx="1322.2" cy="406.8" r="9.4"/>
		</g>
		<g>
			<circle class="st26" cx="1529.4" cy="383.6" r="9.4"/>
		</g>
		<g>
			<circle class="st2" cx="1485.7" cy="361.1" r="9.4"/>
		</g>
		<g>
			<circle class="st26" cx="1428.7" cy="364.8" r="9.4"/>
		</g>
		<g>
			<circle class="st26" cx="1314.5" cy="448.3" r="9.4"/>
		</g>
		<g>
			<circle class="st2" cx="1312.8" cy="326.5" r="9.4"/>
		</g>
	</g>
	<polygon class="st2" points="903.7,567.8 898.5,538.4 889,547.6 892,534.7 866.1,536.6 888.9,527.9 877.2,521.7 890.4,520.6 
		884.6,508.7 895.9,515.5 898.2,491.6 903.4,514.7 912.9,505.5 909.9,518.4 923,516.5 913,525.2 938.8,531.4 911.5,532.5 
		917.3,544.4 906,537.6 	"/>
	<polygon class="st2" points="1027.8,971.7 988.2,1010.8 1077,1028.4 989.4,1024.7 1019.8,1062.4 982.3,1036.6 996,1122.1 
		969.5,1042.1 957.5,1063.6 955.9,1039 883.1,1087.5 946.7,1028.5 922.5,1023.7 945.5,1014.7 866.1,956.7 952.6,1002.7 934.8,956.7 
		965.4,997.2 989,922.6 979,1000.3 	"/>
	<polygon class="st5" points="835.5,540.2 838.1,549.5 848.3,537.5 840.3,550.5 848.6,549.1 841.5,552.6 855.7,557.8 841.3,555.1 
		843.5,558.7 839.6,556.9 840.8,572 837.3,557.4 834.5,560.6 835,556.4 819.5,563.5 833.8,554.3 825.3,553 834.1,551.8 824.8,541.9 
		835.7,550 	"/>
	<polygon class="st5" points="1355.4,43.3 1363.2,71.7 1394.3,35.2 1369.9,74.7 1395.2,70.4 1373.6,81.1 1416.6,96.9 1372.8,88.4 
		1379.6,99.5 1367.9,93.9 1371.4,140 1360.7,95.4 1352.2,105.3 1353.9,92.4 1306.6,114 1350.3,86 1324.4,82.3 1351,78.6 
		1322.8,48.4 1356,73.2 	"/>
	<polygon class="st4" points="822,288.7 795.5,269.6 794,322.8 787.6,271.7 768.7,293 779.9,268.8 731.8,285.1 775.5,261.9 
		761.9,257 776,253.7 740.8,216.3 781.1,247.4 781.5,232.9 789,245.3 814.9,193.6 796.7,248.2 821.6,233.4 801.1,255.1 846.6,261.5 
		800.6,263.3 	"/>
	<polygon class="st2" points="1169.1,397.5 1175.7,409.5 1187.7,416.1 1175.7,422.7 1169.1,434.8 1162.5,422.7 1150.4,416.1 
		1162.5,409.5 	"/>
	<g>
		<path class="st2" d="M1628.8,234.8l-4.6-8.4l-8.4-4.6l8.4-4.6l4.6-8.4l4.6,8.4l8.4,4.6l-8.4,4.6L1628.8,234.8z M1622,221.8
			l4.4,2.4l2.4,4.4l2.4-4.4l4.4-2.4l-4.4-2.4l-2.4-4.4l-2.4,4.4L1622,221.8z"/>
	</g>
	<g>
		<path class="st1" d="M1420.8,619.2l-7.7-14.2l-14.2-7.7l14.2-7.7l7.7-14.2l7.7,14.2l14.2,7.7l-14.2,7.7L1420.8,619.2z
			 M1403.1,597.3l11.5,6.3l6.3,11.5l6.3-11.5l11.5-6.3l-11.5-6.3l-6.3-11.5l-6.3,11.5L1403.1,597.3z"/>
	</g>
	<polygon class="st1" points="725.2,831.8 724.7,841.7 729.6,850.2 719.8,849.7 711.2,854.7 711.7,844.8 706.8,836.2 716.6,836.7 	
		"/>
	<polygon class="st2" points="1058.5,226.1 1063.2,234.8 1071.9,239.5 1063.2,244.3 1058.5,253 1053.7,244.3 1045,239.5 
		1053.7,234.8 	"/>
	<g>
		<circle class="st4" cx="1010.8" cy="642.7" r="44.3"/>
		<circle class="st27" cx="1010.8" cy="642.7" r="58.1"/>
		<circle class="st5" cx="1010.8" cy="642.7" r="50.7"/>
		<circle class="st28" cx="1010.8" cy="642.7" r="33.8"/>
		<circle class="st4" cx="1010.8" cy="642.7" r="17.8"/>
	</g>
	<g>
		
			<rect x="989.3" y="598.7" transform="matrix(0.5403 -0.8414 0.8414 0.5403 -31.2509 1149.1455)" class="st29" width="93.8" height="9"/>
	</g>
	<g>
		
			<rect x="944" y="709.9" transform="matrix(0.5403 -0.8414 0.8414 0.5403 -157.3264 1140.7266)" class="st29" width="43" height="9"/>
	</g>
	<g>
		<polygon class="st2" points="1717.3,777.1 1722,785.8 1730.7,790.6 1722,795.3 1717.3,804 1712.6,795.3 1703.9,790.6 
			1712.6,785.8 		"/>
		<polygon class="st2" points="1400.1,1015.3 1404.3,1023 1412,1027.2 1404.3,1031.4 1400.1,1039.1 1395.9,1031.4 1388.2,1027.2 
			1395.9,1023 		"/>
		<g>
			<path class="st4" d="M1631.3,861.7c-13.6,13.6-19.8,26.9-18.5,39.7c1.8,17.7,17.9,28.5,18.1,28.6c0.8,0.5,19.3,13,21.4,34.5
				c1.5,15.2-5.5,30.7-21,46.1c-10.6,10.6-16.9,21.4-18.8,32.1c12.3,7,25.9,11.9,40.5,14.2c-0.2-1.4-0.4-2.8-0.5-4.2
				c-1.1-15.6,6-31.2,21.1-46.3c14.1-14.1,20.6-27.9,19.2-41.2c-1.8-18.6-18.6-30-18.8-30.1c-0.7-0.5-18.6-12.4-20.7-32.9
				c-1.5-14.6,5.3-29.6,20.3-44.6c12.4-12.4,18.6-24.2,18.7-35.3c-6.8-1.2-13.8-1.9-21-1.9c-6.6,0-13.2,0.6-19.5,1.6
				C1651.8,834.7,1644.9,848.1,1631.3,861.7z"/>
			<path class="st4" d="M1727.9,834.8c-9.2-5-19.2-8.9-29.6-11.3c-0.5,12.3-7.3,25.2-20.4,38.3c-13.6,13.6-19.8,26.9-18.5,39.7
				c1.8,17.7,17.9,28.5,18.1,28.6c0.8,0.5,19.3,13,21.4,34.5c1.5,15.2-5.5,30.7-21,46.1c-13.8,13.8-20.3,27.8-19.3,41.6
				c0.1,1.9,0.4,3.7,0.8,5.5c3.9,0.4,7.9,0.6,12,0.6c6.8,0,13.4-0.6,19.9-1.7c-0.2-1.3-0.4-2.6-0.5-4c-1.1-15.6,6-31.2,21.1-46.3
				c14.1-14.1,20.6-27.9,19.2-41.2c-1.8-18.6-18.6-30-18.8-30.1c-0.7-0.5-18.6-12.4-20.7-32.9c-1.5-14.6,5.3-29.6,20.3-44.6
				C1719.6,849.7,1724.9,842.1,1727.9,834.8z"/>
			<path class="st4" d="M1733.1,837.8c-3.3,7.8-9,15.8-17.1,23.9c-13.6,13.6-19.8,26.9-18.5,39.7c1.8,17.7,17.9,28.5,18.1,28.6
				c0.8,0.5,19.3,13,21.4,34.5c1.5,15.2-5.5,30.7-21,46.1c-13.8,13.8-20.3,27.8-19.3,41.6c0.1,1.1,0.2,2.2,0.4,3.2
				c53.1-11.8,92.7-59.3,92.7-116.1C1789.8,896.3,1767.1,858.7,1733.1,837.8z"/>
			<path class="st4" d="M1627.1,1006.3c14.1-14.1,20.5-27.9,19.2-41.2c-1.8-18.6-18.6-30-18.8-30.1c-0.7-0.5-18.6-12.4-20.7-32.9
				c-1.5-14.6,5.3-29.6,20.3-44.6c12-12,18.3-23.6,18.7-34.4c-53.2,11.7-93,59.3-93,116.2c0,42,21.7,78.8,54.4,100
				C1609.6,1028.1,1616.3,1017.1,1627.1,1006.3z"/>
		</g>
		<g>
			<path class="st7" d="M1557.5,1014.3c-13.5,0-24.9-2.5-28-10.3c-2.7-6.8,1.9-15.7,13.5-26.4l3.4,3.7c-9.7,8.9-14,16.3-12.2,20.9
				c1.1,2.7,7.7,11.1,48.7,4.9c29.6-4.5,67.1-15.3,105.7-30.3c38.6-15,73.5-32.5,98.3-49.2c34.4-23.2,33.6-33.9,32.6-36.6
				c-2.1-5.3-12.9-7.8-29.6-6.9l-0.3-5c19.9-1,31.5,2.4,34.6,10.1c4.9,12.7-16,30.1-34.4,42.5c-25.1,16.9-60.4,34.6-99.3,49.7
				c-38.9,15.2-76.8,26-106.8,30.6C1575.3,1013.3,1566,1014.3,1557.5,1014.3z"/>
		</g>
		<g>
			<path class="st3" d="M1549.5,1026.4c-18.9,0-36.3-3.6-41-15.7c-4.7-11.9,5.1-28.1,28.1-46.7l5,6.2
				c-27.7,22.3-27.2,33.7-25.7,37.6c3.7,9.4,24.6,12.8,56,9.2c34-3.9,76.7-15.5,120.4-32.5c43.7-17,83-37.5,110.7-57.6
				c25.6-18.6,38.6-35.3,35-44.7c-3.3-8.4-21.1-12.2-47.8-10l-0.6-8c31.7-2.6,51,2.7,55.9,15.1c6.7,17.2-16.8,38.9-37.7,54
				c-28.2,20.5-68.2,41.3-112.5,58.6c-44.3,17.3-87.8,29-122.4,33C1565.3,1025.8,1557.2,1026.4,1549.5,1026.4z"/>
		</g>
	</g>
	<circle class="st2" cx="1234.7" cy="758.7" r="8.8"/>
	<circle class="st2" cx="1495.1" cy="880" r="6.5"/>
	<circle class="st2" cx="1872.7" cy="1037.2" r="10"/>
	<g>
		<path class="st5" d="M1778.3,242.2l-2.5-2.4c3.6-7.1,6.1-19-3.5-28.4c-11-10.8-23.2-6.8-28.5-2.9c-7.2-5.4-17.4-4.9-23.9,1.7
			l-25.3,25.6c-7.1,7.1-7,18.7,0.1,25.7l32.6,32.2c7.1,7.1,18.7,7,25.7-0.1l25.3-25.6C1785.5,260.7,1785.4,249.2,1778.3,242.2z
			 M1747.7,211.8c3.1-1.9,12.2-5.9,21.2,3c7.5,7.4,5.4,16.2,3.2,21.1L1747.7,211.8z"/>
		<g>
			<path class="st6" d="M1776.5,255.7l-3.9,4c-0.9,0.9-2.4,0.9-3.4,0l-39.4-39c-0.9-0.9-0.9-2.4,0-3.4l3.9-4c0.9-0.9,2.4-0.9,3.4,0
				l39.4,39C1777.4,253.2,1777.4,254.7,1776.5,255.7z"/>
			<path class="st6" d="M1760.7,271.7l-3.9,4c-0.9,0.9-2.4,0.9-3.4,0l-39.4-39c-0.9-0.9-0.9-2.4,0-3.4l3.9-4c0.9-0.9,2.4-0.9,3.4,0
				l39.4,39C1761.6,269.2,1761.6,270.7,1760.7,271.7z"/>
			<path class="st6" d="M1744.8,287.6l-3.9,4c-0.9,0.9-2.4,0.9-3.4,0l-39.4-39c-0.9-0.9-0.9-2.4,0-3.4l3.9-4c0.9-0.9,2.4-0.9,3.4,0
				l39.4,39C1745.8,285.2,1745.8,286.7,1744.8,287.6z"/>
		</g>
		<path class="st12" d="M1725.7,183.4c-7.4-6.5-39.9-4.9-39.7,22.5c0.1,16.8-26.3,13.7-21.6,37.7c1.1,3.9,4,8.5,8.2,12.7
			c7.5,7.4,15.7,9.9,19.7,7.2c6.3-4.2,4.7-7.9,0.9-12c1-0.2,1.9-0.5,2.6-1c6.1-4.1,7.7-7.5,4.9-11.3c-1.6-2.2-1.4-4.8,0.2-7.1
			c2.8-4,4.9-2.5,8.2-4.2c3.6-1.8,6.9-3.5,9.9-5.1l14.5,14.4c2.3,2.3,6,2.3,8.3,0c2.3-2.3,2.3-6,0-8.3l-12.3-12.1
			c3.4-2.2,6-4.3,7.8-6.4c2.1,0.8,4.6,0.3,6.3-1.4c2.3-2.3,2.3-6,0-8.3l-9.5-9.4c-0.1-0.1-0.2-0.1-0.2-0.2
			C1731.6,188.8,1728.9,186.3,1725.7,183.4z"/>
	</g>
	<g>
		<path class="st4" d="M765.3,681.6l26.6-23l-17.4-19.1l72.8-31.7l-40,32.1l10.3,16.1L765.3,681.6z M779.5,640.6l16.7,18.2
			l-11.4,9.9l28.5-13.9l-9.9-15.5l24.6-19.7L779.5,640.6z"/>
	</g>
	<g>
		<path class="st4" d="M1663.6,440.9l32.4-28l-22.7-24.8l91.4-39.8l-49.9,40l13.4,21L1663.6,440.9z M1678.3,389.2l21.9,24
			l-17.3,14.9l40.9-20l-13.1-20.4l34.5-27.6L1678.3,389.2z"/>
	</g>
	<g>
		<circle class="st5" cx="1359.9" cy="815.8" r="31.4"/>
		<circle class="st25" cx="1360.5" cy="816.4" r="42.5"/>
		<path class="st4" d="M1373.9,783c-5.8,5.3-8.9,11.8-8.2,16c-4.2-1.1-10.9,1.5-16.7,6.8c-5,4.5-8,9.9-8.3,14
			c-4.1,0-9.7,2.5-14.7,7.1c-7.2,6.6-10.4,15-6.9,18.8c3.4,3.7,12,1.3,19.3-5.3c5-4.5,8-9.9,8.3-14c4.1,0,9.7-2.5,14.7-7.1
			c5.8-5.3,8.9-11.8,8.2-16c4.2,1.1,10.9-1.5,16.7-6.8c7.2-6.6,10.4-15,6.9-18.8S1381.1,776.3,1373.9,783z"/>
		<polygon class="st6" points="1310.4,761.8 1318.2,764.8 1325.2,760.1 1324.7,768.5 1331.3,773.6 1323.2,775.8 1320.4,783.7 
			1315.8,776.6 1307.4,776.3 1312.7,769.8 		"/>
		<circle class="st5" cx="1331.5" cy="864.4" r="3.6"/>
		<circle class="st28" cx="1432.8" cy="830" r="8.9"/>
		<circle class="st2" cx="1386.4" cy="765.9" r="2.9"/>
	</g>
	<path class="st30" d="M1267.7,633.6l-2.4-1.8c-1,1.3-2.1,1.8-3.4,1.3c-2.4-0.9-4.4-4.3-4.2-7.2c0.3-5.5-7-9.2-7-9.2l0,0l-26.3,23.7
		c0.6-5.9-0.1-10.8-4.9-15.6c-8-7.9-20.3-8.4-27.5-1.2s-6.5,19.6,1.4,27.5c7.6,7.6,19.2,8.3,26.5,2l0.1,0.1l32.1-32.4
		c1.3,1,2.7,2.5,2.5,4.9c-0.2,3,1.2,6.3,3.3,8.3c0.8,0.8,1.8,1.5,2.8,1.9C1263.4,636.9,1265.9,636,1267.7,633.6z"/>
	<path class="st3" d="M873.9,425.7l-2.2-0.5c-0.3,1.2-0.9,1.8-1.9,1.9c-1.9,0.2-4.3-1.5-5.1-3.5c-1.5-3.8-7.5-4-7.5-4l0,0L847,443.7
		c-1.4-4.2-3.4-7.3-8.1-9c-7.8-2.8-16.3,0.7-18.8,7.8c-2.6,7.1,1.7,15.2,9.5,18c7.5,2.7,15.5-0.4,18.4-6.9l0.1,0l11.5-31.8
		c1.2,0.2,2.6,0.9,3.2,2.5c0.8,2.1,2.8,3.8,4.8,4.6c0.8,0.3,1.7,0.4,2.5,0.4C872.1,429.2,873.5,427.8,873.9,425.7z"/>
	<path class="st5" d="M1843.5,720.2l-3,0.2c0.1,1.7-0.5,2.7-1.7,3.2c-2.4,0.9-6.1-0.4-7.9-2.7c-3.3-4.4-11.3-2.4-11.3-2.4l0,0
		l-4.5,35.1c-3.4-4.9-7.1-8.2-13.9-8.7c-11.2-0.8-20.9,6.8-21.6,17c-0.7,10.2,7.8,19.1,19,19.9c10.7,0.8,20-6.2,21.5-15.7l0.1,0
		l3.3-45.5c1.6-0.1,3.7,0.2,5.1,2.1c1.8,2.4,5,4,8,4.2c1.2,0.1,2.4,0,3.4-0.4C1842.3,725.5,1843.7,723.2,1843.5,720.2z"/>
	<g>
		<path class="st2" d="M1632.8,500.1l-49.4-5.8c0,0-7.5-6-11,6.7c-3.5,12.7,6,11.4,6,11.4l45.4,20.5c1.4,4.4,4.9,8.1,9.6,9.4
			l85.4,23.7c7.5,2.1,15.2-2.3,17.2-9.8l5.1-18.3c2.1-7.5-2.3-15.2-9.8-17.2l-85.4-23.7C1641.2,495.7,1636.3,497,1632.8,500.1z"/>
		<path class="st14" d="M1708.5,521.8l-8.3,29.8c-0.5,1.7-2.2,2.6-3.8,2.2l-44.5-12.4c-1.7-0.5-2.6-2.2-2.2-3.8l8.3-29.8
			c0.5-1.7,2.2-2.6,3.8-2.2l44.5,12.4C1707.9,518.4,1708.9,520.1,1708.5,521.8z"/>
		<g>
			<g>
				<defs>
					<polygon id="SVGID_00000058567995627855550980000000694752331561759645_" points="1667.1,510.9 1666,514.7 1691,548.5 
						1692.1,544.6 					"/>
				</defs>
				<use xlink:href="#SVGID_00000058567995627855550980000000694752331561759645_"  style="overflow:visible;fill:#FF5720;"/>
				<clipPath id="SVGID_00000117644842664081028430000011030024790814714543_">
					<use xlink:href="#SVGID_00000058567995627855550980000000694752331561759645_"  style="overflow:visible;"/>
				</clipPath>
				<g style="clip-path:url(#SVGID_00000117644842664081028430000011030024790814714543_);">
					<defs>
						
							<rect id="SVGID_00000167383600636507000030000008054280094944445570_" x="1526.6" y="417.6" transform="matrix(0.2675 -0.9636 0.9636 0.2675 738.2786 2016.675)" width="337.8" height="210.3"/>
					</defs>
					<use xlink:href="#SVGID_00000167383600636507000030000008054280094944445570_"  style="overflow:visible;fill:#FF5720;"/>
					<clipPath id="SVGID_00000031192217576950354770000001113174275775084932_">
						<use xlink:href="#SVGID_00000167383600636507000030000008054280094944445570_"  style="overflow:visible;"/>
					</clipPath>
					
						<rect x="1662.9" y="512" transform="matrix(0.2675 -0.9636 0.9636 0.2675 719.5986 2005.8831)" style="clip-path:url(#SVGID_00000031192217576950354770000001113174275775084932_);fill:#FF5720;" width="32.2" height="35.4"/>
				</g>
			</g>
			<g>
				<defs>
					<path id="SVGID_00000158708436858710314480000015789578282110485436_" d="M1683.2,531.1c-0.9,3.4-2.1,5-3.1,5.5
						c-0.8,0.4-1.6,0.6-3.1,0.2s-2.1-1-2.6-1.8c-0.6-1-0.7-2.9,0.2-6.3c0.9-3.4,2.1-4.9,3.1-5.5c0.8-0.4,1.7-0.6,3.1-0.2
						s2.1,1,2.6,1.8C1684,525.8,1684.1,527.7,1683.2,531.1z M1676.7,519.6c-1.6,0.9-3.4,3-4.9,8.3c-1.4,5.1-1,8-0.1,9.7
						c0.9,1.5,2.1,2.5,4.3,3.1c2.2,0.6,3.8,0.4,5.3-0.5c1.6-0.9,3.5-3.1,4.9-8.3c1.4-5.2,1-8,0.1-9.7c-0.9-1.5-2.1-2.5-4.3-3.1
						C1679.8,518.6,1678.2,518.8,1676.7,519.6z"/>
				</defs>
				
					<use xlink:href="#SVGID_00000158708436858710314480000015789578282110485436_"  style="overflow:visible;fill-rule:evenodd;clip-rule:evenodd;fill:#F6F6F6;"/>
				<clipPath id="SVGID_00000026882710741786427890000003641296936078462887_">
					<use xlink:href="#SVGID_00000158708436858710314480000015789578282110485436_"  style="overflow:visible;"/>
				</clipPath>
				<g style="clip-path:url(#SVGID_00000026882710741786427890000003641296936078462887_);">
					<defs>
						
							<rect id="SVGID_00000079479973309799328720000013959434299729545107_" x="1526.6" y="417.6" transform="matrix(0.2675 -0.9636 0.9636 0.2675 738.2786 2016.675)" width="337.8" height="210.3"/>
					</defs>
					<use xlink:href="#SVGID_00000079479973309799328720000013959434299729545107_"  style="overflow:visible;fill:#F6F6F6;"/>
					<clipPath id="SVGID_00000118389386973604346180000005882917220976038078_">
						<use xlink:href="#SVGID_00000079479973309799328720000013959434299729545107_"  style="overflow:visible;"/>
					</clipPath>
					
						<rect x="1666.7" y="521.3" transform="matrix(0.2675 -0.9636 0.9636 0.2675 719.3394 2006.0858)" style="clip-path:url(#SVGID_00000118389386973604346180000005882917220976038078_);fill:#F6F6F6;" width="24.7" height="17.3"/>
				</g>
			</g>
		</g>
	</g>
	<g>
		<polygon class="st5" points="682.4,153.1 673.8,159.4 680.1,171 669.4,163.8 661.4,176.7 663.3,162.2 649.1,160.9 661.7,156.1 
			655.9,143.7 666.1,151.7 674.8,140.9 672.1,153.3 		"/>
	</g>
	<g>
		<polygon class="st2" points="554.7,323 553.9,330.6 557.3,337.4 549.7,336.6 542.9,340 543.7,332.4 540.3,325.7 547.9,326.4 		"/>
	</g>
	<g>
		<path class="st25" d="M1454.7,310.3c0,0,0.8-24.9,26.8-11.8c26,13.1,28-12.3,28-12.3s2.3-26.4,29.2-12.9s30.8-13.6,30.8-13.6"/>
		<path class="st25" d="M1450.3,298.6c0,0,0.8-24.9,26.8-11.8c26,13.1,28-12.3,28-12.3s2.3-26.4,29.2-12.9
			c26.9,13.6,30.8-13.6,30.8-13.6"/>
	</g>
	<g>
		<g>
			<path class="st12" d="M604.2,432.7c0-0.2-0.4-23.9,30.4-25.2c12.2-0.5,20.9-4.8,26-12.7c3.8-5.9,4-11.6,4-11.7
				c0-0.3,1.3-26,33.1-27.4c30-1.3,32.9-25.9,33-26.9l2,0.2c0,0.3-3.1,27.4-34.9,28.7c-12.6,0.5-21.7,5-27,13.2
				c-3.9,6.1-4.2,12.1-4.2,12.2c0,0.2-1.1,25-31.8,26.3c-28.8,1.2-28.6,22.3-28.5,23.2L604.2,432.7z"/>
		</g>
		<g>
			<path class="st12" d="M598.5,424.4c0-0.2-0.4-23.9,30.4-25.2c28.9-1.2,29.9-23.4,29.9-24.4c0-0.3,1.3-26,33.1-27.4
				c12.6-0.5,22-5.2,27.9-14c4.4-6.5,5.1-12.9,5.1-13l2,0.2c0,0.3-3.1,27.4-34.9,28.7c-12.6,0.5-21.7,5-27,13.2
				c-3.9,6.1-4.2,12.1-4.2,12.2c0,0.2-1.1,25-31.8,26.3c-28.8,1.2-28.6,22.3-28.5,23.2L598.5,424.4z"/>
		</g>
	</g>
	<circle class="st35" cx="1249.3" cy="303.6" r="3.7"/>
	<circle class="st35" cx="1684.6" cy="298" r="5.6"/>
	<polygon class="st29" points="1746.4,145 1734,140.4 1731,152.1 1728.6,140.5 1714.7,142.8 1725.9,135.9 1717.7,126.7 
		1728.5,131.2 1732.9,115.1 1733.9,131.2 1746.8,127.9 1736.6,135.8 	"/>
	<g>
		<g>
			<path class="st1" d="M1395.8,710.2c-8.9,0-17.5-4.2-25.5-12.4c-7.7-7.9-15.5-11.7-23.3-11.5c-10.6,0.3-17.6,8.4-17.7,8.4
				c-0.3,0.3-7.5,8.8-19,9.2c-8.4,0.3-16.7-3.7-24.7-12c-7.6-7.8-15-11.4-22.2-11c-9.3,0.6-15,8.1-15,8.1l-2.4-1.8
				c0.3-0.4,6.6-8.6,17.2-9.3c8.1-0.5,16.4,3.5,24.6,11.9c7.4,7.6,15,11.3,22.4,11c10.1-0.4,16.7-8.1,16.8-8.1
				c0.3-0.4,7.9-9.1,19.9-9.5c8.7-0.3,17.3,3.9,25.5,12.4c7.5,7.6,15.3,11.5,23.4,11.5c0,0,0,0,0,0c11.7,0,19.9-8.3,20-8.4l2.2,2.1
				C1417.6,701.3,1408.8,710.2,1395.8,710.2C1395.8,710.2,1395.8,710.2,1395.8,710.2z"/>
		</g>
		<g>
			<path class="st12" d="M1397.6,697.9c-8.9,0-17.5-4.2-25.5-12.4c-7.7-7.9-15.5-11.7-23.3-11.5c-10.6,0.3-17.6,8.4-17.7,8.4
				c-0.3,0.3-7.5,8.8-19,9.2c-8.4,0.3-16.7-3.7-24.7-12c-7.5-7.7-15-11.4-22.2-11c-9.3,0.6-15,8.1-15.1,8.1l-2.4-1.8
				c0.3-0.4,6.6-8.6,17.2-9.3c8.1-0.5,16.4,3.5,24.6,11.9c7.4,7.6,15,11.3,22.4,11c10.1-0.4,16.7-8.1,16.8-8.1
				c0.3-0.4,7.9-9.1,19.9-9.5c8.6-0.3,17.3,3.9,25.5,12.4c7.5,7.6,15.3,11.5,23.4,11.5c0,0,0,0,0,0c11.7,0,19.9-8.3,20-8.4l2.2,2.1
				C1419.4,688.9,1410.6,697.8,1397.6,697.9C1397.6,697.9,1397.6,697.9,1397.6,697.9z"/>
		</g>
	</g>
	<g>
		<path class="st25" d="M1768,716.5c0,0-15.9,24.3-42.2-0.7c-26.3-25.1-44.2-0.8-44.2-0.8s-18.8,25.2-46-0.8
			c-27.2-26-48.5-0.8-48.5-0.8"/>
		<path class="st25" d="M1766.8,730.1c0,0-15.9,24.3-42.2-0.7c-26.3-25.1-44.2-0.8-44.2-0.8s-18.8,25.2-46-0.8s-48.5-0.8-48.5-0.8"
			/>
	</g>
	<g>
		<polygon class="st36" points="1212.5,77.9 1216.6,87.2 1220.7,96.5 1128.8,131.7 1036.9,167 1124.7,122.4 		"/>
		<polygon class="st4" points="1198,59.1 1200.2,64 1202.4,69 1105.2,109.1 1008.1,149.3 1103,104.2 		"/>
		<polygon class="st2" points="1203.1,66.4 1207.5,76.4 1212,86.3 1089.7,134.6 926.5,199.1 1085.3,124.6 		"/>
		<polygon class="st2" points="1198.5,47.6 1201.2,53.6 1203.9,59.6 1135,86.6 1066.2,113.5 1132.4,80.5 		"/>
		
			<ellipse transform="matrix(0.9535 -0.3013 0.3013 0.9535 34.0189 367.2312)" class="st14" cx="1207.7" cy="73.3" rx="29" ry="27.6"/>
	</g>
	<g>
		<polygon class="st37" points="1280.1,999.6 1278,1006 1275.8,1012.3 1214,988.6 1115.6,955 1216.2,982.3 		"/>
		<polygon class="st37" points="1281.5,984.1 1280.3,987.5 1279.2,990.9 1212.6,967.2 1063.9,919.1 1213.8,963.8 		"/>
		<polygon class="st38" points="1280.7,989.9 1278.4,996.7 1276,1003.5 1193.2,972.7 952.8,896.5 1195.6,965.9 		"/>
		<polygon class="st38" points="1287,978.7 1285.6,982.9 1284.2,987 1237.7,969.5 1078.3,909.6 1239.1,965.4 		"/>
		
			<ellipse transform="matrix(0.2882 -0.9576 0.9576 0.2882 -42.1203 1933.9346)" class="st4" cx="1279.8" cy="995.3" rx="18.2" ry="19.5"/>
	</g>
	<g>
		<polygon class="st30" points="1761,666.1 1759.8,676.3 1758.6,686.6 1602.4,674.1 1446.2,661.7 1603.6,663.9 		"/>
		<polygon class="st30" points="1754.8,642.6 1754.2,648 1753.5,653.4 1586.2,642.9 1418.9,632.3 1586.9,637.4 		"/>
		<polygon class="st29" points="1756.5,651.5 1755.2,662.4 1753.9,673.4 1545.1,658.1 1336.2,642.9 1546.4,647.2 		"/>
		<polygon class="st14" points="1764.3,632.6 1763.5,639.2 1762.7,645.9 1645.3,637.1 1527.9,628.2 1646.1,630.4 		"/>
		
			<ellipse transform="matrix(1.702108e-02 -0.9999 0.9999 1.702108e-02 1068.1168 2406.0598)" class="st38" cx="1757.7" cy="659.8" rx="27.8" ry="46.4"/>
	</g>
	<polygon class="st30" points="1214,822.1 1212.2,826 1210.4,829.9 1119.9,795 1029.4,760.1 1121.7,791.1 	"/>
	<polygon class="st2" points="1603.5,1066.3 1601.8,1070.3 1600,1074.2 1509.5,1039.3 1377.8,990.6 1511.3,1035.4 	"/>
	<polygon class="st4" points="1133.3,885.8 1131.3,889.6 1129.3,893.5 962,829.3 794.7,765.1 964,825.5 	"/>
	<polygon class="st5" points="1466.3,979.2 1464.4,983.1 1462.6,987 1357.1,946.4 1251.6,905.8 1358.9,942.5 	"/>
	<polygon class="st30" points="1040.2,393.9 1040.8,396.5 1041.4,399.2 961.1,423 880.7,446.8 960.4,420.3 	"/>
	<polygon class="st4" points="1418.1,527.6 1418,531.3 1417.8,534.9 1290.9,539.5 1164,544 1291.1,535.8 	"/>
	<polygon class="st14" points="1557.4,186.4 1558.5,190.4 1559.7,194.3 1484.5,219.9 1366.9,259.9 1483.4,215.9 	"/>
	<polygon class="st4" points="1227.7,211.5 1228.9,215.1 1230.1,218.7 1146.4,251.9 1015.3,303.9 1145.2,248.3 	"/>
	<polygon class="st2" points="1683.4,22.3 1684.3,25.9 1685.3,29.6 1587.4,62.9 1434,115.1 1586.4,59.3 	"/>
	<path class="st2" d="M1838,461.1L1838,461.1l-24.2-25.5l-3.4-3.7l-32.3,18.1L1798,473c-3,0.4-6.4,0.7-9.5,4.1
		c-5.2,5.5-5.2,14.5-0.1,19.9c5.1,5.5,13.5,5.4,18.7-0.2c5-5.3,5.2-13.7,0.7-19.2l0,0l-19.8-20.8l27.5-14.6l13.6,15.3
		c-4-0.6-7.4-0.3-10.5,3.1c-5.2,5.5-5.2,14.5-0.1,19.9c5.1,5.5,13.5,5.4,18.7-0.2C1842.3,475,1842.5,466.6,1838,461.1z
		 M1786.5,456.1l-2.8-3l27.5-15.1l2.9,3.4L1786.5,456.1z"/>
	<g>
		<circle class="st3" cx="64.1" cy="776.6" r="7.7"/>
	</g>
	<g>
		<circle class="st2" cx="544.5" cy="880.4" r="7.6"/>
	</g>
	<g>
		<path class="st2" d="M68.7,569.3l0.1-12.9l-10.6-7.3l12.2-3.9l3.7-12.3l7.5,10.4l12.9-0.3l-7.6,10.4l4.2,12.1l-12.2-4L68.7,569.3z
			 M64.9,550.1l6.9,4.8l0,8.4l6.7-5l7.9,2.6l-2.7-7.9l4.9-6.7l-8.4,0.2l-4.9-6.8l-2.4,8L64.9,550.1z"/>
	</g>
	<g>
		<polygon class="st2" points="732.2,997.1 731.5,1003.5 734.4,1009.2 728,1008.5 722.3,1011.4 723,1005 720.1,999.3 726.4,1000 		
			"/>
	</g>
	<g>
		<path class="st5" d="M506.9,327.4c-0.8-0.1-20.6-2.5-30.3-18.7c-7.2-12-6.9-28,0.9-47.8c7.2-18.2,7.5-33.2,1.1-44.6
			c-9-15.9-28.5-19.4-28.7-19.5c-0.9-0.2-22.4-4.1-32.7-22.5c-7.3-13-7-29.8,0.9-49.8c7.2-18.4,7.6-34.1,1-46.7
			c-9.7-18.6-31.4-24-31.7-24.1l0.9-3.9c1,0.2,23.7,5.9,34.3,26.1c7.1,13.6,6.8,30.5-0.9,50c-7.4,18.8-7.8,34.4-1.1,46.4
			c9.4,16.7,29.7,20.5,29.9,20.5c0.9,0.1,21.5,3.8,31.5,21.4c7.1,12.5,6.8,28.7-0.8,48.1c-7.3,18.5-7.7,33.4-1.2,44.2
			c8.7,14.5,27.2,16.8,27.4,16.8L506.9,327.4z"/>
	</g>
	<path class="st24" d="M213.3,749.9c0,0-5.8,50.6-63.8,27.8c-58-22.8-66.8,29.1-66.8,29.1s-9.5,53.9-69.6,30.3s-73.4,32-73.4,32"/>
	<path class="st25" d="M223.8,773.9c0,0-5.8,50.6-63.8,27.8s-66.8,29.1-66.8,29.1s-9.5,53.9-69.6,30.3s-73.4,32-73.4,32"/>
	<path class="st25" d="M239.1,798.9c0,0-5.8,50.6-63.8,27.8s-66.8,29.1-66.8,29.1s-9.5,53.9-69.6,30.3c-60.1-23.6-73.4,32-73.4,32"
		/>
	<g>
		<g>
			<path class="st5" d="M696.1,907.1l-38.7-8l-38.7-8c-1.6-0.3-2.8,1.4-1.9,2.8l14.6,23l15.7,24.8l-9.3,38.1l2.7,0.7l9.3-38
				c0,0,0.1,0,0.1,0l24.5-16.6l22.5-15.3C698.1,909.5,697.7,907.4,696.1,907.1z"/>
			<g>
				<path class="st7" d="M625.6,900c-0.7-1,0.3-2.3,1.4-2.1l28.7,6l28.7,6c1.2,0.2,1.5,1.8,0.5,2.5l-16.7,11.3L650.1,936
					c-0.6,0.4-1.5,0.3-1.9-0.4L636.4,917L625.6,900z"/>
			</g>
			<g>
				<path class="st5" d="M632.6,988.4c-2.7-0.9-5.1-2.2-7.1-3.6c-3.3-2.5-4.8-5.4-4.3-8.1c0.7-3.7,5.2-6.3,11.6-6.8l0.2,2.8
					c-5,0.3-8.6,2.1-9,4.5c-0.3,1.6,0.9,3.6,3.2,5.3c2.7,2,6.5,3.5,10.7,4.3c4.2,0.8,8.3,0.7,11.5-0.2c2.8-0.8,4.6-2.2,4.9-3.8
					c0.4-2.1-1.6-4.6-5.3-6.7l1.4-2.5c4.8,2.7,7.3,6.3,6.7,9.6c-0.5,2.7-3,4.9-6.9,6c-3.6,1-8.2,1.1-12.8,0.2
					C635.7,989.4,634.1,988.9,632.6,988.4z"/>
			</g>
			<g>
				<path class="st5" d="M674.5,915.1c-1.2-0.4-1.8-1.7-1.4-2.8c0.4-1.2,1.7-1.8,2.8-1.4c1.2,0.4,1.8,1.7,1.4,2.8
					C676.9,914.9,675.6,915.5,674.5,915.1z"/>
			</g>
		</g>
		<g>
			<g>
				<path class="st2" d="M652.9,912.6c-5.7-15,2-31.8,17-37.5c15-5.7,31.8,2,37.5,17"/>
			</g>
			<g>
				<path class="st6" d="M657.2,907.8c-4.5-12.1,1.6-25.5,13.6-30c12.1-4.5,25.5,1.6,30,13.6"/>
			</g>
			<g>
				<path class="st5" d="M660.8,903.3c-3.4-8.9,1.6-19.1,11.1-22.7s19.9,0.8,23.3,9.7"/>
			</g>
			<g>
				<polygon class="st29" points="678.1,897.2 671.4,880.8 672.5,880.4 678.4,895 688.2,882.2 689,882.9 				"/>
			</g>
			<g>
				
					<rect x="669.2" y="885" transform="matrix(0.3066 -0.9518 0.9518 0.3066 -386.538 1257.3276)" class="st29" width="1.1" height="17.9"/>
			</g>
			<g>
				<circle class="st4" cx="646.4" cy="890.2" r="1.7"/>
			</g>
			<g>
				<circle class="st29" cx="702.6" cy="905.2" r="3.4"/>
			</g>
			<g>
				<circle class="st4" cx="699.8" cy="882" r="5"/>
			</g>
			<g>
				<circle class="st5" cx="683.9" cy="867.9" r="2.7"/>
			</g>
		</g>
		<g>
			<path class="st5" d="M624.7,1043l-22.5-31.9c0,0,0-0.1,0-0.1l3.6-29.4l3.3-27c0.2-1.6-1.7-2.7-3-1.7l-31.5,23.9l-31.5,23.9
				c-1.3,1-0.8,3.1,0.8,3.3l26.9,4.1l29,4.4l22.6,32.1L624.7,1043z"/>
			<g>
				<path class="st7" d="M554.4,1001.3c-1.2-0.2-1.6-1.7-0.6-2.5l23.4-17.7l23.4-17.7c1-0.7,2.3,0.1,2.2,1.3l-2.4,20l-2.7,21.8
					c-0.1,0.8-0.8,1.3-1.6,1.2l-21.7-3.3L554.4,1001.3z"/>
			</g>
			<g>
				<path class="st5" d="M625.7,1054.2c-2.5,1.4-5,2.5-7.4,3c-4,0.9-7.2,0.1-8.9-2.1c-2.4-3-1.4-8,2.5-13.2l2.2,1.7
					c-3,4-4,7.9-2.6,9.7c1,1.3,3.2,1.7,6.1,1.1c3.3-0.7,6.9-2.5,10.3-5.2c3.4-2.7,6-5.8,7.4-8.8c1.3-2.7,1.4-4.9,0.4-6.2
					c-1.3-1.6-4.6-1.8-8.5-0.4l-1-2.7c5.2-1.9,9.6-1.4,11.7,1.3c1.7,2.2,1.7,5.5,0,9.2c-1.6,3.4-4.5,6.9-8.2,9.8
					C628.4,1052.5,627.1,1053.4,625.7,1054.2z"/>
			</g>
			<g>
				<path class="st5" d="M598,974.5c-1.1,0.6-2.4,0.3-3-0.8c-0.6-1.1-0.3-2.4,0.8-3c1.1-0.6,2.4-0.3,3,0.8
					C599.4,972.5,599,973.8,598,974.5z M596.6,972c-0.3,0.2-0.4,0.5-0.2,0.8c0.2,0.3,0.5,0.4,0.8,0.2c0.3-0.2,0.4-0.5,0.2-0.8
					C597.2,971.9,596.8,971.8,596.6,972z"/>
			</g>
		</g>
		<g>
			<g>
				<path class="st2" d="M548.8,981c-0.5-16.1,12-29.5,28.1-30.1c16.1-0.5,29.5,12,30.1,28.1"/>
			</g>
			<g>
				<path class="st6" d="M554.5,978c-0.4-12.9,9.7-23.7,22.5-24.1c12.9-0.4,23.7,9.7,24.1,22.5"/>
			</g>
			<g>
				<path class="st5" d="M559.3,974.8c-0.3-9.5,7.7-17.6,17.8-17.9c10.2-0.3,18.7,7.1,19,16.7"/>
			</g>
			<g>
				<polygon class="st29" points="577.6,974.6 576.6,956.9 577.7,956.8 578.6,972.6 592,963.6 592.6,964.5 				"/>
			</g>
			<g>
				
					<rect x="570.2" y="959.9" transform="matrix(0.595 -0.8037 0.8037 0.595 -547.5024 851.0319)" class="st29" width="1.1" height="17.9"/>
			</g>
			<g>
				<circle class="st29" cx="547.3" cy="961.5" r="2.8"/>
			</g>
			<g>
				<circle class="st4" cx="584.7" cy="994" r="4.8"/>
			</g>
			<g>
				<circle class="st4" cx="603.1" cy="967.1" r="5"/>
			</g>
			<g>
				<circle class="st5" cx="590.7" cy="949" r="2.4"/>
			</g>
		</g>
	</g>
	<g>
		<g>
			<circle class="st2" cx="144.9" cy="852.9" r="5.7"/>
		</g>
		<g>
			<path class="st2" d="M162.7,1020.9l-3-8.7l-8.9-2.4l7.3-5.6l-0.4-9.2l7.6,5.2l8.6-3.3l-2.6,8.8l5.7,7.2l-9.2,0.2L162.7,1020.9z
				 M157.5,1008.5l4.5,1.2l1.5,4.4l2.6-3.9l4.7-0.1l-2.9-3.7l1.4-4.5l-4.4,1.7l-3.9-2.7l0.2,4.7L157.5,1008.5z"/>
		</g>
		<g>
			<polygon class="st2" points="408.6,821.3 407.8,827.6 410.5,833.2 404.4,832.7 398.7,835.6 399.5,829.4 396.9,823.8 403,824.3 
							"/>
		</g>
		<g>
			<polygon class="st5" points="145.1,917.1 143.6,911.4 138,912.2 142.6,908.8 136.5,902.1 144.4,906.6 147.8,898.6 147.2,907 
				153.3,907.1 148.2,909.7 151.8,913.9 146.4,911.9 			"/>
		</g>
		<g>
			<path class="st0" d="M281.6,842.5c0,0,21-33.5,26.8-29.9s6,33.6,6,33.6L281.6,842.5z"/>
			<path class="st0" d="M369.5,915.5c0,0,32.4-24.5,27.6-29.3c-4.8-4.8-36.7-0.3-36.7-0.3L369.5,915.5z"/>
			<path class="st0" d="M243.9,868.1c24.3-25.9,67-28.3,95.2-5.4c28.2,22.9,31.4,62.5,7.1,88.4"/>
			<path class="st0" d="M346,950.4c-24.4,25.7-67.1,28-95.2,5c-28.1-23-31.1-62.7-6.7-88.4"/>
			<path class="st12" d="M366.6,919.8l2.5-1.8c0.1-0.1,8.1-5.8,15.7-12.3c14.5-12.5,15.3-17.4,14.4-20.2c-0.5-1.6-2-3.6-6.5-4.1
				c-20.8-2.2-30.9,1.2-31.4,1.3l-0.5,0.2c-4.2-8.7-10.5-16.8-18.7-23.5c-7.6-6.2-16.2-10.6-25.2-13.4l0.1-0.6
				c0.1-0.4,2.3-10.2-2.8-29.1c-1.1-4-3.5-5.2-5.2-5.4c-3.2-0.4-8.2,1-19.6,16c-6,7.9-11,16.1-11,16.2l-0.8,1.3
				c-14.1,3-27.3,10-37.4,20.8c-26,27.7-22.6,70.2,7.6,94.7s76,22,102-5.8C359.2,944.1,364.7,932.1,366.6,919.8z M392.3,885.9
				c1.5,0.2,2.2,0.5,2.3,0.8c0.9,2.8-9,13.5-25.3,25.5l-4.3-25.7C368.6,885.7,377.6,884.3,392.3,885.9z M308.4,815.3
				c0.1,0,0.1,0,0.2,0.1c0.3,0.2,0.7,0.9,0.9,1.9c3.6,13.3,3.4,21.8,3.1,25.2l-28-0.5C295.2,825.4,305.2,814.9,308.4,815.3z
				 M251,956.5c-28.2-22.9-31.4-62.5-7.1-88.4c24.3-25.9,67-28.3,95.2-5.4c28.2,22.9,31.4,62.5,7.1,88.4
				C321.9,977,279.2,979.4,251,956.5z"/>
			<g>
				<path class="st6" d="M367.9,1001.5c-20.4,21.7-78.5,5.5-129.8-36.2s-76.5-93-56.1-114.7c20.4-21.7,47.3,27.7,98.7,69.4
					C332,961.7,388.3,979.9,367.9,1001.5z"/>
			</g>
			<g>
				<path class="st4" d="M323.7,928.5l-0.2-0.2L303,908.2l-25.8-17.3c-6.5-5.3-7.9-13.7-3.1-18.8l9.7-10.4c4.8-5.1,14-4.9,20.5,0.3
					l0.2,0.2c0.2,0.2,15.4,16.1,21,20.7c5.6,4.6,24.7,16.5,24.9,16.6l0.2,0.2c6.5,5.3,7.9,13.7,3.1,18.8l-9.7,10.4
					C339.3,933.9,330.2,933.8,323.7,928.5z"/>
			</g>
			<g>
				<path class="st12" d="M283.5,914.3c-0.3-0.3-0.7-0.6-1-0.9c-7.6-7.1-3.7-13.7-3.6-14l4.2,2.2c-0.2,0.4-2.1,4.1,2.8,8.7
					c4.7,4.4,8.5,2.5,8.9,2.2l2.7,3.8C295.1,917.7,289.3,919,283.5,914.3z"/>
			</g>
			<g>
				<path class="st12" d="M299.5,927.2c-0.3-0.3-0.7-0.6-1-0.9c-7.6-7.1-3.7-13.7-3.6-14l4.2,2.2c-0.2,0.4-2.1,4.1,2.8,8.7
					c4.7,4.4,8.5,2.5,8.9,2.2l2.7,3.8C311.1,930.7,305.3,932,299.5,927.2z"/>
			</g>
			<g>
				<g>
					<polygon class="st12" points="264.8,879.6 257.7,868.7 260.4,867.2 267.5,878.1 					"/>
				</g>
				<g>
					<polygon class="st12" points="260.9,883.9 247.3,872.8 249.4,870.6 263,881.7 					"/>
				</g>
				<g>
					<polygon class="st12" points="246.4,884.6 247.6,881.8 260.6,886.5 259.5,889.3 					"/>
				</g>
			</g>
			<g>
				<g>
					<polygon class="st12" points="330.1,954.7 323.8,943.3 326.7,942 332.9,953.4 					"/>
				</g>
				<g>
					<polygon class="st12" points="341.4,952 328.6,940.1 330.9,938 343.6,949.9 					"/>
				</g>
				<g>
					<polygon class="st12" points="331.4,935.4 332.7,932.7 345.4,938.3 344,941 					"/>
				</g>
			</g>
			<g>
				<path class="st12" d="M215.1,923.1c-9.2-7.4-10.2-20.3-2.4-28.7c7.9-8.4,21.7-9.1,30.9-1.7c9.2,7.4,10.2,20.3,2.4,28.7
					C238.1,929.8,224.2,930.5,215.1,923.1z M240.4,896.1c-7.1-5.8-17.9-5.2-24.1,1.3c-6.1,6.5-5.3,16.5,1.8,22.3
					c7.1,5.8,17.9,5.2,24.1-1.3C248.4,911.9,247.6,901.9,240.4,896.1z"/>
			</g>
			<g>
				<path class="st12" d="M256.4,956.6c-9.2-7.4-10.2-20.3-2.4-28.7c7.9-8.4,21.7-9.1,30.9-1.7c9.2,7.4,10.2,20.3,2.4,28.7
					C279.4,963.3,265.6,964.1,256.4,956.6z M281.8,929.6c-7.1-5.8-17.9-5.2-24.1,1.3c-6.1,6.5-5.3,16.5,1.8,22.3
					c7.1,5.8,17.9,5.2,24.1-1.3C289.7,945.4,288.9,935.4,281.8,929.6z"/>
			</g>
			<g>
				<path class="st12" d="M297.7,990.2c-9.2-7.4-10.2-20.3-2.4-28.7c7.9-8.4,21.7-9.1,30.9-1.7c9.2,7.4,10.2,20.3,2.4,28.7
					C320.7,996.9,306.9,997.6,297.7,990.2z M323.1,963.2c-7.1-5.8-17.9-5.2-24.1,1.3c-6.1,6.5-5.3,16.5,1.8,22.3
					c7.1,5.8,17.9,5.2,24.1-1.3C331.1,979,330.2,969,323.1,963.2z"/>
			</g>
			<g>
				<polygon class="st36" points="267.4,951 266.4,944.7 259.7,943.6 265.1,939.8 262.7,933.9 269,936.3 273.3,931.5 274.2,937.7 
					280.9,938.8 275.6,942.6 278,948.6 271.7,946.1 				"/>
			</g>
		</g>
		<g>
			<polygon class="st5" points="327.8,1056.1 320.5,1053.1 315.6,1061.7 316,1052.1 304.7,1052.1 314.6,1047.6 309.9,1038.1 
				317.8,1044.2 323.4,1035.7 322.3,1045.3 332.6,1046.5 323.7,1049.7 			"/>
		</g>
	</g>
	<circle class="st5" cx="454.8" cy="1022.4" r="13.6"/>
	<g>
		<g>
			<circle class="st2" cx="570.8" cy="119.3" r="8.9"/>
		</g>
		<g>
			<g>
				
					<rect x="621.9" y="139.5" transform="matrix(0.5223 -0.8528 0.8528 0.5223 142.0593 619.4811)" class="st3" width="4" height="86.8"/>
			</g>
			<g>
				<circle class="st4" cx="587.2" cy="159.7" r="5.9"/>
			</g>
		</g>
		<g>
			<g>
				
					<rect x="457.6" y="168.2" transform="matrix(0.9649 -0.2627 0.2627 0.9649 -27.1161 137.5963)" class="st3" width="86.8" height="4"/>
			</g>
			<g>
				<circle class="st4" cx="543.1" cy="159.4" r="5.9"/>
			</g>
		</g>
		<g>
			<path class="st5" d="M580.3,271.8h-30.3c-17.9,0-32.4-14.5-32.4-32.4v-33.8c0-3.3,2.7-6,6-6h83.2c3.3,0,6,2.7,6,6v33.6
				C612.9,257.2,598.3,271.8,580.3,271.8z"/>
			<polygon class="st6" points="553.2,221.8 558.5,245.8 563.7,269.8 553.2,269.8 542.8,269.8 548,245.8 			"/>
			<polygon class="st6" points="578.1,221.8 583.3,245.8 588.5,269.8 578.1,269.8 567.7,269.8 572.9,245.8 			"/>
			<polygon class="st6" points="596.9,262.5 591.7,245.1 586.5,227.7 596.9,227.7 607.4,227.7 602.1,245.1 			"/>
			<polygon class="st6" points="534.7,262.5 529.5,245.1 524.3,227.7 534.7,227.7 545.1,227.7 539.9,245.1 			"/>
			<polygon class="st7" points="566.4,213.3 568.8,224.6 574.1,225.4 570.3,229.1 571.2,234.5 566.4,232 561.6,234.5 562.5,229.1 
				558.7,225.4 564,224.6 			"/>
			<path class="st12" d="M517.6,205.5c0-14.9,21.3-16.9,47.6-16.9c27.9,0,47.6,4.8,47.6,16.9"/>
		</g>
	</g>
</g>
<g id="color">
	<g>
		<rect x="447.4" y="-110.5" class="st3" width="176.3" height="89.4"/>
		<rect x="623.7" y="-110.5" class="st4" width="176.3" height="89.4"/>
		<rect x="800.8" y="-110.5" class="st12" width="176.3" height="89.4"/>
		<rect x="977.8" y="-110.5" class="st5" width="176.3" height="89.4"/>
		<rect x="1154.9" y="-110.5" class="st6" width="176.3" height="89.4"/>
		<rect x="1331.9" y="-110.5" class="st7" width="176.3" height="89.4"/>
		<rect x="1509" y="-110.5" class="st14" width="176.3" height="89.4"/>
		<rect x="1683.8" y="-110.5" class="st0" width="176.3" height="89.4"/>
		<text transform="matrix(1 0 0 1 491.8513 -57.8084)" style="font-family:'KozGoPr6N-Regular-83pv-RKSJ-H'; font-size:24px;">FF56C2</text>
		<text transform="matrix(1 0 0 1 674.5654 -57.8084)" style="font-family:'KozGoPr6N-Regular-83pv-RKSJ-H'; font-size:24px;">59FFF6</text>
		<text transform="matrix(1 0 0 1 850.6111 -57.8084)" style="font-family:'KozGoPr6N-Regular-83pv-RKSJ-H'; font-size:24px;">FFFFFF</text>
		<text transform="matrix(1 0 0 1 1026.6569 -57.8084)" style="font-family:'KozGoPr6N-Regular-83pv-RKSJ-H'; font-size:24px;">FAF000</text>
		<text transform="matrix(1 0 0 1 1202.7026 -57.8084)" style="font-family:'KozGoPr6N-Regular-83pv-RKSJ-H'; font-size:24px;">FF5720</text>
		<text transform="matrix(1 0 0 1 1378.7484 -57.8084)" style="font-family:'KozGoPr6N-Regular-83pv-RKSJ-H'; font-size:24px;">7D55FF</text>
		<text transform="matrix(1 0 0 1 1554.7942 -57.8084)" style="font-family:'KozGoPr6N-Regular-83pv-RKSJ-H'; font-size:24px;">EFA9DD</text>
		
			<text transform="matrix(1 0 0 1 1730.84 -57.8084)" class="st12" style="font-family:'KozGoPr6N-Regular-83pv-RKSJ-H'; font-size:24px;">000000</text>
	</g>
</g>
</svg>
