<?xml version="1.0" encoding="utf-8"?>
<!-- Generator: Adobe Illustrator 26.3.1, SVG Export Plug-In . SVG Version: 6.00 Build 0)  -->
<svg version="1.1" id="Layer_1" xmlns="http://www.w3.org/2000/svg" xmlns:xlink="http://www.w3.org/1999/xlink" x="0px" y="0px"
	 viewBox="0 0 200 200" enable-background="new 0 0 200 200" xml:space="preserve">
<path fill="#010101" d="M169.64,69.1c3.67,1.65,7.24,3.48,10.25,6.22c5.32,4.86,8.34,10.88,9.24,18.04
	c0.81,6.49,0.63,12.85-1.58,19.08c-2.47,6.98-7.1,12.06-13.54,15.53c-5.67,3.05-11.8,4.61-18.13,5.59
	c-8.94,1.38-17.92,1.42-26.93,1.22c-3.25-0.07-6.45-0.59-9.69-0.7c-0.13-0.08-0.26-0.2-0.4-0.22c-5.11-0.82-10.19-1.79-15.03-3.69
	c-0.3-0.12-0.51-0.04-0.74,0.11c-1.02-1.01-2.42-1.36-3.66-1.93c-5.78-2.7-9.92-7.14-12.9-12.57c-1.81-3.31-2.58-7.08-3.11-10.9
	c-0.38-2.7-0.38-5.39-0.24-8.03c0.35-6.75,2.27-13.05,6.62-18.43c4.88-6.03,11.55-9.02,18.79-10.95
	c11.92-3.17,24.11-3.41,36.33-2.93c2.74,0.11,5.47,0.54,8.21,0.8c0.23,0.02,0.47-0.19,0.71-0.29c0.31,0.52,0.88,0.4,1.32,0.46
	C160.1,66.25,164.94,67.39,169.64,69.1z M159.57,82c-5.22-2.28-10.79-2.8-16.38-3.17c-4.78-0.3-9.56-0.28-14.33,0.02
	c-4.93,0.31-9.82,0.97-14.54,2.55c-4.95,1.66-8.9,4.46-10.87,9.51c-1.06,2.72-1.32,5.59-1.36,8.47
	c-0.14,9.09,3.61,14.97,11.31,17.83c5.25,2.17,10.78,2.85,16.39,3.2c2,0.07,4.01,0.22,6.01,0.21c7.71-0.02,15.4-0.3,22.81-2.76
	c5.76-1.91,9.94-5.47,11.43-11.57c0.88-3.62,0.97-7.31,0.42-10.99C169.5,88.72,165.84,84.27,159.57,82z"/>
<path fill="#010101" d="M50.96,99.22c0,10.37,0,20.75,0,31.12c0,2.9-0.72,3.6-3.64,3.6c-6.19,0-12.39,0.01-18.58,0
	c-2.86-0.01-3.23-0.42-3.23-3.21c0.01-12.76-0.02-25.53,0.04-38.29c0.01-1.38-0.47-1.59-1.67-1.57c-3.8,0.07-7.61,0.04-11.41,0.02
	c-2.27-0.02-2.84-0.57-2.88-2.86c-0.04-2.72,0.03-5.43-0.01-8.15c-0.02-1.53,0.67-2.32,2.15-2.63c3.75-0.78,7.39-1.95,10.93-3.39
	c4.73-1.93,9.2-4.29,12.85-7.98c0.95-0.96,2.09-1.43,3.47-1.42c2.82,0.03,5.65,0,8.48,0.01c2.67,0.01,3.51,0.83,3.51,3.47
	C50.96,78.37,50.96,88.79,50.96,99.22z M30.28,85.99c4.83,0,9.66-0.01,14.49,0.01c0.78,0,1.32,0,1.31-1.07
	c-0.05-4.83-0.03-9.66-0.01-14.49c0-0.71-0.15-1.11-0.98-1.09c-3.08,0.05-5.9-0.13-8.67,2.34c-5.46,4.87-12.36,7.24-19.31,9.3
	c-2.65,0.78-2.59,0.78-2.66,3.5c-0.03,1.19,0.26,1.57,1.51,1.55C20.73,85.95,25.5,85.99,30.28,85.99z M46.09,120.66
	c0-2.28-0.03-4.57,0.02-6.85c0.02-0.99-0.18-1.45-1.34-1.43c-4.35,0.07-8.7,0.05-13.04,0.01c-0.94-0.01-1.37,0.19-1.36,1.24
	c0.04,4.73,0.04,9.46,0,14.18c-0.01,0.88,0.21,1.25,1.18,1.24c4.46-0.04,8.91-0.04,13.37,0c0.95,0.01,1.21-0.33,1.19-1.23
	C46.06,125.44,46.09,123.05,46.09,120.66z M46.01,99.3c0-2.33-0.05-4.67,0.02-7c0.03-1-0.27-1.3-1.28-1.28
	c-4.34,0.05-8.69,0.05-13.03,0c-0.99-0.01-1.3,0.25-1.29,1.27c0.05,4.67,0.05,9.34,0,14.01c-0.01,0.94,0.29,1.18,1.2,1.17
	c4.4-0.04,8.8-0.06,13.19,0.01c1.1,0.02,1.22-0.42,1.2-1.33C45.98,103.86,46.01,101.58,46.01,99.3z"/>
<path fill="#FDD600" d="M30.28,85.99c-4.78,0-9.55-0.05-14.33,0.03c-1.25,0.02-1.54-0.35-1.51-1.55c0.07-2.72,0.01-2.71,2.66-3.5
	c6.95-2.05,13.85-4.42,19.31-9.3c2.76-2.47,5.59-2.29,8.67-2.34c0.84-0.01,0.98,0.39,0.98,1.09c-0.02,4.83-0.04,9.66,0.01,14.49
	c0.01,1.08-0.53,1.08-1.31,1.07C39.94,85.98,35.11,85.99,30.28,85.99z"/>
<path fill="#00E580" d="M46.09,120.66c0,2.39-0.03,4.78,0.02,7.17c0.02,0.9-0.24,1.24-1.19,1.23c-4.46-0.04-8.91-0.04-13.37,0
	c-0.97,0.01-1.18-0.36-1.18-1.24c0.03-4.73,0.04-9.46,0-14.18c-0.01-1.05,0.42-1.25,1.36-1.24c4.35,0.04,8.7,0.06,13.04-0.01
	c1.16-0.02,1.36,0.44,1.34,1.43C46.06,116.09,46.09,118.38,46.09,120.66z"/>
<path fill="#DBDBDB" d="M46.01,99.3c0,2.28-0.03,4.56,0.02,6.84c0.02,0.91-0.1,1.34-1.2,1.33c-4.4-0.07-8.8-0.05-13.19-0.01
	c-0.9,0.01-1.21-0.23-1.2-1.17c0.05-4.67,0.05-9.34,0-14.01c-0.01-1.02,0.31-1.28,1.29-1.27c4.34,0.05,8.69,0.05,13.03,0
	c1.01-0.01,1.31,0.28,1.28,1.28C45.97,94.63,46.01,96.97,46.01,99.3z"/>
</svg>
