<?xml version="1.0" encoding="utf-8"?>
<!-- Generator: Adobe Illustrator 26.3.1, SVG Export Plug-In . SVG Version: 6.00 Build 0)  -->
<svg version="1.1" id="Layer_1" xmlns="http://www.w3.org/2000/svg" xmlns:xlink="http://www.w3.org/1999/xlink" x="0px" y="0px"
	 viewBox="0 0 256 92" enable-background="new 0 0 256 92" xml:space="preserve">
<path fill="#010101" d="M54.66,38.2c-2.29-0.69-4.45-1.51-6.71-2c-6-1.31-12.07-1.76-18.2-1.7c-4.02,0.04-7.99,0.33-11.89,1.43
	c-5.53,1.57-7.23,5.58-7.2,10.46c0.01,1.85,0.24,3.69,1.07,5.4c1.18,2.45,3.27,3.77,5.73,4.62c4.11,1.42,8.39,1.64,12.68,1.66
	c3.83,0.01,7.65-0.1,11.41-0.95c1.54-0.35,3.01-0.85,4.3-1.81c1.37-1.03,1.75-2.45,1.8-4.06c0.02-0.61-0.35-0.52-0.72-0.52
	c-2.84,0-5.68,0-8.52,0c-4.29,0-8.58-0.02-12.87,0.02c-0.79,0.01-0.96-0.23-0.94-0.98c0.06-1.91,0.03-3.83,0.01-5.74
	c-0.01-0.55,0.06-0.8,0.73-0.8c10.46,0.02,20.93,0.02,31.39,0c0.65,0,0.74,0.23,0.74,0.79c-0.04,2.68,0.1,5.36-0.23,8.03
	c-0.52,4.28-2.29,7.77-6.12,10.08c-3.01,1.82-6.26,2.79-9.7,3.34c-5.24,0.84-10.5,0.8-15.78,0.66c-3.89-0.1-7.72-0.58-11.49-1.58
	c-2.77-0.73-5.43-1.71-7.73-3.43c-2.28-1.7-3.91-3.95-5.1-6.54c-0.79-1.74-1.23-3.59-1.42-5.43c-0.16-1.57-0.18-3.18-0.07-4.79
	c0.24-3.68,1.3-7.04,3.5-10c1.94-2.61,4.57-4.31,7.6-5.41c3.79-1.38,7.72-2.03,11.73-2.42c4.1-0.39,8.19-0.44,12.28-0.3
	c6.42,0.22,12.78,0.97,18.97,2.79c0.52,0.15,0.78,0.34,0.77,0.98C54.63,32.71,54.66,35.42,54.66,38.2z"/>
<path fill="#010101" d="M223.71,56.87c0.86-1.29,1.68-2.53,2.52-3.75c3.74-5.52,7.52-11,11.2-16.56c1.88-2.84,3.79-5.65,5.65-8.51
	c0.26-0.4,0.54-0.53,0.97-0.53c3.86,0.01,7.72,0,11.74,0c-0.67,1.01-1.28,1.93-1.91,2.85c-3.12,4.52-6.25,9.02-9.36,13.54
	c-4.71,6.82-9.41,13.65-14.11,20.49c-0.25,0.37-0.54,0.5-0.98,0.5c-3.92-0.02-7.84-0.02-11.76,0c-0.6,0-0.85-0.27-1.19-0.75
	c-4.2-5.93-8.27-11.95-12.4-17.93c-4.16-6.03-8.34-12.05-12.51-18.07c-0.12-0.17-0.18-0.37-0.31-0.63c4.19,0,8.32,0.01,12.44-0.01
	c0.51,0,0.61,0.36,0.79,0.63c2.54,3.78,5.07,7.57,7.6,11.36C215.93,45.25,219.78,51,223.71,56.87z"/>
<g>
	<path fill="#010101" d="M166.97,28.87c2.08,0.94,4.11,1.98,5.82,3.53c3.02,2.76,4.74,6.18,5.25,10.25
		c0.46,3.68,0.36,7.29-0.9,10.83c-1.4,3.96-4.03,6.85-7.69,8.82c-3.22,1.73-6.7,2.62-10.3,3.17c-5.08,0.78-10.18,0.81-15.29,0.69
		c-1.84-0.04-3.66-0.33-5.5-0.4c-0.08-0.04-0.15-0.11-0.23-0.13c-2.9-0.47-5.78-1.02-8.54-2.09c-0.17-0.07-0.29-0.02-0.42,0.06
		c-0.58-0.57-1.37-0.77-2.08-1.1c-3.28-1.53-5.63-4.05-7.32-7.14c-1.03-1.88-1.47-4.02-1.77-6.19c-0.21-1.54-0.22-3.06-0.14-4.56
		c0.2-3.83,1.29-7.41,3.76-10.46c2.77-3.43,6.56-5.12,10.67-6.22c6.77-1.8,13.69-1.94,20.63-1.66c1.56,0.06,3.11,0.31,4.66,0.45
		c0.13,0.01,0.27-0.11,0.4-0.16c0.17,0.3,0.5,0.23,0.75,0.26C161.55,27.25,164.3,27.9,166.97,28.87z M161.25,36.19
		c-2.97-1.29-6.13-1.59-9.3-1.8c-2.71-0.17-5.43-0.16-8.14,0.01c-2.8,0.18-5.58,0.55-8.26,1.45c-2.81,0.94-5.05,2.53-6.17,5.4
		c-0.6,1.55-0.75,3.17-0.77,4.81c-0.08,5.16,2.05,8.5,6.42,10.12c2.98,1.23,6.12,1.62,9.3,1.82c1.14,0.04,2.28,0.12,3.41,0.12
		c4.38-0.01,8.74-0.17,12.95-1.57c3.27-1.09,5.64-3.1,6.49-6.57c0.5-2.05,0.55-4.15,0.24-6.24
		C166.89,40.01,164.81,37.49,161.25,36.19z"/>
	<path fill="#D80101" d="M129.18,63.61c0.13-0.08,0.25-0.13,0.42-0.06c2.75,1.08,5.63,1.63,8.54,2.09c0.08,0.01,0.15,0.08,0.23,0.13
		c-1.42,1.52-2.59,3.23-3.88,4.86c-3.23,4.1-6.43,8.23-9.63,12.35c-1.83,2.36-3.65,4.74-5.48,7.1c-0.24,0.31-0.48,0.58-0.96,0.58
		c-3.3-0.03-6.6-0.02-9.91-0.02c-0.08,0-0.16-0.04-0.34-0.1c0.76-0.99,1.46-1.95,2.2-2.89c1.2-1.54,2.41-3.06,3.62-4.59
		c1.73-2.2,3.51-4.36,5.18-6.6c1.51-2.02,3.08-3.99,4.63-5.98C125.59,68.2,127.38,65.9,129.18,63.61z"/>
	<path fill="#D80101" d="M166.97,28.87c-2.67-0.97-5.42-1.62-8.23-2.03c-0.25-0.04-0.57,0.03-0.75-0.26c1.5-1.91,3-3.83,4.5-5.74
		c1.49-1.89,2.99-3.75,4.47-5.65c1.8-2.32,3.56-4.67,5.36-6.99c1.46-1.87,3.03-3.66,4.38-5.6c0.55-0.78,1.11-0.85,1.89-0.85
		c3.08,0.02,6.17,0.02,9.25,0.02c0.02,0,0.04,0.04,0.1,0.11C180.96,10.87,173.96,19.87,166.97,28.87z"/>
	<path fill="#D80101" d="M161.25,36.19c-3.43,4.43-6.85,8.85-10.28,13.28c-2.2,2.84-4.41,5.69-6.62,8.53
		c-3.18-0.2-6.33-0.59-9.3-1.82c5.54-7.11,11.07-14.22,16.61-21.33c0.11-0.14,0.2-0.31,0.3-0.46
		C155.13,34.6,158.29,34.9,161.25,36.19z"/>
</g>
<g>
	<path fill="#010101" d="M99.58,45.97c0,5.89,0,11.78,0,17.67c0,1.64-0.41,2.04-2.07,2.04c-3.52,0-7.03,0.01-10.55,0
		c-1.62,0-1.83-0.24-1.83-1.82c0.01-7.25-0.01-14.49,0.02-21.74c0-0.78-0.27-0.9-0.95-0.89c-2.16,0.04-4.32,0.03-6.48,0.01
		c-1.29-0.01-1.61-0.32-1.63-1.62c-0.02-1.54,0.02-3.08-0.01-4.63c-0.01-0.87,0.38-1.32,1.22-1.49c2.13-0.44,4.2-1.11,6.21-1.93
		c2.68-1.1,5.23-2.44,7.3-4.53c0.54-0.55,1.19-0.81,1.97-0.8c1.6,0.02,3.21,0,4.81,0.01c1.52,0.01,1.99,0.47,2,1.97
		C99.58,34.13,99.58,40.05,99.58,45.97z M87.84,38.46c2.74,0,5.49-0.01,8.23,0.01c0.44,0,0.75,0,0.74-0.61
		c-0.03-2.74-0.02-5.48-0.01-8.23c0-0.4-0.08-0.63-0.56-0.62c-1.75,0.03-3.35-0.07-4.92,1.33c-3.1,2.77-7.02,4.11-10.96,5.28
		c-1.5,0.44-1.47,0.44-1.51,1.98c-0.02,0.68,0.15,0.89,0.86,0.88C82.41,38.44,85.12,38.46,87.84,38.46z M96.81,58.15
		c0-1.3-0.02-2.59,0.01-3.89c0.01-0.56-0.1-0.82-0.76-0.81c-2.47,0.04-4.94,0.03-7.41,0.01c-0.53,0-0.78,0.11-0.77,0.71
		c0.03,2.68,0.02,5.37,0,8.05c0,0.5,0.12,0.71,0.67,0.71c2.53-0.03,5.06-0.02,7.59,0c0.54,0.01,0.69-0.19,0.68-0.7
		C96.8,60.86,96.81,59.5,96.81,58.15z M96.77,46.02c0-1.33-0.03-2.65,0.01-3.98c0.02-0.57-0.15-0.74-0.72-0.73
		c-2.47,0.03-4.93,0.03-7.4,0c-0.56-0.01-0.74,0.14-0.73,0.72c0.03,2.65,0.03,5.3,0,7.95c-0.01,0.53,0.17,0.67,0.68,0.66
		c2.5-0.02,4.99-0.03,7.49,0.01c0.62,0.01,0.69-0.24,0.68-0.75C96.75,48.61,96.77,47.31,96.77,46.02z"/>
	<path fill="#FDD600" d="M87.84,38.46c-2.71,0-5.42-0.03-8.13,0.02c-0.71,0.01-0.88-0.2-0.86-0.88c0.04-1.54,0-1.54,1.51-1.98
		c3.94-1.17,7.87-2.51,10.96-5.28c1.57-1.4,3.17-1.3,4.92-1.33c0.47-0.01,0.56,0.22,0.56,0.62c-0.01,2.74-0.02,5.48,0.01,8.23
		c0.01,0.61-0.3,0.61-0.74,0.61C93.32,38.46,90.58,38.46,87.84,38.46z"/>
	<path fill="#00E580" d="M96.81,58.15c0,1.36-0.02,2.72,0.01,4.07c0.01,0.51-0.14,0.7-0.68,0.7c-2.53-0.02-5.06-0.02-7.59,0
		c-0.55,0.01-0.67-0.2-0.67-0.71c0.02-2.68,0.02-5.37,0-8.05c-0.01-0.6,0.24-0.71,0.77-0.71c2.47,0.02,4.94,0.03,7.41-0.01
		c0.66-0.01,0.77,0.25,0.76,0.81C96.8,55.55,96.81,56.85,96.81,58.15z"/>
	<path fill="#DBDBDB" d="M96.77,46.02c0,1.29-0.02,2.59,0.01,3.88c0.01,0.52-0.06,0.76-0.68,0.75c-2.5-0.04-4.99-0.03-7.49-0.01
		c-0.51,0-0.68-0.13-0.68-0.66c0.03-2.65,0.03-5.3,0-7.95c-0.01-0.58,0.17-0.73,0.73-0.72c2.47,0.03,4.93,0.03,7.4,0
		c0.57-0.01,0.74,0.16,0.72,0.73C96.74,43.37,96.77,44.69,96.77,46.02z"/>
</g>
</svg>
