<?xml version="1.0" encoding="utf-8"?>
<svg xmlns="http://www.w3.org/2000/svg" viewBox="0 0 64 64">
<path stroke="#FFFFFF" stroke-width="7.4211" stroke-miterlimit="10" d="M59.2,51.6c-1.3-7-5.2-13.1-11-17.2l9-15.5
c0.9-1.5,1.1-3.4,0.6-5.1c-0.5-1.7-1.8-3.1-3.4-3.9c-5.6-2.7-11.7-4.3-17.9-4.8C34.8,5,33,5.6,31.6,6.8c-1.3,1.2-2.1,2.9-2.1,4.7v2 c-5.2,0.3-10.3,1.6-15.1,3.7h0c-1.6,0.7-2.9,2.1-3.4,3.8c-0.6,1.7-0.4,3.6,0.6,5.2l4.7,8.2c-5.8,4.1-9.7,10.2-11,17.2 c-0.3,1.9,0.2,3.8,1.4,5.2c1.2,1.5,3,2.3,5,2.3h20.5h0h20.5c1.9,0,3.7-0.8,5-2.3C59,55.3,59.5,53.4,59.2,51.6z"/> <path fill="#7BC4E2" d="M10.7,52.5c-0.1,0.4,0.1,0.7,0.2,0.8c0.1,0.1,0.4,0.4,0.8,0.4h15.9L19,39C14.7,42.3,11.7,47.1,10.7,52.5z" /> <path fill="#FBB05B" d="M52.8,53.7c0.4,0,0.7-0.2,0.8-0.4c0.1-0.1,0.3-0.4,0.2-0.8c-1-5.4-4-10.2-8.4-13.5l-8.5,14.7H52.8z"/> <path fill="#ED6CA4" d="M35,29.4c3,0.3,5.8,1.1,8.5,2.3l9-15.5c0.2-0.3,0.1-0.7,0.1-0.8c-0.1-0.2-0.2-0.5-0.5-0.6 c-5-2.4-10.4-3.8-16-4.3c0,0-0.1,0-0.1,0c-0.3,0-0.6,0.2-0.7,0.3c-0.1,0.1-0.3,0.4-0.3,0.8v4.6c0,0,0,0,0,0V29.4z"/> <path fill="#ACD372" d="M29.6,18.9c-4.5,0.3-8.8,1.4-12.9,3.2c-0.3,0.2-0.5,0.4-0.5,0.6c-0.1,0.2-0.1,0.5,0.1,0.8l4.7,8.2 c2.7-1.2,5.6-2,8.5-2.3V18.9z"/> <path fill="#FFFFFF" d="M35,34.8L35,34.8c-0.9-0.1-1.8-0.2-2.7-0.2h0c-0.9,0-1.8,0.1-2.7,0.2l0,0c-2,0.2-4,0.7-5.8,1.5l5.8,10v0 l2.7,4.7l0,0l0,0l2.7-4.7v0l5.8-10C38.9,35.6,37,35.1,35,34.8z"/> <path d="M59.2,51.6c-1.3-7-5.2-13.1-11-17.2l9-15.5c0.9-1.5,1.1-3.4,0.6-5.1c-0.5-1.7-1.8-3.1-3.4-3.9c-5.6-2.7-11.7-4.3-17.9-4.8 C34.8,5,33,5.6,31.6,6.8c-1.3,1.2-2.1,2.9-2.1,4.7v2c-5.2,0.3-10.3,1.6-15.1,3.7h0c-1.6,0.7-2.9,2.1-3.4,3.8 c-0.6,1.7-0.4,3.6,0.6,5.2l4.7,8.2c-5.8,4.1-9.7,10.2-11,17.2c-0.3,1.9,0.2,3.8,1.4,5.2c1.2,1.5,3,2.3,5,2.3h20.5h0h20.5 c1.9,0,3.7-0.8,5-2.3C59,55.3,59.5,53.4,59.2,51.6z M53.6,53.3c-0.1,0.1-0.4,0.4-0.8,0.4H36.9L45.5,39c4.4,3.3,7.4,8.1,8.4,13.5 C53.9,52.9,53.7,53.2,53.6,53.3z M10.9,53.3c-0.1-0.1-0.3-0.4-0.2-0.8c1-5.4,4-10.2,8.4-13.5l8.5,14.7H11.7 C11.3,53.7,11,53.5,10.9,53.3z M16.2,22.7c0.1-0.2,0.2-0.4,0.5-0.6c4.1-1.8,8.4-2.9,12.9-3.2v10.6c-3,0.3-5.8,1.1-8.5,2.3l-4.7-8.2 C16.1,23.2,16.1,22.8,16.2,22.7z M52.6,15.3c0.1,0.2,0.1,0.5-0.1,0.8l-9,15.5c-2.7-1.2-5.6-2-8.5-2.3V16.1c0,0,0,0,0,0v-4.6 c0-0.4,0.2-0.6,0.3-0.8c0.1-0.1,0.4-0.3,0.7-0.3c0,0,0.1,0,0.1,0c5.6,0.5,11,1.9,16,4.3C52.4,14.9,52.6,15.2,52.6,15.3z M32.3,34.7 c0.9,0,1.8,0.1,2.7,0.2l0,0c2,0.2,4,0.7,5.8,1.5l-5.8,10v0L32.3,51l0,0l0,0l-2.7-4.7v0l-5.8-10c1.9-0.8,3.8-1.3,5.8-1.5l0,0 C30.5,34.7,31.4,34.7,32.3,34.7L32.3,34.7z"/> </svg>
